{"glyphs":{"0":{"ha":856,"x_min":49,"x_max":807,"o":"m 428 -21 q 236 34 322 -21 q 99 199 150 89 q 49 465 49 308 q 99 732 49 622 q 236 897 150 842 q 428 951 322 951 q 619 897 533 951 q 756 732 706 842 q 807 465 807 622 q 756 199 807 308 q 619 34 706 89 q 428 -21 533 -21 m 428 76 q 489 110 469 76 q 516 224 508 143 q 524 465 524 304 q 516 707 524 626 q 489 821 508 788 q 428 854 469 854 q 367 821 386 854 q 340 707 347 788 q 332 465 332 626 q 340 224 332 304 q 367 110 347 143 q 428 76 386 76 z "},"1":{"ha":646,"x_min":58,"x_max":611,"o":"m 58 0 q 168 69 133 25 q 203 208 203 114 l 203 660 q 172 763 203 732 q 76 803 142 794 l 467 951 l 467 208 q 503 69 467 115 q 611 0 540 22 l 58 0 z "},"2":{"ha":786,"x_min":35,"x_max":758,"o":"m 192 188 q 365 433 314 333 q 417 621 417 532 q 375 735 417 694 q 257 776 333 776 q 141 748 193 776 q 60 668 89 719 q 158 876 72 800 q 382 951 244 951 q 549 919 476 951 q 660 829 621 888 q 699 694 699 771 q 613 466 699 576 q 336 221 528 356 l 549 221 q 674 236 628 221 q 758 292 719 251 l 664 0 l 35 0 l 192 188 z "},"3":{"ha":751,"x_min":42,"x_max":703,"o":"m 378 -19 q 174 25 263 -19 q 42 146 85 69 q 132 119 96 126 q 213 113 168 113 q 360 160 303 113 q 418 285 418 208 q 363 422 418 371 q 194 478 307 472 l 194 489 q 356 550 297 500 q 415 671 415 600 q 369 775 415 738 q 242 813 324 813 q 146 797 192 813 q 49 749 100 782 q 165 898 75 844 q 389 951 256 951 q 613 891 529 951 q 697 731 697 831 q 446 492 697 529 l 446 485 q 638 424 572 483 q 703 254 703 365 q 661 114 703 176 q 545 16 619 51 q 378 -19 471 -19 z "},"4":{"ha":800,"x_min":-28,"x_max":786,"o":"m 629 271 l 629 167 q 653 68 629 113 q 718 0 676 24 l 235 0 q 365 161 365 47 l 365 271 l -28 271 l 407 931 l 629 931 l 629 417 l 786 417 l 786 271 l 629 271 m 365 417 l 365 672 l 196 417 l 365 417 z "},"5":{"ha":764,"x_min":14,"x_max":750,"o":"m 374 579 q 596 501 514 579 q 678 281 678 424 q 632 120 678 190 q 504 11 586 50 q 317 -28 422 -28 q 131 19 208 -28 q 14 150 53 67 q 107 118 67 128 q 189 108 147 108 q 339 156 285 108 q 393 282 393 203 q 347 394 393 356 q 231 432 301 432 q 160 424 193 432 q 83 401 126 417 l 211 931 l 603 931 q 683 940 647 931 q 750 972 719 949 l 672 732 l 272 732 l 233 560 q 374 579 294 579 z "},"6":{"ha":829,"x_min":42,"x_max":781,"o":"m 507 576 q 706 502 631 576 q 781 306 781 428 q 736 135 781 208 q 611 20 692 61 q 425 -21 531 -21 q 224 31 311 -21 q 90 175 138 82 q 42 390 42 268 q 110 672 42 543 q 297 876 179 801 q 553 951 414 951 q 774 883 713 951 q 682 892 738 892 q 448 803 533 892 q 339 533 363 714 q 507 576 397 576 m 422 68 q 477 110 458 68 q 496 233 496 153 q 458 409 496 349 q 349 469 421 469 q 332 468 338 469 q 329 376 329 410 q 353 148 329 228 q 422 68 378 68 z "},"7":{"ha":719,"x_min":14,"x_max":713,"o":"m 114 0 q 233 371 133 175 q 467 722 333 567 l 164 722 q 77 715 111 722 q 14 681 43 707 l 94 931 l 713 931 q 516 597 582 739 q 427 321 450 454 q 404 0 404 188 l 114 0 z "},"8":{"ha":815,"x_min":35,"x_max":781,"o":"m 658 478 q 781 268 781 399 q 737 121 781 186 q 608 17 693 56 q 406 -21 524 -21 q 136 42 238 -21 q 35 215 35 106 q 85 347 35 289 q 232 433 135 406 l 189 463 q 60 693 60 549 q 150 883 60 814 q 396 951 240 951 q 646 894 553 951 q 739 739 739 836 q 692 615 739 665 q 557 544 644 564 l 658 478 m 390 885 q 310 861 338 885 q 282 794 282 838 q 302 728 282 758 q 368 668 322 699 l 500 582 q 521 738 521 647 q 488 847 521 808 q 390 885 454 885 m 417 44 q 517 72 479 44 q 554 147 554 100 q 529 219 554 186 q 432 300 504 251 l 276 404 q 260 256 260 346 q 301 100 260 156 q 417 44 342 44 z "},"9":{"ha":829,"x_min":49,"x_max":788,"o":"m 404 951 q 605 900 518 951 q 740 756 692 849 q 788 540 788 663 q 719 258 788 388 q 533 54 650 129 q 276 -21 415 -21 q 56 47 117 -21 q 147 39 92 39 q 381 128 296 39 q 490 397 467 217 q 322 354 432 354 q 124 428 199 354 q 49 625 49 503 q 93 796 49 722 q 218 910 138 869 q 404 951 299 951 m 481 461 q 497 463 492 461 q 500 554 500 521 q 476 783 500 703 q 407 863 451 863 q 352 820 371 863 q 333 697 333 778 q 371 522 333 582 q 481 461 408 461 z "},"\r":{"ha":278,"x_min":0,"x_max":0,"o":""}," ":{"ha":278,"x_min":0,"x_max":0,"o":""},"A":{"ha":1033,"x_min":7,"x_max":1026,"o":"m 542 0 q 624 125 624 43 q 603 217 624 167 l 592 246 l 242 246 l 213 176 q 193 94 193 129 q 257 0 193 31 l 7 0 q 104 185 44 42 l 367 811 l 310 953 q 453 989 376 953 q 567 1086 529 1025 l 940 157 q 1026 0 981 53 l 542 0 m 553 343 l 421 674 l 282 343 l 553 343 z "},"B":{"ha":976,"x_min":49,"x_max":942,"o":"m 626 499 q 860 436 779 497 q 942 260 942 375 q 838 65 942 131 q 531 0 735 0 l 49 0 q 108 97 90 42 q 126 233 126 151 l 126 739 q 108 878 126 824 q 49 972 90 932 l 542 972 q 803 915 715 972 q 890 746 890 858 q 822 580 890 642 q 626 507 754 518 l 626 499 m 418 889 l 418 532 l 446 532 q 585 718 585 532 q 446 889 585 889 l 418 889 m 464 83 q 574 133 533 83 q 615 272 615 183 q 575 415 615 369 q 447 461 535 461 l 418 461 l 418 83 l 464 83 z "},"C":{"ha":956,"x_min":35,"x_max":907,"o":"m 603 88 q 768 152 693 88 q 907 346 843 217 l 907 47 q 575 -28 758 -28 q 289 33 411 -28 q 101 208 167 94 q 35 479 35 322 q 101 754 35 636 q 292 936 168 872 q 583 1000 415 1000 q 893 925 761 1000 l 893 626 q 758 823 828 761 q 597 885 688 885 q 424 783 483 885 q 365 500 365 681 q 395 276 365 369 q 479 135 425 183 q 603 88 533 88 z "},"D":{"ha":1017,"x_min":49,"x_max":989,"o":"m 49 0 q 108 97 90 42 q 126 233 126 151 l 126 739 q 108 877 126 822 q 49 972 90 932 l 471 972 q 750 913 633 972 q 928 746 867 854 q 989 490 989 638 q 921 220 989 331 q 737 55 853 110 q 475 0 621 0 l 49 0 m 418 83 q 562 118 506 83 q 647 236 618 153 q 676 464 676 319 q 609 790 676 692 q 418 889 542 889 l 418 83 z "},"E":{"ha":863,"x_min":49,"x_max":821,"o":"m 418 76 q 649 158 539 76 q 821 389 758 239 l 783 -3 l 49 -3 q 108 94 90 39 q 126 231 126 149 l 126 736 q 108 876 126 819 q 49 972 90 932 l 769 972 l 792 625 q 629 822 731 747 q 418 896 528 896 l 418 518 q 554 569 485 518 q 660 690 624 619 l 660 269 q 554 394 622 346 q 418 442 486 442 l 418 76 z "},"F":{"ha":813,"x_min":49,"x_max":792,"o":"m 792 625 q 630 821 731 746 q 418 896 529 896 l 418 514 q 554 565 485 514 q 660 690 624 617 l 660 269 q 554 397 622 347 q 418 446 486 446 l 418 233 q 449 85 418 143 q 549 0 479 28 l 49 0 q 108 97 90 42 q 126 233 126 151 l 126 739 q 108 877 126 822 q 49 972 90 932 l 769 972 l 792 625 z "},"G":{"ha":983,"x_min":35,"x_max":969,"o":"m 969 457 q 925 397 942 435 q 908 319 908 360 l 908 76 q 749 1 846 29 q 557 -28 653 -28 q 280 33 397 -28 q 99 207 163 94 q 35 471 35 319 q 103 748 35 628 q 298 934 172 868 q 589 1000 424 1000 q 765 982 689 1000 q 908 925 840 964 l 908 626 q 773 823 850 754 q 610 892 696 892 q 426 793 489 892 q 364 503 364 694 q 394 283 364 382 q 478 126 425 183 q 597 69 532 69 q 631 76 619 69 l 631 264 q 604 388 631 342 q 522 457 578 435 l 969 457 z "},"H":{"ha":1069,"x_min":49,"x_max":1021,"o":"m 943 233 q 961 97 943 151 q 1021 0 979 42 l 574 0 q 633 97 615 42 q 651 233 651 151 l 651 440 l 418 440 l 418 233 q 436 97 418 151 q 496 0 454 42 l 49 0 q 108 97 90 42 q 126 233 126 151 l 126 739 q 108 877 126 822 q 49 972 90 932 l 496 972 q 436 877 454 932 q 418 739 418 822 l 418 538 l 651 538 l 651 739 q 633 877 651 822 q 574 972 615 932 l 1021 972 q 961 877 979 932 q 943 739 943 822 l 943 233 z "},"I":{"ha":544,"x_min":49,"x_max":496,"o":"m 49 0 q 108 97 90 42 q 126 233 126 151 l 126 739 q 108 877 126 822 q 49 972 90 932 l 496 972 q 436 877 454 932 q 418 739 418 822 l 418 233 q 436 97 418 151 q 496 0 454 42 l 49 0 z "},"J":{"ha":531,"x_min":-21,"x_max":517,"o":"m 122 -107 q 36 -102 67 -107 q -21 -86 6 -97 q 106 -24 65 -82 q 147 133 147 35 l 147 739 q 124 881 147 821 q 58 972 100 942 l 517 972 q 457 877 475 932 q 439 739 439 822 l 439 199 q 355 -31 439 46 q 122 -107 271 -107 z "},"K":{"ha":1125,"x_min":49,"x_max":1118,"o":"m 418 233 q 436 97 418 151 q 496 0 454 42 l 49 0 q 108 97 90 42 q 126 233 126 151 l 126 739 q 108 877 126 822 q 49 972 90 932 l 496 972 q 436 877 454 932 q 418 739 418 822 l 418 233 m 996 157 q 1118 0 1078 35 l 735 0 l 425 481 l 697 761 q 761 882 761 825 q 744 934 761 911 q 699 972 728 957 l 1065 972 q 997 922 1033 954 q 876 808 960 889 l 685 625 l 996 157 z "},"L":{"ha":800,"x_min":49,"x_max":779,"o":"m 49 0 q 108 97 90 42 q 126 233 126 151 l 126 739 q 108 877 126 822 q 49 972 90 932 l 499 972 q 437 878 456 932 q 418 739 418 824 l 418 83 q 541 131 472 83 q 674 256 610 178 q 779 424 739 335 l 735 0 l 49 0 z "},"M":{"ha":1285,"x_min":21,"x_max":1264,"o":"m 789 0 q 889 206 897 60 l 856 739 l 546 -28 l 244 743 l 214 201 q 213 161 213 186 q 236 60 213 93 q 328 0 260 26 l 21 0 q 84 71 67 29 q 107 201 101 113 l 143 824 q 126 908 146 869 q 74 972 106 946 l 449 972 l 632 492 l 818 972 l 1217 972 q 1163 907 1182 947 q 1146 813 1143 867 l 1181 193 q 1264 0 1189 56 l 789 0 z "},"N":{"ha":1011,"x_min":14,"x_max":990,"o":"m 990 972 q 922 899 943 943 q 901 786 901 856 l 901 -28 l 258 697 l 258 192 q 285 76 258 121 q 372 0 313 32 l 58 0 q 125 76 103 29 q 147 192 147 122 l 147 822 l 114 860 l 14 972 l 393 972 l 790 549 l 790 786 q 765 903 790 863 q 674 972 740 943 l 990 972 z "},"O":{"ha":1111,"x_min":35,"x_max":1076,"o":"m 556 -28 q 288 37 407 -28 q 102 218 169 101 q 35 486 35 335 q 102 754 35 638 q 288 935 169 871 q 556 1000 407 1000 q 823 935 704 1000 q 1009 754 942 871 q 1076 486 1076 638 q 1009 218 1076 335 q 823 37 942 101 q 556 -28 704 -28 m 556 71 q 692 178 647 71 q 736 486 736 285 q 692 794 736 688 q 556 901 647 901 q 419 794 464 901 q 375 486 375 688 q 419 178 375 285 q 556 71 464 71 z "},"P":{"ha":904,"x_min":49,"x_max":883,"o":"m 503 972 q 784 901 685 972 q 883 688 883 829 q 844 544 883 608 q 735 442 804 479 q 582 406 665 406 q 495 415 535 406 q 431 443 456 425 q 545 539 506 475 q 585 689 585 603 q 541 841 585 786 q 425 896 497 896 l 418 896 l 418 233 q 447 97 418 153 q 535 0 476 40 l 49 0 q 108 97 90 42 q 126 233 126 151 l 126 739 q 108 877 126 822 q 49 972 90 932 l 503 972 z "},"Q":{"ha":1125,"x_min":35,"x_max":1382,"o":"m 1182 -135 q 1301 -126 1246 -135 q 1382 -106 1357 -118 q 1234 -203 1338 -162 q 999 -243 1131 -243 q 217 85 565 -243 q 83 257 131 154 q 35 486 35 360 q 102 754 35 638 q 288 935 169 871 q 556 1000 407 1000 q 823 935 704 1000 q 1009 754 942 871 q 1076 486 1076 638 q 1031 263 1076 364 q 905 92 986 161 q 715 -7 824 24 q 933 -104 813 -74 q 1182 -135 1053 -135 m 556 901 q 419 794 464 901 q 375 486 375 688 q 419 178 375 285 q 556 71 464 71 q 692 178 647 71 q 736 486 736 285 q 692 794 736 688 q 556 901 647 901 z "},"R":{"ha":1007,"x_min":49,"x_max":1000,"o":"m 939 108 q 1000 0 968 33 l 674 0 q 621 128 654 24 q 593 211 601 183 q 560 311 579 261 q 522 396 540 368 q 483 432 503 424 q 433 440 464 440 l 418 440 l 418 226 q 434 94 418 150 q 486 0 450 39 l 49 0 q 108 97 90 42 q 126 233 126 151 l 126 739 q 108 877 126 822 q 49 972 90 932 l 536 972 q 801 909 717 972 q 886 733 886 846 q 799 552 886 611 q 563 492 713 493 l 563 482 q 753 449 685 486 q 854 335 821 411 q 911 186 878 281 q 939 108 926 139 m 444 517 q 540 565 507 517 q 572 707 572 614 q 541 847 572 797 q 444 896 510 896 l 418 896 l 418 517 l 444 517 z "},"S":{"ha":806,"x_min":35,"x_max":785,"o":"m 394 -28 q 202 -3 296 -28 q 40 67 108 22 l 40 346 q 422 71 240 71 q 517 97 482 71 q 553 168 553 122 q 527 245 553 214 q 449 296 501 276 l 246 372 q 91 490 147 408 q 35 675 35 571 q 83 842 35 768 q 216 958 131 917 q 408 1000 301 1000 q 577 981 504 1000 q 718 921 650 963 l 718 654 q 378 900 572 900 q 288 876 319 900 q 256 806 256 851 q 281 740 256 765 q 365 690 307 714 l 568 608 q 731 493 678 564 q 785 322 785 422 q 735 140 785 219 q 597 17 686 61 q 394 -28 508 -28 z "},"T":{"ha":925,"x_min":0,"x_max":925,"o":"m 608 275 q 635 119 608 182 q 725 0 661 57 l 200 0 q 290 119 264 57 q 317 275 317 182 l 317 892 q 163 835 244 882 q 0 707 82 788 l 56 1014 q 240 972 110 972 l 685 972 q 869 1014 815 972 l 925 707 q 762 835 843 788 q 608 892 681 882 l 608 275 z "},"U":{"ha":975,"x_min":14,"x_max":961,"o":"m 499 -28 q 197 78 301 -28 q 92 383 92 185 l 92 739 q 74 876 92 822 q 14 972 56 931 l 503 972 q 422 876 447 931 q 397 739 397 821 l 397 367 q 447 197 397 256 q 592 139 496 139 q 726 197 681 139 q 772 367 772 254 l 772 739 q 747 876 772 821 q 667 972 722 931 l 961 972 q 901 876 919 931 q 883 739 883 822 l 883 383 q 784 78 883 185 q 499 -28 685 -28 z "},"V":{"ha":947,"x_min":7,"x_max":940,"o":"m 940 972 q 880 898 900 931 q 831 799 860 865 l 467 -28 l 97 807 q 51 906 71 868 q 7 972 31 943 l 467 972 q 400 858 400 929 q 405 810 400 832 q 424 758 410 789 l 568 429 l 711 758 q 731 813 725 792 q 736 857 736 833 q 717 921 736 888 q 674 972 699 954 l 940 972 z "},"W":{"ha":1461,"x_min":7,"x_max":1454,"o":"m 1454 972 q 1395 899 1415 931 q 1344 799 1375 867 l 985 -28 l 731 553 l 479 -28 l 117 799 q 68 896 88 864 q 7 972 49 928 l 467 972 q 414 858 414 928 q 419 812 414 833 q 438 758 424 790 l 575 431 l 676 676 l 619 807 q 573 906 593 868 q 529 972 553 943 l 989 972 q 922 858 922 929 q 927 812 922 833 q 946 758 932 790 l 1086 431 l 1225 758 q 1244 813 1239 792 q 1250 857 1250 833 q 1231 921 1250 888 q 1188 972 1213 954 l 1454 972 z "},"X":{"ha":1061,"x_min":7,"x_max":1054,"o":"m 554 0 q 599 82 599 36 q 539 226 599 136 l 463 344 l 351 204 q 304 97 304 146 q 354 0 304 47 l 7 0 q 199 171 104 54 l 408 431 l 154 824 q 31 972 93 917 l 531 972 q 486 890 486 936 q 546 746 486 836 l 618 633 l 707 746 q 756 869 756 807 q 697 972 756 938 l 1028 972 q 953 901 1000 951 q 857 788 907 851 l 672 550 l 931 149 q 1054 0 992 56 l 554 0 z "},"Y":{"ha":911,"x_min":7,"x_max":904,"o":"m 904 972 q 840 897 882 954 q 779 799 799 839 l 600 429 l 600 233 q 618 97 600 151 q 678 0 636 42 l 231 0 q 290 97 272 42 q 308 233 308 151 l 308 422 l 115 831 q 61 919 93 876 q 7 972 29 961 l 478 972 q 410 869 410 943 q 435 774 410 826 l 546 544 l 661 774 q 686 868 686 824 q 669 931 686 904 q 619 972 653 958 l 904 972 z "},"Z":{"ha":892,"x_min":21,"x_max":864,"o":"m 401 83 q 571 133 481 83 q 739 263 661 182 q 857 429 817 343 l 814 0 l 21 0 l 503 889 l 501 889 q 255 803 372 889 q 58 569 138 718 l 97 972 l 864 972 l 400 83 l 401 83 z "},"À":{"ha":1033,"x_min":7,"x_max":1026,"o":"m 478 1047 l 236 1183 l 236 1194 l 426 1194 l 506 1047 l 478 1047 m 542 0 q 624 125 624 43 q 603 217 624 167 l 592 246 l 242 246 l 213 176 q 193 94 193 129 q 257 0 193 31 l 7 0 q 104 185 44 42 l 367 811 l 310 953 q 453 989 376 953 q 567 1086 529 1025 l 940 157 q 1026 0 981 53 l 542 0 m 553 343 l 421 674 l 282 343 l 553 343 z "},"Á":{"ha":1033,"x_min":7,"x_max":1026,"o":"m 542 0 q 624 125 624 43 q 603 217 624 167 l 592 246 l 242 246 l 213 176 q 193 94 193 129 q 257 0 193 31 l 7 0 q 104 185 44 42 l 367 811 l 310 953 q 429 978 365 953 q 536 1047 493 1003 l 508 1047 l 588 1194 l 778 1194 l 778 1183 l 574 1068 l 940 157 q 1026 0 981 53 l 542 0 m 553 343 l 421 674 l 282 343 l 553 343 z "},"Â":{"ha":1033,"x_min":7,"x_max":1026,"o":"m 542 0 q 624 125 624 43 q 603 217 624 167 l 592 246 l 242 246 l 213 176 q 193 94 193 129 q 257 0 193 31 l 7 0 q 104 185 44 42 l 367 811 l 310 953 q 447 986 374 953 q 560 1076 521 1019 l 507 1103 l 358 1028 l 324 1028 l 489 1194 l 525 1194 l 690 1028 l 656 1028 l 574 1069 l 940 157 q 1026 0 981 53 l 542 0 m 553 343 l 421 674 l 282 343 l 553 343 z "},"Ã":{"ha":1033,"x_min":7,"x_max":1026,"o":"m 542 0 q 624 125 624 43 q 603 217 624 167 l 592 246 l 242 246 l 213 176 q 193 94 193 129 q 257 0 193 31 l 7 0 q 104 185 44 42 l 367 811 l 310 953 q 431 979 365 953 q 540 1051 497 1006 q 492 1071 522 1057 q 444 1090 465 1083 q 394 1097 422 1097 q 335 1085 364 1097 q 292 1044 307 1072 l 281 1044 q 439 1194 294 1194 q 493 1188 471 1194 q 544 1167 515 1181 q 592 1147 571 1154 q 642 1140 614 1140 q 701 1153 672 1140 q 744 1193 729 1165 l 756 1193 q 597 1043 742 1043 l 583 1043 l 940 157 q 1026 0 981 53 l 542 0 m 553 343 l 421 674 l 282 343 l 553 343 z "},"Ä":{"ha":1033,"x_min":7,"x_max":1026,"o":"m 367 1053 q 307 1077 332 1053 q 282 1138 282 1101 q 307 1198 282 1174 q 367 1222 332 1222 q 426 1198 401 1222 q 451 1138 451 1174 q 426 1077 451 1101 q 367 1053 401 1053 m 647 1053 q 588 1077 613 1053 q 563 1138 563 1101 q 588 1198 563 1174 q 647 1222 613 1222 q 707 1198 682 1222 q 732 1138 732 1174 q 707 1077 732 1101 q 647 1053 682 1053 m 542 0 q 624 125 624 43 q 603 217 624 167 l 592 246 l 242 246 l 213 176 q 193 94 193 129 q 257 0 193 31 l 7 0 q 104 185 44 42 l 367 811 l 310 953 q 453 989 376 953 q 567 1086 529 1025 l 940 157 q 1026 0 981 53 l 542 0 m 553 343 l 421 674 l 282 343 l 553 343 z "},"Ā":{"ha":1033,"x_min":7,"x_max":1026,"o":"m 542 0 q 624 125 624 43 q 603 217 624 167 l 592 246 l 242 246 l 213 176 q 193 94 193 129 q 257 0 193 31 l 7 0 q 104 185 44 42 l 367 811 l 310 953 q 450 988 375 953 q 563 1081 525 1022 l 286 1081 l 286 1136 l 728 1136 l 728 1081 l 569 1081 l 940 157 q 1026 0 981 53 l 542 0 m 553 343 l 421 674 l 282 343 l 553 343 z "},"Ă":{"ha":1033,"x_min":7,"x_max":1026,"o":"m 542 0 q 624 125 624 43 q 603 217 624 167 l 592 246 l 242 246 l 213 176 q 193 94 193 129 q 257 0 193 31 l 7 0 q 104 185 44 42 l 367 811 l 310 953 q 432 980 365 953 q 542 1053 499 1007 q 508 1051 531 1051 q 371 1094 425 1051 q 317 1208 317 1136 l 344 1208 q 393 1150 349 1171 q 508 1129 438 1129 q 623 1150 579 1129 q 672 1208 667 1171 l 700 1208 q 667 1115 700 1153 q 576 1060 633 1076 l 940 157 q 1026 0 981 53 l 542 0 m 553 343 l 421 674 l 282 343 l 553 343 z "},"Å":{"ha":1033,"x_min":7,"x_max":1026,"o":"m 542 0 q 624 125 624 43 q 603 217 624 167 l 592 246 l 242 246 l 213 176 q 193 94 193 129 q 257 0 193 31 l 7 0 q 104 185 44 42 l 367 811 l 310 953 q 387 965 344 953 q 469 997 429 976 q 413 1035 433 1008 q 392 1100 392 1063 q 424 1178 392 1147 q 507 1208 457 1208 q 590 1178 557 1208 q 622 1100 622 1147 q 592 1024 622 1054 l 940 157 q 1026 0 981 53 l 542 0 m 508 1022 q 567 1086 544 1050 l 576 1060 q 586 1100 586 1075 q 563 1158 586 1138 q 507 1178 540 1178 q 451 1158 474 1178 q 428 1100 428 1138 q 451 1042 428 1063 q 507 1022 474 1022 l 508 1022 m 553 343 l 421 674 l 282 343 l 553 343 z "},"Ą":{"ha":1033,"x_min":7,"x_max":1026,"o":"m 546 -178 q 636 -112 608 -178 l 643 -115 q 595 -247 635 -203 q 489 -292 556 -292 q 380 -258 421 -292 q 339 -165 339 -225 q 390 -57 339 -104 q 553 7 442 -10 q 624 125 624 50 q 603 217 624 167 l 592 246 l 242 246 l 213 176 q 193 94 193 129 q 257 0 193 31 l 7 0 q 104 185 44 42 l 367 811 l 310 953 q 453 989 376 953 q 567 1086 529 1025 l 940 157 q 1026 0 981 53 l 556 0 q 464 -100 464 -31 q 486 -158 464 -137 q 546 -178 508 -178 m 553 343 l 421 674 l 282 343 l 553 343 z "},"Æ":{"ha":1383,"x_min":61,"x_max":1342,"o":"m 939 76 q 1169 158 1060 76 q 1342 389 1279 239 l 1304 -3 l 569 -3 q 629 94 611 39 q 647 231 647 149 l 647 246 l 326 246 l 314 221 q 275 93 275 142 q 288 43 275 65 q 326 0 300 21 l 61 0 q 117 66 90 26 q 181 185 143 106 l 550 972 l 1290 972 l 1313 625 q 1150 822 1251 747 q 939 896 1049 896 l 939 518 q 1075 569 1006 518 q 1181 690 1144 619 l 1181 269 q 1075 394 1143 346 q 939 442 1007 442 l 939 76 m 647 343 l 647 919 l 372 343 l 647 343 z "},"Ǽ":{"ha":1383,"x_min":61,"x_max":1342,"o":"m 874 1047 l 846 1047 l 925 1194 l 1115 1194 l 1115 1183 l 874 1047 m 939 76 q 1169 158 1060 76 q 1342 389 1279 239 l 1304 -3 l 569 -3 q 629 94 611 39 q 647 231 647 149 l 647 246 l 326 246 l 314 221 q 275 93 275 142 q 288 43 275 65 q 326 0 300 21 l 61 0 q 117 66 90 26 q 181 185 143 106 l 550 972 l 1290 972 l 1313 625 q 1150 822 1251 747 q 939 896 1049 896 l 939 518 q 1075 569 1006 518 q 1181 690 1144 619 l 1181 269 q 1075 394 1143 346 q 939 442 1007 442 l 939 76 m 647 343 l 647 919 l 372 343 l 647 343 z "},"Ć":{"ha":956,"x_min":35,"x_max":907,"o":"m 600 1047 l 679 1194 l 869 1194 l 869 1183 l 628 1047 l 600 1047 m 603 88 q 768 152 693 88 q 907 346 843 217 l 907 47 q 575 -28 758 -28 q 289 33 411 -28 q 101 208 167 94 q 35 479 35 322 q 101 754 35 636 q 292 936 168 872 q 583 1000 415 1000 q 893 925 761 1000 l 893 626 q 758 823 828 761 q 597 885 688 885 q 424 783 483 885 q 365 500 365 681 q 395 276 365 369 q 479 135 425 183 q 603 88 533 88 z "},"Ĉ":{"ha":956,"x_min":35,"x_max":907,"o":"m 415 1028 l 581 1194 l 617 1194 l 782 1028 l 747 1028 l 599 1103 l 450 1028 l 415 1028 m 603 88 q 768 152 693 88 q 907 346 843 217 l 907 47 q 575 -28 758 -28 q 289 33 411 -28 q 101 208 167 94 q 35 479 35 322 q 101 754 35 636 q 292 936 168 872 q 583 1000 415 1000 q 893 925 761 1000 l 893 626 q 758 823 828 761 q 597 885 688 885 q 424 783 483 885 q 365 500 365 681 q 395 276 365 369 q 479 135 425 183 q 603 88 533 88 z "},"Č":{"ha":956,"x_min":35,"x_max":907,"o":"m 599 1119 l 747 1194 l 782 1194 l 617 1028 l 581 1028 l 415 1194 l 450 1194 l 599 1119 m 603 88 q 768 152 693 88 q 907 346 843 217 l 907 47 q 575 -28 758 -28 q 289 33 411 -28 q 101 208 167 94 q 35 479 35 322 q 101 754 35 636 q 292 936 168 872 q 583 1000 415 1000 q 893 925 761 1000 l 893 626 q 758 823 828 761 q 597 885 688 885 q 424 783 483 885 q 365 500 365 681 q 395 276 365 369 q 479 135 425 183 q 603 88 533 88 z "},"Ċ":{"ha":956,"x_min":35,"x_max":907,"o":"m 599 1028 q 533 1053 558 1028 q 508 1118 508 1078 q 533 1183 508 1158 q 599 1208 558 1208 q 664 1183 639 1208 q 689 1118 689 1158 q 664 1053 689 1078 q 599 1028 639 1028 m 603 88 q 768 152 693 88 q 907 346 843 217 l 907 47 q 575 -28 758 -28 q 289 33 411 -28 q 101 208 167 94 q 35 479 35 322 q 101 754 35 636 q 292 936 168 872 q 583 1000 415 1000 q 893 925 761 1000 l 893 626 q 758 823 828 761 q 597 885 688 885 q 424 783 483 885 q 365 500 365 681 q 395 276 365 369 q 479 135 425 183 q 603 88 533 88 z "},"Ç":{"ha":956,"x_min":35,"x_max":907,"o":"m 563 -28 l 532 -76 q 581 -65 550 -65 q 660 -94 628 -65 q 692 -174 692 -124 q 656 -264 692 -229 q 564 -299 619 -299 q 488 -273 517 -299 q 449 -203 458 -247 l 464 -196 q 529 -235 483 -235 q 571 -217 556 -235 q 586 -171 586 -200 q 572 -131 586 -146 q 536 -115 558 -115 q 522 -117 529 -115 q 506 -124 515 -118 l 483 -112 l 535 -26 q 269 43 382 -19 q 96 217 157 106 q 35 479 35 329 q 101 754 35 636 q 292 936 168 872 q 583 1000 415 1000 q 893 925 761 1000 l 893 626 q 758 823 828 761 q 597 885 688 885 q 424 783 483 885 q 365 500 365 681 q 395 276 365 369 q 479 135 425 183 q 603 88 533 88 q 768 152 693 88 q 907 346 843 217 l 907 47 q 575 -28 758 -28 l 563 -28 z "},"Ď":{"ha":1017,"x_min":49,"x_max":989,"o":"m 513 1119 l 661 1194 l 696 1194 l 531 1028 l 494 1028 l 329 1194 l 364 1194 l 513 1119 m 49 0 q 108 97 90 42 q 126 233 126 151 l 126 739 q 108 877 126 822 q 49 972 90 932 l 471 972 q 750 913 633 972 q 928 746 867 854 q 989 490 989 638 q 921 220 989 331 q 737 55 853 110 q 475 0 621 0 l 49 0 m 418 83 q 562 118 506 83 q 647 236 618 153 q 676 464 676 319 q 609 790 676 692 q 418 889 542 889 l 418 83 z "},"Đ":{"ha":1021,"x_min":49,"x_max":993,"o":"m 475 972 q 754 913 638 972 q 932 746 871 854 q 993 490 993 638 q 925 220 993 331 q 741 55 857 110 q 479 0 625 0 l 53 0 q 113 97 94 42 q 131 233 131 151 l 131 483 l 49 483 l 49 525 l 131 525 l 131 739 q 113 877 131 822 q 53 972 94 932 l 475 972 m 422 83 q 566 118 510 83 q 651 236 622 153 q 681 464 681 319 q 613 790 681 692 q 422 889 546 889 l 422 525 l 567 525 l 567 483 l 422 483 l 422 83 z "},"È":{"ha":863,"x_min":49,"x_max":821,"o":"m 449 1047 l 207 1183 l 207 1194 l 397 1194 l 476 1047 l 449 1047 m 418 76 q 649 158 539 76 q 821 389 758 239 l 783 -3 l 49 -3 q 108 94 90 39 q 126 231 126 149 l 126 736 q 108 876 126 819 q 49 972 90 932 l 769 972 l 792 625 q 629 822 731 747 q 418 896 528 896 l 418 518 q 554 569 485 518 q 660 690 624 619 l 660 269 q 554 394 622 346 q 418 442 486 442 l 418 76 z "},"É":{"ha":863,"x_min":49,"x_max":821,"o":"m 507 1047 l 479 1047 l 558 1194 l 749 1194 l 749 1183 l 507 1047 m 418 76 q 649 158 539 76 q 821 389 758 239 l 783 -3 l 49 -3 q 108 94 90 39 q 126 231 126 149 l 126 736 q 108 876 126 819 q 49 972 90 932 l 769 972 l 792 625 q 629 822 731 747 q 418 896 528 896 l 418 518 q 554 569 485 518 q 660 690 624 619 l 660 269 q 554 394 622 346 q 418 442 486 442 l 418 76 z "},"Ê":{"ha":863,"x_min":49,"x_max":821,"o":"m 329 1028 l 294 1028 l 460 1194 l 496 1194 l 661 1028 l 626 1028 l 478 1103 l 329 1028 m 418 76 q 649 158 539 76 q 821 389 758 239 l 783 -3 l 49 -3 q 108 94 90 39 q 126 231 126 149 l 126 736 q 108 876 126 819 q 49 972 90 932 l 769 972 l 792 625 q 629 822 731 747 q 418 896 528 896 l 418 518 q 554 569 485 518 q 660 690 624 619 l 660 269 q 554 394 622 346 q 418 442 486 442 l 418 76 z "},"Ě":{"ha":863,"x_min":49,"x_max":821,"o":"m 460 1028 l 294 1194 l 329 1194 l 478 1119 l 626 1194 l 661 1194 l 496 1028 l 460 1028 m 418 76 q 649 158 539 76 q 821 389 758 239 l 783 -3 l 49 -3 q 108 94 90 39 q 126 231 126 149 l 126 736 q 108 876 126 819 q 49 972 90 932 l 769 972 l 792 625 q 629 822 731 747 q 418 896 528 896 l 418 518 q 554 569 485 518 q 660 690 624 619 l 660 269 q 554 394 622 346 q 418 442 486 442 l 418 76 z "},"Ë":{"ha":863,"x_min":49,"x_max":821,"o":"m 338 1053 q 278 1077 303 1053 q 253 1138 253 1101 q 278 1198 253 1174 q 338 1222 303 1222 q 397 1198 372 1222 q 422 1138 422 1174 q 397 1077 422 1101 q 338 1053 372 1053 m 618 1053 q 558 1077 583 1053 q 533 1138 533 1101 q 558 1198 533 1174 q 618 1222 583 1222 q 678 1198 653 1222 q 703 1138 703 1174 q 678 1077 703 1101 q 618 1053 653 1053 m 418 76 q 649 158 539 76 q 821 389 758 239 l 783 -3 l 49 -3 q 108 94 90 39 q 126 231 126 149 l 126 736 q 108 876 126 819 q 49 972 90 932 l 769 972 l 792 625 q 629 822 731 747 q 418 896 528 896 l 418 518 q 554 569 485 518 q 660 690 624 619 l 660 269 q 554 394 622 346 q 418 442 486 442 l 418 76 z "},"Ē":{"ha":863,"x_min":49,"x_max":821,"o":"m 418 76 q 649 158 539 76 q 821 389 758 239 l 783 -3 l 49 -3 q 108 94 90 39 q 126 231 126 149 l 126 736 q 108 876 126 819 q 49 972 90 932 l 769 972 l 792 625 q 629 822 731 747 q 418 896 528 896 l 418 518 q 554 569 485 518 q 660 690 624 619 l 660 269 q 554 394 622 346 q 418 442 486 442 l 418 76 m 257 1136 l 699 1136 l 699 1081 l 257 1081 l 257 1136 z "},"Ĕ":{"ha":863,"x_min":49,"x_max":821,"o":"m 479 1051 q 342 1094 396 1051 q 288 1208 288 1136 l 315 1208 q 364 1150 319 1171 q 479 1129 408 1129 q 594 1150 550 1129 q 643 1208 638 1171 l 671 1208 q 617 1094 671 1136 q 479 1051 563 1051 m 418 76 q 649 158 539 76 q 821 389 758 239 l 783 -3 l 49 -3 q 108 94 90 39 q 126 231 126 149 l 126 736 q 108 876 126 819 q 49 972 90 932 l 769 972 l 792 625 q 629 822 731 747 q 418 896 528 896 l 418 518 q 554 569 485 518 q 660 690 624 619 l 660 269 q 554 394 622 346 q 418 442 486 442 l 418 76 z "},"Ė":{"ha":863,"x_min":49,"x_max":821,"o":"m 478 1028 q 413 1053 438 1028 q 388 1118 388 1078 q 413 1183 388 1158 q 478 1208 438 1208 q 543 1183 518 1208 q 568 1118 568 1158 q 543 1053 568 1078 q 478 1028 518 1028 m 418 76 q 649 158 539 76 q 821 389 758 239 l 783 -3 l 49 -3 q 108 94 90 39 q 126 231 126 149 l 126 736 q 108 876 126 819 q 49 972 90 932 l 769 972 l 792 625 q 629 822 731 747 q 418 896 528 896 l 418 518 q 554 569 485 518 q 660 690 624 619 l 660 269 q 554 394 622 346 q 418 442 486 442 l 418 76 z "},"Ę":{"ha":863,"x_min":49,"x_max":821,"o":"m 646 -3 q 563 -100 563 -35 q 585 -158 563 -137 q 644 -178 607 -178 q 735 -112 707 -178 l 742 -115 q 694 -247 733 -203 q 588 -292 654 -292 q 478 -258 519 -292 q 438 -165 438 -225 q 478 -68 438 -111 q 604 -3 518 -25 l 49 -3 q 108 94 90 39 q 126 231 126 149 l 126 736 q 108 876 126 819 q 49 972 90 932 l 769 972 l 792 625 q 629 822 731 747 q 418 896 528 896 l 418 518 q 554 569 485 518 q 660 690 624 619 l 660 269 q 554 394 622 346 q 418 442 486 442 l 418 76 q 649 158 539 76 q 821 389 758 239 l 783 -3 l 646 -3 z "},"Ĝ":{"ha":983,"x_min":35,"x_max":969,"o":"m 400 1028 l 565 1194 l 601 1194 l 767 1028 l 732 1028 l 583 1103 l 435 1028 l 400 1028 m 969 457 q 925 397 942 435 q 908 319 908 360 l 908 76 q 749 1 846 29 q 557 -28 653 -28 q 280 33 397 -28 q 99 207 163 94 q 35 471 35 319 q 103 748 35 628 q 298 934 172 868 q 589 1000 424 1000 q 765 982 689 1000 q 908 925 840 964 l 908 626 q 773 823 850 754 q 610 892 696 892 q 426 793 489 892 q 364 503 364 694 q 394 283 364 382 q 478 126 425 183 q 597 69 532 69 q 631 76 619 69 l 631 264 q 604 388 631 342 q 522 457 578 435 l 969 457 z "},"Ğ":{"ha":983,"x_min":35,"x_max":969,"o":"m 585 1051 q 447 1094 501 1051 q 393 1208 393 1136 l 421 1208 q 469 1150 425 1171 q 585 1129 514 1129 q 699 1150 656 1129 q 749 1208 743 1171 l 776 1208 q 722 1094 776 1136 q 585 1051 668 1051 m 969 457 q 925 397 942 435 q 908 319 908 360 l 908 76 q 749 1 846 29 q 557 -28 653 -28 q 280 33 397 -28 q 99 207 163 94 q 35 471 35 319 q 103 748 35 628 q 298 934 172 868 q 589 1000 424 1000 q 765 982 689 1000 q 908 925 840 964 l 908 626 q 773 823 850 754 q 610 892 696 892 q 426 793 489 892 q 364 503 364 694 q 394 283 364 382 q 478 126 425 183 q 597 69 532 69 q 631 76 619 69 l 631 264 q 604 388 631 342 q 522 457 578 435 l 969 457 z "},"Ġ":{"ha":983,"x_min":35,"x_max":969,"o":"m 583 1028 q 518 1053 543 1028 q 493 1118 493 1078 q 518 1183 493 1158 q 583 1208 543 1208 q 649 1183 624 1208 q 674 1118 674 1158 q 649 1053 674 1078 q 583 1028 624 1028 m 969 457 q 925 397 942 435 q 908 319 908 360 l 908 76 q 749 1 846 29 q 557 -28 653 -28 q 280 33 397 -28 q 99 207 163 94 q 35 471 35 319 q 103 748 35 628 q 298 934 172 868 q 589 1000 424 1000 q 765 982 689 1000 q 908 925 840 964 l 908 626 q 773 823 850 754 q 610 892 696 892 q 426 793 489 892 q 364 503 364 694 q 394 283 364 382 q 478 126 425 183 q 597 69 532 69 q 631 76 619 69 l 631 264 q 604 388 631 342 q 522 457 578 435 l 969 457 z "},"Ģ":{"ha":983,"x_min":35,"x_max":969,"o":"m 969 457 q 925 397 942 435 q 908 319 908 360 l 908 76 q 749 1 846 29 q 557 -28 653 -28 q 280 33 397 -28 q 99 207 163 94 q 35 471 35 319 q 103 748 35 628 q 298 934 172 868 q 589 1000 424 1000 q 765 982 689 1000 q 908 925 840 964 l 908 626 q 773 823 850 754 q 610 892 696 892 q 426 793 489 892 q 364 503 364 694 q 394 283 364 382 q 478 126 425 183 q 597 69 532 69 q 631 76 619 69 l 631 264 q 604 388 631 342 q 522 457 578 435 l 969 457 m 543 -274 q 617 -218 617 -258 q 608 -194 617 -203 q 572 -179 599 -186 q 531 -156 544 -171 q 518 -118 518 -142 q 535 -73 518 -90 q 583 -56 553 -56 q 651 -87 622 -56 q 681 -161 681 -119 q 648 -247 681 -211 q 551 -299 615 -282 l 543 -274 z "},"Ĥ":{"ha":1069,"x_min":49,"x_max":1021,"o":"m 392 1028 l 357 1028 l 522 1194 l 558 1194 l 724 1028 l 689 1028 l 540 1103 l 392 1028 m 943 233 q 961 97 943 151 q 1021 0 979 42 l 574 0 q 633 97 615 42 q 651 233 651 151 l 651 440 l 418 440 l 418 233 q 436 97 418 151 q 496 0 454 42 l 49 0 q 108 97 90 42 q 126 233 126 151 l 126 739 q 108 877 126 822 q 49 972 90 932 l 496 972 q 436 877 454 932 q 418 739 418 822 l 418 538 l 651 538 l 651 739 q 633 877 651 822 q 574 972 615 932 l 1021 972 q 961 877 979 932 q 943 739 943 822 l 943 233 z "},"Ħ":{"ha":1069,"x_min":26,"x_max":1054,"o":"m 943 706 l 943 233 q 961 97 943 151 q 1021 0 979 42 l 574 0 q 633 97 615 42 q 651 233 651 151 l 651 440 l 418 440 l 418 233 q 436 97 418 151 q 496 0 454 42 l 49 0 q 108 97 90 42 q 126 233 126 151 l 126 706 l 26 706 l 26 740 l 126 740 q 108 878 126 824 q 49 972 90 932 l 496 972 q 436 878 454 932 q 418 740 418 824 l 651 740 q 633 878 651 824 q 574 972 615 932 l 1021 972 q 961 878 979 932 q 943 740 943 824 l 1054 740 l 1054 706 l 943 706 m 651 706 l 418 706 l 418 538 l 651 538 l 651 706 z "},"Ì":{"ha":544,"x_min":13,"x_max":496,"o":"m 13 1183 l 13 1194 l 203 1194 l 282 1047 l 254 1047 l 13 1183 m 49 0 q 108 97 90 42 q 126 233 126 151 l 126 739 q 108 877 126 822 q 49 972 90 932 l 496 972 q 436 877 454 932 q 418 739 418 822 l 418 233 q 436 97 418 151 q 496 0 454 42 l 49 0 z "},"Í":{"ha":544,"x_min":49,"x_max":554,"o":"m 285 1047 l 364 1194 l 554 1194 l 554 1183 l 313 1047 l 285 1047 m 49 0 q 108 97 90 42 q 126 233 126 151 l 126 739 q 108 877 126 822 q 49 972 90 932 l 496 972 q 436 877 454 932 q 418 739 418 822 l 418 233 q 436 97 418 151 q 496 0 454 42 l 49 0 z "},"Î":{"ha":544,"x_min":49,"x_max":496,"o":"m 100 1028 l 265 1194 l 301 1194 l 467 1028 l 432 1028 l 283 1103 l 135 1028 l 100 1028 m 49 0 q 108 97 90 42 q 126 233 126 151 l 126 739 q 108 877 126 822 q 49 972 90 932 l 496 972 q 436 877 454 932 q 418 739 418 822 l 418 233 q 436 97 418 151 q 496 0 454 42 l 49 0 z "},"Ĩ":{"ha":544,"x_min":49,"x_max":532,"o":"m 374 1043 q 319 1050 342 1043 q 268 1071 297 1057 q 220 1090 242 1083 q 171 1097 199 1097 q 112 1085 140 1097 q 68 1044 83 1072 l 57 1044 q 215 1194 71 1194 q 269 1188 247 1194 q 321 1167 292 1181 q 369 1147 347 1154 q 418 1140 390 1140 q 477 1153 449 1140 q 521 1193 506 1165 l 532 1193 q 374 1043 518 1043 m 49 0 q 108 97 90 42 q 126 233 126 151 l 126 739 q 108 877 126 822 q 49 972 90 932 l 496 972 q 436 877 454 932 q 418 739 418 822 l 418 233 q 436 97 418 151 q 496 0 454 42 l 49 0 z "},"Ï":{"ha":544,"x_min":49,"x_max":508,"o":"m 143 1053 q 83 1077 108 1053 q 58 1138 58 1101 q 83 1198 58 1174 q 143 1222 108 1222 q 203 1198 178 1222 q 228 1138 228 1174 q 203 1077 228 1101 q 143 1053 178 1053 m 424 1053 q 364 1077 389 1053 q 339 1138 339 1101 q 364 1198 339 1174 q 424 1222 389 1222 q 483 1198 458 1222 q 508 1138 508 1174 q 483 1077 508 1101 q 424 1053 458 1053 m 49 0 q 108 97 90 42 q 126 233 126 151 l 126 739 q 108 877 126 822 q 49 972 90 932 l 496 972 q 436 877 454 932 q 418 739 418 822 l 418 233 q 436 97 418 151 q 496 0 454 42 l 49 0 z "},"Ī":{"ha":544,"x_min":49,"x_max":504,"o":"m 49 0 q 108 97 90 42 q 126 233 126 151 l 126 739 q 108 877 126 822 q 49 972 90 932 l 496 972 q 436 877 454 932 q 418 739 418 822 l 418 233 q 436 97 418 151 q 496 0 454 42 l 49 0 m 63 1136 l 504 1136 l 504 1081 l 63 1081 l 63 1136 z "},"Ĭ":{"ha":544,"x_min":49,"x_max":496,"o":"m 285 1051 q 147 1094 201 1051 q 93 1208 93 1136 l 121 1208 q 169 1150 125 1171 q 285 1129 214 1129 q 399 1150 356 1129 q 449 1208 443 1171 l 476 1208 q 422 1094 476 1136 q 285 1051 368 1051 m 49 0 q 108 97 90 42 q 126 233 126 151 l 126 739 q 108 877 126 822 q 49 972 90 932 l 496 972 q 436 877 454 932 q 418 739 418 822 l 418 233 q 436 97 418 151 q 496 0 454 42 l 49 0 z "},"İ":{"ha":544,"x_min":49,"x_max":496,"o":"m 283 1028 q 218 1053 243 1028 q 193 1118 193 1078 q 218 1183 193 1158 q 283 1208 243 1208 q 349 1183 324 1208 q 374 1118 374 1158 q 349 1053 374 1078 q 283 1028 324 1028 m 49 0 q 108 97 90 42 q 126 233 126 151 l 126 739 q 108 877 126 822 q 49 972 90 932 l 496 972 q 436 877 454 932 q 418 739 418 822 l 418 233 q 436 97 418 151 q 496 0 454 42 l 49 0 z "},"Į":{"ha":544,"x_min":49,"x_max":496,"o":"m 331 0 q 239 -100 239 -31 q 261 -158 239 -137 q 321 -178 283 -178 q 411 -112 383 -178 l 418 -115 q 370 -247 410 -203 q 264 -292 331 -292 q 155 -258 196 -292 q 114 -165 114 -225 q 157 -65 114 -110 q 293 0 200 -21 l 49 0 q 108 97 90 42 q 126 233 126 151 l 126 739 q 108 877 126 822 q 49 972 90 932 l 496 972 q 436 877 454 932 q 418 739 418 822 l 418 233 q 436 97 418 151 q 496 0 454 42 l 331 0 z "},"Ĳ":{"ha":1075,"x_min":49,"x_max":1061,"o":"m 49 0 q 108 97 90 42 q 126 233 126 151 l 126 739 q 108 877 126 822 q 49 972 90 932 l 496 972 q 436 877 454 932 q 418 739 418 822 l 418 233 q 436 97 418 151 q 496 0 454 42 l 49 0 m 667 -107 q 581 -102 611 -107 q 524 -86 550 -97 q 651 -24 610 -82 q 692 133 692 35 l 692 739 q 668 881 692 821 q 603 972 644 942 l 1061 972 q 1001 877 1019 932 q 983 739 983 822 l 983 199 q 899 -31 983 46 q 667 -107 815 -107 z "},"Ĵ":{"ha":531,"x_min":-21,"x_max":517,"o":"m 117 1028 l 282 1194 l 318 1194 l 483 1028 l 449 1028 l 300 1103 l 151 1028 l 117 1028 m 122 -107 q 36 -102 67 -107 q -21 -86 6 -97 q 106 -24 65 -82 q 147 133 147 35 l 147 739 q 124 881 147 821 q 58 972 100 942 l 517 972 q 457 877 475 932 q 439 739 439 822 l 439 199 q 355 -31 439 46 q 122 -107 271 -107 z "},"Ķ":{"ha":1125,"x_min":49,"x_max":1118,"o":"m 418 233 q 436 97 418 151 q 496 0 454 42 l 49 0 q 108 97 90 42 q 126 233 126 151 l 126 739 q 108 877 126 822 q 49 972 90 932 l 496 972 q 436 877 454 932 q 418 739 418 822 l 418 233 m 996 157 q 1118 0 1078 35 l 735 0 l 425 481 l 697 761 q 761 882 761 825 q 744 934 761 911 q 699 972 728 957 l 1065 972 q 997 922 1033 954 q 876 808 960 889 l 685 625 l 996 157 m 542 -274 q 615 -218 615 -258 q 606 -194 615 -203 q 571 -179 597 -186 q 530 -156 543 -171 q 517 -118 517 -142 q 534 -73 517 -90 q 582 -56 551 -56 q 650 -87 621 -56 q 679 -161 679 -119 q 647 -247 679 -211 q 550 -299 614 -282 l 542 -274 z "},"Ĺ":{"ha":800,"x_min":49,"x_max":779,"o":"m 274 1047 l 353 1194 l 543 1194 l 543 1183 l 301 1047 l 274 1047 m 49 0 q 108 97 90 42 q 126 233 126 151 l 126 739 q 108 877 126 822 q 49 972 90 932 l 499 972 q 437 878 456 932 q 418 739 418 824 l 418 83 q 541 131 472 83 q 674 256 610 178 q 779 424 739 335 l 735 0 l 49 0 z "},"Ľ":{"ha":800,"x_min":49,"x_max":779,"o":"m 556 765 q 624 792 608 778 q 639 824 639 806 q 590 856 639 850 q 544 876 563 860 q 525 922 525 892 q 545 978 525 956 q 601 1000 565 1000 q 669 969 640 1000 q 697 881 697 938 q 670 800 697 835 q 563 747 643 765 l 556 765 m 49 0 q 108 97 90 42 q 126 233 126 151 l 126 739 q 108 877 126 822 q 49 972 90 932 l 499 972 q 437 878 456 932 q 418 739 418 824 l 418 83 q 541 131 472 83 q 674 256 610 178 q 779 424 739 335 l 735 0 l 49 0 z "},"Ļ":{"ha":800,"x_min":49,"x_max":779,"o":"m 49 0 q 108 97 90 42 q 126 233 126 151 l 126 739 q 108 877 126 822 q 49 972 90 932 l 499 972 q 437 878 456 932 q 418 739 418 824 l 418 83 q 541 131 472 83 q 674 256 610 178 q 779 424 739 335 l 735 0 l 49 0 m 354 -274 q 428 -218 428 -258 q 419 -194 428 -203 q 383 -179 410 -186 q 342 -156 356 -171 q 329 -118 329 -142 q 347 -73 329 -90 q 394 -56 364 -56 q 463 -87 433 -56 q 492 -161 492 -119 q 459 -247 492 -211 q 363 -299 426 -282 l 354 -274 z "},"Ł":{"ha":800,"x_min":43,"x_max":779,"o":"m 418 83 q 541 131 472 83 q 674 256 610 178 q 779 424 739 335 l 735 0 l 49 0 q 108 97 90 42 q 126 233 126 151 l 126 396 l 43 354 l 43 389 l 126 431 l 126 739 q 108 877 126 822 q 49 972 90 932 l 499 972 q 437 878 456 932 q 418 739 418 824 l 418 578 l 651 696 l 651 661 l 418 543 l 418 83 z "},"Ŀ":{"ha":800,"x_min":49,"x_max":779,"o":"m 49 0 q 108 97 90 42 q 126 233 126 151 l 126 739 q 108 877 126 822 q 49 972 90 932 l 499 972 q 437 878 456 932 q 418 739 418 824 l 418 83 q 541 131 472 83 q 674 256 610 178 q 779 424 739 335 l 735 0 l 49 0 z "},"Ń":{"ha":1011,"x_min":14,"x_max":990,"o":"m 601 1047 l 574 1047 l 653 1194 l 843 1194 l 843 1183 l 601 1047 m 990 972 q 922 899 943 943 q 901 786 901 856 l 901 -28 l 258 697 l 258 192 q 285 76 258 121 q 372 0 313 32 l 58 0 q 125 76 103 29 q 147 192 147 122 l 147 822 l 114 860 l 14 972 l 393 972 l 790 549 l 790 786 q 765 903 790 863 q 674 972 740 943 l 990 972 z "},"Ň":{"ha":1011,"x_min":14,"x_max":990,"o":"m 554 1028 l 389 1194 l 424 1194 l 572 1119 l 721 1194 l 756 1194 l 590 1028 l 554 1028 m 990 972 q 922 899 943 943 q 901 786 901 856 l 901 -28 l 258 697 l 258 192 q 285 76 258 121 q 372 0 313 32 l 58 0 q 125 76 103 29 q 147 192 147 122 l 147 822 l 114 860 l 14 972 l 393 972 l 790 549 l 790 786 q 765 903 790 863 q 674 972 740 943 l 990 972 z "},"Ñ":{"ha":1011,"x_min":14,"x_max":990,"o":"m 460 1097 q 401 1085 429 1097 q 357 1044 372 1072 l 346 1044 q 504 1194 360 1194 q 558 1188 536 1194 q 610 1167 581 1181 q 658 1147 636 1154 q 707 1140 679 1140 q 766 1153 738 1140 q 810 1193 794 1165 l 821 1193 q 663 1043 807 1043 q 608 1050 631 1043 q 557 1071 586 1057 q 509 1090 531 1083 q 460 1097 488 1097 m 990 972 q 922 899 943 943 q 901 786 901 856 l 901 -28 l 258 697 l 258 192 q 285 76 258 121 q 372 0 313 32 l 58 0 q 125 76 103 29 q 147 192 147 122 l 147 822 l 114 860 l 14 972 l 393 972 l 790 549 l 790 786 q 765 903 790 863 q 674 972 740 943 l 990 972 z "},"Ņ":{"ha":1011,"x_min":14,"x_max":990,"o":"m 990 972 q 922 899 943 943 q 901 786 901 856 l 901 -28 l 258 697 l 258 192 q 285 76 258 121 q 372 0 313 32 l 58 0 q 125 76 103 29 q 147 192 147 122 l 147 822 l 114 860 l 14 972 l 393 972 l 790 549 l 790 786 q 765 903 790 863 q 674 972 740 943 l 990 972 m 463 -274 q 536 -218 536 -258 q 527 -194 536 -203 q 492 -179 518 -186 q 451 -156 464 -171 q 438 -118 438 -142 q 455 -73 438 -90 q 503 -56 472 -56 q 571 -87 542 -56 q 600 -161 600 -119 q 567 -247 600 -211 q 471 -299 535 -282 l 463 -274 z "},"Ò":{"ha":1111,"x_min":35,"x_max":1076,"o":"m 285 1183 l 285 1194 l 475 1194 l 554 1047 l 526 1047 l 285 1183 m 556 -28 q 288 37 407 -28 q 102 218 169 101 q 35 486 35 335 q 102 754 35 638 q 288 935 169 871 q 556 1000 407 1000 q 823 935 704 1000 q 1009 754 942 871 q 1076 486 1076 638 q 1009 218 1076 335 q 823 37 942 101 q 556 -28 704 -28 m 556 71 q 692 178 647 71 q 736 486 736 285 q 692 794 736 688 q 556 901 647 901 q 419 794 464 901 q 375 486 375 688 q 419 178 375 285 q 556 71 464 71 z "},"Ó":{"ha":1111,"x_min":35,"x_max":1076,"o":"m 557 1047 l 636 1194 l 826 1194 l 826 1183 l 585 1047 l 557 1047 m 556 -28 q 288 37 407 -28 q 102 218 169 101 q 35 486 35 335 q 102 754 35 638 q 288 935 169 871 q 556 1000 407 1000 q 823 935 704 1000 q 1009 754 942 871 q 1076 486 1076 638 q 1009 218 1076 335 q 823 37 942 101 q 556 -28 704 -28 m 556 71 q 692 178 647 71 q 736 486 736 285 q 692 794 736 688 q 556 901 647 901 q 419 794 464 901 q 375 486 375 688 q 419 178 375 285 q 556 71 464 71 z "},"Ô":{"ha":1111,"x_min":35,"x_max":1076,"o":"m 372 1028 l 538 1194 l 574 1194 l 739 1028 l 704 1028 l 556 1103 l 407 1028 l 372 1028 m 556 -28 q 288 37 407 -28 q 102 218 169 101 q 35 486 35 335 q 102 754 35 638 q 288 935 169 871 q 556 1000 407 1000 q 823 935 704 1000 q 1009 754 942 871 q 1076 486 1076 638 q 1009 218 1076 335 q 823 37 942 101 q 556 -28 704 -28 m 556 71 q 692 178 647 71 q 736 486 736 285 q 692 794 736 688 q 556 901 647 901 q 419 794 464 901 q 375 486 375 688 q 419 178 375 285 q 556 71 464 71 z "},"Õ":{"ha":1111,"x_min":35,"x_max":1076,"o":"m 646 1043 q 592 1050 614 1043 q 540 1071 569 1057 q 492 1090 514 1083 q 443 1097 471 1097 q 384 1085 413 1097 q 340 1044 356 1072 l 329 1044 q 488 1194 343 1194 q 542 1188 519 1194 q 593 1167 564 1181 q 641 1147 619 1154 q 690 1140 663 1140 q 749 1153 721 1140 q 793 1193 778 1165 l 804 1193 q 646 1043 790 1043 m 556 -28 q 288 37 407 -28 q 102 218 169 101 q 35 486 35 335 q 102 754 35 638 q 288 935 169 871 q 556 1000 407 1000 q 823 935 704 1000 q 1009 754 942 871 q 1076 486 1076 638 q 1009 218 1076 335 q 823 37 942 101 q 556 -28 704 -28 m 556 71 q 692 178 647 71 q 736 486 736 285 q 692 794 736 688 q 556 901 647 901 q 419 794 464 901 q 375 486 375 688 q 419 178 375 285 q 556 71 464 71 z "},"Ö":{"ha":1111,"x_min":35,"x_max":1076,"o":"m 415 1053 q 356 1077 381 1053 q 331 1138 331 1101 q 356 1198 331 1174 q 415 1222 381 1222 q 475 1198 450 1222 q 500 1138 500 1174 q 475 1077 500 1101 q 415 1053 450 1053 m 696 1053 q 636 1077 661 1053 q 611 1138 611 1101 q 636 1198 611 1174 q 696 1222 661 1222 q 756 1198 731 1222 q 781 1138 781 1174 q 756 1077 781 1101 q 696 1053 731 1053 m 556 -28 q 288 37 407 -28 q 102 218 169 101 q 35 486 35 335 q 102 754 35 638 q 288 935 169 871 q 556 1000 407 1000 q 823 935 704 1000 q 1009 754 942 871 q 1076 486 1076 638 q 1009 218 1076 335 q 823 37 942 101 q 556 -28 704 -28 m 556 71 q 692 178 647 71 q 736 486 736 285 q 692 794 736 688 q 556 901 647 901 q 419 794 464 901 q 375 486 375 688 q 419 178 375 285 q 556 71 464 71 z "},"Ō":{"ha":1111,"x_min":35,"x_max":1076,"o":"m 556 -28 q 288 37 407 -28 q 102 218 169 101 q 35 486 35 335 q 102 754 35 638 q 288 935 169 871 q 556 1000 407 1000 q 823 935 704 1000 q 1009 754 942 871 q 1076 486 1076 638 q 1009 218 1076 335 q 823 37 942 101 q 556 -28 704 -28 m 556 71 q 692 178 647 71 q 736 486 736 285 q 692 794 736 688 q 556 901 647 901 q 419 794 464 901 q 375 486 375 688 q 419 178 375 285 q 556 71 464 71 m 335 1136 l 776 1136 l 776 1081 l 335 1081 l 335 1136 z "},"Ŏ":{"ha":1111,"x_min":35,"x_max":1076,"o":"m 557 1051 q 419 1094 474 1051 q 365 1208 365 1136 l 393 1208 q 442 1150 397 1171 q 557 1129 486 1129 q 672 1150 628 1129 q 721 1208 715 1171 l 749 1208 q 694 1094 749 1136 q 557 1051 640 1051 m 556 -28 q 288 37 407 -28 q 102 218 169 101 q 35 486 35 335 q 102 754 35 638 q 288 935 169 871 q 556 1000 407 1000 q 823 935 704 1000 q 1009 754 942 871 q 1076 486 1076 638 q 1009 218 1076 335 q 823 37 942 101 q 556 -28 704 -28 m 556 71 q 692 178 647 71 q 736 486 736 285 q 692 794 736 688 q 556 901 647 901 q 419 794 464 901 q 375 486 375 688 q 419 178 375 285 q 556 71 464 71 z "},"Ő":{"ha":1111,"x_min":35,"x_max":1076,"o":"m 453 1056 l 517 1194 l 644 1194 l 644 1188 l 486 1056 l 453 1056 m 651 1056 l 715 1194 l 843 1194 l 843 1188 l 685 1056 l 651 1056 m 556 -28 q 288 37 407 -28 q 102 218 169 101 q 35 486 35 335 q 102 754 35 638 q 288 935 169 871 q 556 1000 407 1000 q 823 935 704 1000 q 1009 754 942 871 q 1076 486 1076 638 q 1009 218 1076 335 q 823 37 942 101 q 556 -28 704 -28 m 556 71 q 692 178 647 71 q 736 486 736 285 q 692 794 736 688 q 556 901 647 901 q 419 794 464 901 q 375 486 375 688 q 419 178 375 285 q 556 71 464 71 z "},"Ø":{"ha":1111,"x_min":35,"x_max":1076,"o":"m 903 882 q 1031 710 986 811 q 1076 486 1076 610 q 1009 218 1076 335 q 823 37 942 101 q 556 -28 704 -28 q 250 60 381 -28 l 181 -28 l 117 -28 l 210 89 q 81 261 126 160 q 35 486 35 363 q 102 754 35 638 q 288 935 169 871 q 556 1000 407 1000 q 863 911 731 1000 l 933 1000 l 997 1000 l 903 882 m 375 486 q 386 311 375 393 l 714 724 q 556 901 672 901 q 419 794 464 901 q 375 486 375 688 m 556 71 q 692 178 647 71 q 736 486 736 285 q 726 658 736 589 l 397 246 q 556 71 440 71 z "},"Ǿ":{"ha":1111,"x_min":35,"x_max":1076,"o":"m 564 1047 l 536 1047 l 615 1194 l 806 1194 l 806 1183 l 564 1047 m 903 882 q 1031 710 986 811 q 1076 486 1076 610 q 1009 218 1076 335 q 823 37 942 101 q 556 -28 704 -28 q 250 60 381 -28 l 181 -28 l 117 -28 l 210 89 q 81 261 126 160 q 35 486 35 363 q 102 754 35 638 q 288 935 169 871 q 556 1000 407 1000 q 863 911 731 1000 l 933 1000 l 997 1000 l 903 882 m 375 486 q 386 311 375 393 l 714 724 q 556 901 672 901 q 419 794 464 901 q 375 486 375 688 m 556 71 q 692 178 647 71 q 736 486 736 285 q 726 658 736 589 l 397 246 q 556 71 440 71 z "},"Œ":{"ha":1393,"x_min":35,"x_max":1351,"o":"m 1351 389 l 1314 0 l 560 0 q 289 62 408 0 q 102 234 169 124 q 35 486 35 344 q 102 738 35 628 q 289 910 169 849 q 560 972 408 972 l 1289 972 l 1322 625 l 1315 625 q 1265 725 1300 674 q 1186 821 1231 776 q 1072 901 1133 872 q 949 931 1011 929 l 949 519 l 961 519 q 1104 566 1049 519 q 1182 681 1160 613 l 1189 681 l 1189 300 l 1182 300 q 1103 426 1160 375 q 961 476 1047 476 l 949 476 l 949 42 q 1182 132 1083 46 q 1344 389 1278 215 l 1351 389 m 657 931 l 629 931 q 424 822 490 931 q 358 486 358 714 q 424 150 358 258 q 629 42 490 42 l 657 42 l 657 931 z "},"Ŕ":{"ha":1007,"x_min":49,"x_max":1000,"o":"m 474 1047 l 446 1047 l 525 1194 l 715 1194 l 715 1183 l 474 1047 m 939 108 q 1000 0 968 33 l 674 0 q 621 128 654 24 q 593 211 601 183 q 560 311 579 261 q 522 396 540 368 q 483 432 503 424 q 433 440 464 440 l 418 440 l 418 226 q 434 94 418 150 q 486 0 450 39 l 49 0 q 108 97 90 42 q 126 233 126 151 l 126 739 q 108 877 126 822 q 49 972 90 932 l 536 972 q 801 909 717 972 q 886 733 886 846 q 799 552 886 611 q 563 492 713 493 l 563 482 q 753 449 685 486 q 854 335 821 411 q 911 186 878 281 q 939 108 926 139 m 444 517 q 540 565 507 517 q 572 707 572 614 q 541 847 572 797 q 444 896 510 896 l 418 896 l 418 517 l 444 517 z "},"Ř":{"ha":1007,"x_min":49,"x_max":1000,"o":"m 426 1028 l 261 1194 l 296 1194 l 444 1119 l 593 1194 l 628 1194 l 463 1028 l 426 1028 m 939 108 q 1000 0 968 33 l 674 0 q 621 128 654 24 q 593 211 601 183 q 560 311 579 261 q 522 396 540 368 q 483 432 503 424 q 433 440 464 440 l 418 440 l 418 226 q 434 94 418 150 q 486 0 450 39 l 49 0 q 108 97 90 42 q 126 233 126 151 l 126 739 q 108 877 126 822 q 49 972 90 932 l 536 972 q 801 909 717 972 q 886 733 886 846 q 799 552 886 611 q 563 492 713 493 l 563 482 q 753 449 685 486 q 854 335 821 411 q 911 186 878 281 q 939 108 926 139 m 444 517 q 540 565 507 517 q 572 707 572 614 q 541 847 572 797 q 444 896 510 896 l 418 896 l 418 517 l 444 517 z "},"Ŗ":{"ha":1007,"x_min":49,"x_max":1000,"o":"m 939 108 q 1000 0 968 33 l 674 0 q 621 128 654 24 q 593 211 601 183 q 560 311 579 261 q 522 396 540 368 q 483 432 503 424 q 433 440 464 440 l 418 440 l 418 226 q 434 94 418 150 q 486 0 450 39 l 49 0 q 108 97 90 42 q 126 233 126 151 l 126 739 q 108 877 126 822 q 49 972 90 932 l 536 972 q 801 909 717 972 q 886 733 886 846 q 799 552 886 611 q 563 492 713 493 l 563 482 q 753 449 685 486 q 854 335 821 411 q 911 186 878 281 q 939 108 926 139 m 444 517 q 540 565 507 517 q 572 707 572 614 q 541 847 572 797 q 444 896 510 896 l 418 896 l 418 517 l 444 517 m 526 -274 q 600 -218 600 -258 q 591 -194 600 -203 q 556 -179 582 -186 q 515 -156 528 -171 q 501 -118 501 -142 q 519 -73 501 -90 q 567 -56 536 -56 q 635 -87 606 -56 q 664 -161 664 -119 q 631 -247 664 -211 q 535 -299 599 -282 l 526 -274 z "},"Ś":{"ha":806,"x_min":35,"x_max":785,"o":"m 429 1047 l 508 1194 l 699 1194 l 699 1183 l 457 1047 l 429 1047 m 394 -28 q 202 -3 296 -28 q 40 67 108 22 l 40 346 q 422 71 240 71 q 517 97 482 71 q 553 168 553 122 q 527 245 553 214 q 449 296 501 276 l 246 372 q 91 490 147 408 q 35 675 35 571 q 83 842 35 768 q 216 958 131 917 q 408 1000 301 1000 q 577 981 504 1000 q 718 921 650 963 l 718 654 q 378 900 572 900 q 288 876 319 900 q 256 806 256 851 q 281 740 256 765 q 365 690 307 714 l 568 608 q 731 493 678 564 q 785 322 785 422 q 735 140 785 219 q 597 17 686 61 q 394 -28 508 -28 z "},"Ŝ":{"ha":806,"x_min":35,"x_max":785,"o":"m 244 1028 l 410 1194 l 446 1194 l 611 1028 l 576 1028 l 428 1103 l 279 1028 l 244 1028 m 394 -28 q 202 -3 296 -28 q 40 67 108 22 l 40 346 q 422 71 240 71 q 517 97 482 71 q 553 168 553 122 q 527 245 553 214 q 449 296 501 276 l 246 372 q 91 490 147 408 q 35 675 35 571 q 83 842 35 768 q 216 958 131 917 q 408 1000 301 1000 q 577 981 504 1000 q 718 921 650 963 l 718 654 q 378 900 572 900 q 288 876 319 900 q 256 806 256 851 q 281 740 256 765 q 365 690 307 714 l 568 608 q 731 493 678 564 q 785 322 785 422 q 735 140 785 219 q 597 17 686 61 q 394 -28 508 -28 z "},"Š":{"ha":806,"x_min":35,"x_max":785,"o":"m 428 1119 l 576 1194 l 611 1194 l 446 1028 l 410 1028 l 244 1194 l 279 1194 l 428 1119 m 394 -28 q 202 -3 296 -28 q 40 67 108 22 l 40 346 q 422 71 240 71 q 517 97 482 71 q 553 168 553 122 q 527 245 553 214 q 449 296 501 276 l 246 372 q 91 490 147 408 q 35 675 35 571 q 83 842 35 768 q 216 958 131 917 q 408 1000 301 1000 q 577 981 504 1000 q 718 921 650 963 l 718 654 q 378 900 572 900 q 288 876 319 900 q 256 806 256 851 q 281 740 256 765 q 365 690 307 714 l 568 608 q 731 493 678 564 q 785 322 785 422 q 735 140 785 219 q 597 17 686 61 q 394 -28 508 -28 z "},"Ş":{"ha":806,"x_min":35,"x_max":785,"o":"m 785 322 q 739 146 785 224 q 609 22 693 68 q 417 -28 525 -24 l 386 -76 q 435 -65 404 -65 q 514 -94 482 -65 q 546 -174 546 -124 q 510 -264 546 -229 q 418 -299 474 -299 q 342 -273 371 -299 q 303 -203 313 -247 l 318 -196 q 383 -235 338 -235 q 425 -217 410 -235 q 440 -171 440 -200 q 426 -131 440 -146 q 390 -115 413 -115 q 376 -117 383 -115 q 360 -124 369 -118 l 338 -112 l 389 -28 q 200 -2 292 -26 q 40 67 108 22 l 40 346 q 422 71 240 71 q 517 97 482 71 q 553 168 553 122 q 527 245 553 214 q 449 296 501 276 l 246 372 q 91 490 147 408 q 35 675 35 571 q 83 842 35 768 q 216 958 131 917 q 408 1000 301 1000 q 577 981 504 1000 q 718 921 650 963 l 718 654 q 378 900 572 900 q 288 876 319 900 q 256 806 256 851 q 281 740 256 765 q 365 690 307 714 l 568 608 q 731 493 678 564 q 785 322 785 422 z "},"Ș":{"ha":806,"x_min":35,"x_max":785,"o":"m 394 -28 q 202 -3 296 -28 q 40 67 108 22 l 40 346 q 422 71 240 71 q 517 97 482 71 q 553 168 553 122 q 527 245 553 214 q 449 296 501 276 l 246 372 q 91 490 147 408 q 35 675 35 571 q 83 842 35 768 q 216 958 131 917 q 408 1000 301 1000 q 577 981 504 1000 q 718 921 650 963 l 718 654 q 378 900 572 900 q 288 876 319 900 q 256 806 256 851 q 281 740 256 765 q 365 690 307 714 l 568 608 q 731 493 678 564 q 785 322 785 422 q 735 140 785 219 q 597 17 686 61 q 394 -28 508 -28 m 381 -274 q 454 -218 454 -258 q 445 -194 454 -203 q 410 -179 436 -186 q 369 -156 382 -171 q 356 -118 356 -142 q 373 -73 356 -90 q 421 -56 390 -56 q 489 -87 460 -56 q 518 -161 518 -119 q 485 -247 518 -211 q 389 -299 453 -282 l 381 -274 z "},"Ť":{"ha":925,"x_min":0,"x_max":925,"o":"m 444 1028 l 279 1194 l 314 1194 l 463 1119 l 611 1194 l 646 1194 l 481 1028 l 444 1028 m 608 275 q 635 119 608 182 q 725 0 661 57 l 200 0 q 290 119 264 57 q 317 275 317 182 l 317 892 q 163 835 244 882 q 0 707 82 788 l 56 1014 q 240 972 110 972 l 685 972 q 869 1014 815 972 l 925 707 q 762 835 843 788 q 608 892 681 882 l 608 275 z "},"Ț":{"ha":925,"x_min":0,"x_max":925,"o":"m 608 275 q 635 119 608 182 q 725 0 661 57 l 200 0 q 290 119 264 57 q 317 275 317 182 l 317 892 q 163 835 244 882 q 0 707 82 788 l 56 1014 q 240 972 110 972 l 685 972 q 869 1014 815 972 l 925 707 q 762 835 843 788 q 608 892 681 882 l 608 275 m 422 -274 q 496 -218 496 -258 q 487 -194 496 -203 q 451 -179 478 -186 q 410 -156 424 -171 q 397 -118 397 -142 q 415 -73 397 -90 q 463 -56 432 -56 q 531 -87 501 -56 q 560 -161 560 -119 q 527 -247 560 -211 q 431 -299 494 -282 l 422 -274 z "},"Ŧ":{"ha":925,"x_min":0,"x_max":925,"o":"m 608 275 q 635 119 608 182 q 725 0 661 57 l 200 0 q 290 119 264 57 q 317 275 317 182 l 317 532 l 157 532 l 157 567 l 317 567 l 317 892 q 163 835 244 882 q 0 707 82 788 l 56 1014 q 240 972 110 972 l 685 972 q 869 1014 815 972 l 925 707 q 762 835 843 788 q 608 892 681 882 l 608 567 l 685 567 l 685 532 l 608 532 l 608 275 z "},"Ţ":{"ha":925,"x_min":0,"x_max":925,"o":"m 608 275 q 635 119 608 182 q 725 0 661 57 l 200 0 q 290 119 264 57 q 317 275 317 182 l 317 892 q 163 835 244 882 q 0 707 82 788 l 56 1014 q 240 972 110 972 l 685 972 q 869 1014 815 972 l 925 707 q 762 835 843 788 q 608 892 681 882 l 608 275 m 588 -174 q 551 -264 588 -229 q 460 -299 515 -299 q 383 -273 413 -299 q 344 -203 354 -247 l 360 -196 q 425 -235 379 -235 q 467 -217 451 -235 q 482 -171 482 -200 q 468 -131 482 -146 q 432 -115 454 -115 q 418 -117 425 -115 q 401 -124 411 -118 l 379 -112 l 447 0 l 476 0 l 428 -76 q 476 -65 446 -65 q 556 -94 524 -65 q 588 -174 588 -124 z "},"Ù":{"ha":975,"x_min":14,"x_max":961,"o":"m 328 1183 l 328 1194 l 518 1194 l 597 1047 l 569 1047 l 328 1183 m 499 -28 q 197 78 301 -28 q 92 383 92 185 l 92 739 q 74 876 92 822 q 14 972 56 931 l 503 972 q 422 876 447 931 q 397 739 397 821 l 397 367 q 447 197 397 256 q 592 139 496 139 q 726 197 681 139 q 772 367 772 254 l 772 739 q 747 876 772 821 q 667 972 722 931 l 961 972 q 901 876 919 931 q 883 739 883 822 l 883 383 q 784 78 883 185 q 499 -28 685 -28 z "},"Ú":{"ha":975,"x_min":14,"x_max":961,"o":"m 600 1047 l 679 1194 l 869 1194 l 869 1183 l 628 1047 l 600 1047 m 499 -28 q 197 78 301 -28 q 92 383 92 185 l 92 739 q 74 876 92 822 q 14 972 56 931 l 503 972 q 422 876 447 931 q 397 739 397 821 l 397 367 q 447 197 397 256 q 592 139 496 139 q 726 197 681 139 q 772 367 772 254 l 772 739 q 747 876 772 821 q 667 972 722 931 l 961 972 q 901 876 919 931 q 883 739 883 822 l 883 383 q 784 78 883 185 q 499 -28 685 -28 z "},"Û":{"ha":975,"x_min":14,"x_max":961,"o":"m 415 1028 l 581 1194 l 617 1194 l 782 1028 l 747 1028 l 599 1103 l 450 1028 l 415 1028 m 499 -28 q 197 78 301 -28 q 92 383 92 185 l 92 739 q 74 876 92 822 q 14 972 56 931 l 503 972 q 422 876 447 931 q 397 739 397 821 l 397 367 q 447 197 397 256 q 592 139 496 139 q 726 197 681 139 q 772 367 772 254 l 772 739 q 747 876 772 821 q 667 972 722 931 l 961 972 q 901 876 919 931 q 883 739 883 822 l 883 383 q 784 78 883 185 q 499 -28 685 -28 z "},"Ũ":{"ha":975,"x_min":14,"x_max":961,"o":"m 689 1043 q 635 1050 657 1043 q 583 1071 613 1057 q 535 1090 557 1083 q 486 1097 514 1097 q 427 1085 456 1097 q 383 1044 399 1072 l 372 1044 q 531 1194 386 1194 q 585 1188 563 1194 q 636 1167 607 1181 q 684 1147 663 1154 q 733 1140 706 1140 q 792 1153 764 1140 q 836 1193 821 1165 l 847 1193 q 689 1043 833 1043 m 499 -28 q 197 78 301 -28 q 92 383 92 185 l 92 739 q 74 876 92 822 q 14 972 56 931 l 503 972 q 422 876 447 931 q 397 739 397 821 l 397 367 q 447 197 397 256 q 592 139 496 139 q 726 197 681 139 q 772 367 772 254 l 772 739 q 747 876 772 821 q 667 972 722 931 l 961 972 q 901 876 919 931 q 883 739 883 822 l 883 383 q 784 78 883 185 q 499 -28 685 -28 z "},"Ü":{"ha":975,"x_min":14,"x_max":961,"o":"m 458 1053 q 399 1077 424 1053 q 374 1138 374 1101 q 399 1198 374 1174 q 458 1222 424 1222 q 518 1198 493 1222 q 543 1138 543 1174 q 518 1077 543 1101 q 458 1053 493 1053 m 739 1053 q 679 1077 704 1053 q 654 1138 654 1101 q 679 1198 654 1174 q 739 1222 704 1222 q 799 1198 774 1222 q 824 1138 824 1174 q 799 1077 824 1101 q 739 1053 774 1053 m 499 -28 q 197 78 301 -28 q 92 383 92 185 l 92 739 q 74 876 92 822 q 14 972 56 931 l 503 972 q 422 876 447 931 q 397 739 397 821 l 397 367 q 447 197 397 256 q 592 139 496 139 q 726 197 681 139 q 772 367 772 254 l 772 739 q 747 876 772 821 q 667 972 722 931 l 961 972 q 901 876 919 931 q 883 739 883 822 l 883 383 q 784 78 883 185 q 499 -28 685 -28 z "},"Ū":{"ha":975,"x_min":14,"x_max":961,"o":"m 499 -28 q 197 78 301 -28 q 92 383 92 185 l 92 739 q 74 876 92 822 q 14 972 56 931 l 503 972 q 422 876 447 931 q 397 739 397 821 l 397 367 q 447 197 397 256 q 592 139 496 139 q 726 197 681 139 q 772 367 772 254 l 772 739 q 747 876 772 821 q 667 972 722 931 l 961 972 q 901 876 919 931 q 883 739 883 822 l 883 383 q 784 78 883 185 q 499 -28 685 -28 m 378 1136 l 819 1136 l 819 1081 l 378 1081 l 378 1136 z "},"Ŭ":{"ha":975,"x_min":14,"x_max":961,"o":"m 600 1051 q 463 1094 517 1051 q 408 1208 408 1136 l 436 1208 q 485 1150 440 1171 q 600 1129 529 1129 q 715 1150 671 1129 q 764 1208 758 1171 l 792 1208 q 738 1094 792 1136 q 600 1051 683 1051 m 499 -28 q 197 78 301 -28 q 92 383 92 185 l 92 739 q 74 876 92 822 q 14 972 56 931 l 503 972 q 422 876 447 931 q 397 739 397 821 l 397 367 q 447 197 397 256 q 592 139 496 139 q 726 197 681 139 q 772 367 772 254 l 772 739 q 747 876 772 821 q 667 972 722 931 l 961 972 q 901 876 919 931 q 883 739 883 822 l 883 383 q 784 78 883 185 q 499 -28 685 -28 z "},"Ů":{"ha":975,"x_min":14,"x_max":961,"o":"m 599 992 q 516 1022 549 992 q 483 1100 483 1053 q 516 1178 483 1147 q 599 1208 549 1208 q 681 1178 649 1208 q 714 1100 714 1147 q 681 1022 714 1053 q 599 992 649 992 m 599 1022 q 655 1042 632 1022 q 678 1100 678 1063 q 655 1158 678 1138 q 599 1178 632 1178 q 542 1158 565 1178 q 519 1100 519 1138 q 542 1042 519 1063 q 599 1022 565 1022 m 499 -28 q 197 78 301 -28 q 92 383 92 185 l 92 739 q 74 876 92 822 q 14 972 56 931 l 503 972 q 422 876 447 931 q 397 739 397 821 l 397 367 q 447 197 397 256 q 592 139 496 139 q 726 197 681 139 q 772 367 772 254 l 772 739 q 747 876 772 821 q 667 972 722 931 l 961 972 q 901 876 919 931 q 883 739 883 822 l 883 383 q 784 78 883 185 q 499 -28 685 -28 z "},"Ű":{"ha":975,"x_min":14,"x_max":961,"o":"m 496 1056 l 560 1194 l 688 1194 l 688 1188 l 529 1056 l 496 1056 m 694 1056 l 758 1194 l 886 1194 l 886 1188 l 728 1056 l 694 1056 m 499 -28 q 197 78 301 -28 q 92 383 92 185 l 92 739 q 74 876 92 822 q 14 972 56 931 l 503 972 q 422 876 447 931 q 397 739 397 821 l 397 367 q 447 197 397 256 q 592 139 496 139 q 726 197 681 139 q 772 367 772 254 l 772 739 q 747 876 772 821 q 667 972 722 931 l 961 972 q 901 876 919 931 q 883 739 883 822 l 883 383 q 784 78 883 185 q 499 -28 685 -28 z "},"Ų":{"ha":975,"x_min":14,"x_max":961,"o":"m 961 972 q 901 876 919 931 q 883 739 883 822 l 883 383 q 814 117 883 218 q 614 -15 744 15 q 558 -100 558 -46 q 581 -158 558 -137 q 640 -178 603 -178 q 731 -112 703 -178 l 738 -115 q 690 -247 729 -203 q 583 -292 650 -292 q 474 -258 515 -292 q 433 -165 433 -225 q 458 -87 433 -124 q 532 -26 482 -51 q 499 -28 521 -28 q 197 78 301 -28 q 92 383 92 185 l 92 739 q 74 876 92 822 q 14 972 56 931 l 503 972 q 422 876 447 931 q 397 739 397 821 l 397 367 q 447 197 397 256 q 592 139 496 139 q 726 197 681 139 q 772 367 772 254 l 772 739 q 747 876 772 821 q 667 972 722 931 l 961 972 z "},"Ẁ":{"ha":1461,"x_min":7,"x_max":1454,"o":"m 683 1047 l 442 1183 l 442 1194 l 632 1194 l 711 1047 l 683 1047 m 1454 972 q 1395 899 1415 931 q 1344 799 1375 867 l 985 -28 l 731 553 l 479 -28 l 117 799 q 68 896 88 864 q 7 972 49 928 l 467 972 q 414 858 414 928 q 419 812 414 833 q 438 758 424 790 l 575 431 l 676 676 l 619 807 q 573 906 593 868 q 529 972 553 943 l 989 972 q 922 858 922 929 q 927 812 922 833 q 946 758 932 790 l 1086 431 l 1225 758 q 1244 813 1239 792 q 1250 857 1250 833 q 1231 921 1250 888 q 1188 972 1213 954 l 1454 972 z "},"Ẃ":{"ha":1461,"x_min":7,"x_max":1454,"o":"m 742 1047 l 714 1047 l 793 1194 l 983 1194 l 983 1183 l 742 1047 m 1454 972 q 1395 899 1415 931 q 1344 799 1375 867 l 985 -28 l 731 553 l 479 -28 l 117 799 q 68 896 88 864 q 7 972 49 928 l 467 972 q 414 858 414 928 q 419 812 414 833 q 438 758 424 790 l 575 431 l 676 676 l 619 807 q 573 906 593 868 q 529 972 553 943 l 989 972 q 922 858 922 929 q 927 812 922 833 q 946 758 932 790 l 1086 431 l 1225 758 q 1244 813 1239 792 q 1250 857 1250 833 q 1231 921 1250 888 q 1188 972 1213 954 l 1454 972 z "},"Ŵ":{"ha":1461,"x_min":7,"x_max":1454,"o":"m 564 1028 l 529 1028 l 694 1194 l 731 1194 l 896 1028 l 861 1028 l 713 1103 l 564 1028 m 1454 972 q 1395 899 1415 931 q 1344 799 1375 867 l 985 -28 l 731 553 l 479 -28 l 117 799 q 68 896 88 864 q 7 972 49 928 l 467 972 q 414 858 414 928 q 419 812 414 833 q 438 758 424 790 l 575 431 l 676 676 l 619 807 q 573 906 593 868 q 529 972 553 943 l 989 972 q 922 858 922 929 q 927 812 922 833 q 946 758 932 790 l 1086 431 l 1225 758 q 1244 813 1239 792 q 1250 857 1250 833 q 1231 921 1250 888 q 1188 972 1213 954 l 1454 972 z "},"Ẅ":{"ha":1461,"x_min":7,"x_max":1454,"o":"m 572 1053 q 513 1077 538 1053 q 488 1138 488 1101 q 513 1198 488 1174 q 572 1222 538 1222 q 632 1198 607 1222 q 657 1138 657 1174 q 632 1077 657 1101 q 572 1053 607 1053 m 853 1053 q 793 1077 818 1053 q 768 1138 768 1101 q 793 1198 768 1174 q 853 1222 818 1222 q 913 1198 888 1222 q 938 1138 938 1174 q 913 1077 938 1101 q 853 1053 888 1053 m 1454 972 q 1395 899 1415 931 q 1344 799 1375 867 l 985 -28 l 731 553 l 479 -28 l 117 799 q 68 896 88 864 q 7 972 49 928 l 467 972 q 414 858 414 928 q 419 812 414 833 q 438 758 424 790 l 575 431 l 676 676 l 619 807 q 573 906 593 868 q 529 972 553 943 l 989 972 q 922 858 922 929 q 927 812 922 833 q 946 758 932 790 l 1086 431 l 1225 758 q 1244 813 1239 792 q 1250 857 1250 833 q 1231 921 1250 888 q 1188 972 1213 954 l 1454 972 z "},"Ỳ":{"ha":911,"x_min":7,"x_max":904,"o":"m 547 1047 l 306 1183 l 306 1194 l 496 1194 l 575 1047 l 547 1047 m 904 972 q 840 897 882 954 q 779 799 799 839 l 600 429 l 600 233 q 618 97 600 151 q 678 0 636 42 l 231 0 q 290 97 272 42 q 308 233 308 151 l 308 422 l 115 831 q 61 919 93 876 q 7 972 29 961 l 478 972 q 410 869 410 943 q 435 774 410 826 l 546 544 l 661 774 q 686 868 686 824 q 669 931 686 904 q 619 972 653 958 l 904 972 z "},"Ý":{"ha":911,"x_min":7,"x_max":904,"o":"m 606 1047 l 578 1047 l 657 1194 l 847 1194 l 847 1183 l 606 1047 m 904 972 q 840 897 882 954 q 779 799 799 839 l 600 429 l 600 233 q 618 97 600 151 q 678 0 636 42 l 231 0 q 290 97 272 42 q 308 233 308 151 l 308 422 l 115 831 q 61 919 93 876 q 7 972 29 961 l 478 972 q 410 869 410 943 q 435 774 410 826 l 546 544 l 661 774 q 686 868 686 824 q 669 931 686 904 q 619 972 653 958 l 904 972 z "},"Ŷ":{"ha":911,"x_min":7,"x_max":904,"o":"m 428 1028 l 393 1028 l 558 1194 l 594 1194 l 760 1028 l 725 1028 l 576 1103 l 428 1028 m 904 972 q 840 897 882 954 q 779 799 799 839 l 600 429 l 600 233 q 618 97 600 151 q 678 0 636 42 l 231 0 q 290 97 272 42 q 308 233 308 151 l 308 422 l 115 831 q 61 919 93 876 q 7 972 29 961 l 478 972 q 410 869 410 943 q 435 774 410 826 l 546 544 l 661 774 q 686 868 686 824 q 669 931 686 904 q 619 972 653 958 l 904 972 z "},"Ÿ":{"ha":911,"x_min":7,"x_max":904,"o":"m 436 1053 q 376 1077 401 1053 q 351 1138 351 1101 q 376 1198 351 1174 q 436 1222 401 1222 q 496 1198 471 1222 q 521 1138 521 1174 q 496 1077 521 1101 q 436 1053 471 1053 m 717 1053 q 657 1077 682 1053 q 632 1138 632 1101 q 657 1198 632 1174 q 717 1222 682 1222 q 776 1198 751 1222 q 801 1138 801 1174 q 776 1077 801 1101 q 717 1053 751 1053 m 904 972 q 840 897 882 954 q 779 799 799 839 l 600 429 l 600 233 q 618 97 600 151 q 678 0 636 42 l 231 0 q 290 97 272 42 q 308 233 308 151 l 308 422 l 115 831 q 61 919 93 876 q 7 972 29 961 l 478 972 q 410 869 410 943 q 435 774 410 826 l 546 544 l 661 774 q 686 868 686 824 q 669 931 686 904 q 619 972 653 958 l 904 972 z "},"Ź":{"ha":892,"x_min":21,"x_max":864,"o":"m 472 1047 l 444 1047 l 524 1194 l 714 1194 l 714 1183 l 472 1047 m 401 83 q 571 133 481 83 q 739 263 661 182 q 857 429 817 343 l 814 0 l 21 0 l 503 889 l 501 889 q 255 803 372 889 q 58 569 138 718 l 97 972 l 864 972 l 400 83 l 401 83 z "},"Ž":{"ha":892,"x_min":21,"x_max":864,"o":"m 425 1028 l 260 1194 l 294 1194 l 443 1119 l 592 1194 l 626 1194 l 461 1028 l 425 1028 m 401 83 q 571 133 481 83 q 739 263 661 182 q 857 429 817 343 l 814 0 l 21 0 l 503 889 l 501 889 q 255 803 372 889 q 58 569 138 718 l 97 972 l 864 972 l 400 83 l 401 83 z "},"Ż":{"ha":892,"x_min":21,"x_max":864,"o":"m 443 1028 q 378 1053 403 1028 q 353 1118 353 1078 q 378 1183 353 1158 q 443 1208 403 1208 q 508 1183 483 1208 q 533 1118 533 1158 q 508 1053 533 1078 q 443 1028 483 1028 m 401 83 q 571 133 481 83 q 739 263 661 182 q 857 429 817 343 l 814 0 l 21 0 l 503 889 l 501 889 q 255 803 372 889 q 58 569 138 718 l 97 972 l 864 972 l 400 83 l 401 83 z "},"Ŋ":{"ha":1025,"x_min":14,"x_max":1004,"o":"m 669 -299 q 468 -232 546 -299 l 474 -225 q 495 -233 476 -226 q 542 -239 514 -239 q 614 -204 590 -239 q 638 -111 638 -169 l 638 263 l 183 776 l 183 164 q 210 61 183 94 q 300 7 236 28 l 300 0 l 14 0 l 14 7 q 106 58 81 25 q 131 164 131 92 l 131 836 l 14 965 l 14 972 l 397 972 l 851 483 l 851 814 q 828 912 851 881 q 735 965 806 943 l 735 972 l 1004 972 l 1004 965 q 925 915 949 950 q 901 814 901 879 l 901 -28 q 831 -238 900 -178 q 669 -299 761 -299 z "},"Ð":{"ha":1035,"x_min":49,"x_max":1007,"o":"m 489 972 q 768 913 651 972 q 946 746 885 854 q 1007 490 1007 638 q 939 220 1007 331 q 755 55 871 110 q 493 0 639 0 l 67 0 q 126 97 108 42 q 144 233 144 151 l 144 476 l 49 476 l 49 511 l 144 511 l 144 739 q 126 877 144 822 q 67 972 108 932 l 489 972 m 436 83 q 580 118 524 83 q 665 236 636 153 q 694 464 694 319 q 627 790 694 692 q 436 889 560 889 l 436 511 l 561 511 l 561 476 l 436 476 l 436 83 z "},"Þ":{"ha":922,"x_min":49,"x_max":901,"o":"m 521 776 q 802 705 703 776 q 901 492 901 633 q 802 278 901 350 q 521 207 703 207 l 418 207 q 439 88 421 136 q 496 0 457 39 l 49 0 q 108 97 90 42 q 126 233 126 151 l 126 739 q 108 877 126 822 q 49 972 90 932 l 496 972 q 441 890 460 936 q 419 776 422 843 l 521 776 m 443 283 q 559 340 515 283 q 603 493 603 396 q 559 645 603 590 q 443 700 515 700 l 418 700 l 418 283 l 443 283 z "},"a":{"ha":799,"x_min":42,"x_max":792,"o":"m 744 115 q 792 128 775 115 q 731 20 781 61 q 613 -21 682 -21 q 501 8 549 -21 q 435 97 454 38 q 351 8 404 38 q 235 -21 299 -21 q 96 28 150 -21 q 42 151 42 78 q 106 306 42 244 q 307 397 171 367 l 424 424 l 424 572 q 344 685 424 685 q 290 664 310 685 q 269 608 269 643 q 279 556 269 579 q 310 501 289 533 q 266 445 301 471 q 183 419 231 419 q 93 456 126 419 q 60 549 60 492 q 100 651 60 606 q 211 724 140 697 q 371 750 282 750 q 609 683 531 750 q 688 476 688 617 l 688 206 q 744 115 688 115 m 375 121 q 425 140 403 121 q 424 175 424 151 l 424 361 l 406 357 q 324 313 353 343 q 296 225 296 282 q 317 149 296 176 q 375 121 339 121 z "},"b":{"ha":840,"x_min":0,"x_max":806,"o":"m 549 750 q 735 665 665 750 q 806 431 806 581 q 747 184 806 286 q 586 31 689 82 q 353 -21 483 -21 q 213 -5 285 -21 q 88 39 142 11 l 88 671 q 67 783 88 740 q 0 856 47 825 l 351 1014 l 351 654 q 435 726 383 701 q 549 750 488 750 m 393 39 q 489 110 454 39 q 524 325 524 182 q 490 538 524 463 q 394 613 457 613 q 351 601 369 613 l 351 50 q 393 39 367 39 z "},"c":{"ha":686,"x_min":35,"x_max":679,"o":"m 383 -21 q 129 79 224 -21 q 35 357 35 179 q 82 560 35 471 q 213 700 129 650 q 403 750 296 750 q 594 701 521 750 q 667 574 667 653 q 615 476 667 514 q 478 439 563 439 q 443 611 475 554 q 361 668 411 668 q 274 619 306 668 q 243 483 243 569 q 315 281 243 357 q 510 206 388 206 q 602 216 564 206 q 679 250 640 226 q 588 51 667 122 q 383 -21 510 -21 z "},"d":{"ha":846,"x_min":35,"x_max":818,"o":"m 486 0 l 486 74 q 408 4 456 29 q 303 -21 361 -21 q 106 70 178 -21 q 35 321 35 161 q 76 544 35 447 q 192 696 118 642 q 360 750 267 750 q 432 741 399 750 q 486 718 465 732 q 463 830 485 790 q 383 901 440 869 l 750 1014 l 750 139 q 765 49 750 79 q 818 0 779 18 l 486 0 m 443 117 q 486 128 467 117 l 486 657 q 446 671 471 671 q 351 592 388 671 q 315 385 315 513 q 349 185 315 253 q 443 117 382 117 z "},"e":{"ha":707,"x_min":35,"x_max":679,"o":"m 251 410 q 338 258 271 311 q 511 206 406 206 q 602 216 564 206 q 679 250 640 226 q 590 51 667 124 q 393 -21 514 -21 q 131 78 228 -21 q 35 351 35 176 q 77 556 35 465 q 197 699 119 647 q 375 750 274 750 q 599 659 519 750 q 679 410 679 568 l 251 410 m 344 676 q 269 628 296 676 q 243 492 243 579 l 243 488 l 435 488 q 414 633 435 589 q 344 676 393 676 z "},"f":{"ha":511,"x_min":21,"x_max":594,"o":"m 340 907 q 274 885 300 907 q 249 826 249 863 q 281 754 249 779 q 374 729 314 729 l 468 729 l 468 660 l 374 660 l 374 176 q 403 75 374 117 q 500 0 433 33 l 21 0 q 88 75 67 35 q 110 167 110 115 l 110 660 l 28 660 l 28 729 l 113 729 q 204 939 126 864 q 408 1014 282 1014 q 544 982 493 1014 q 594 897 594 950 q 553 813 594 844 q 436 779 511 782 q 411 874 436 840 q 340 907 386 907 z "},"g":{"ha":774,"x_min":21,"x_max":774,"o":"m 540 207 q 713 156 651 207 q 774 1 774 104 q 722 -153 774 -85 q 577 -260 669 -222 q 369 -299 485 -299 q 109 -259 197 -299 q 21 -142 21 -219 q 52 -74 21 -103 q 140 -33 83 -46 q 63 38 90 -10 q 35 146 35 85 q 69 257 35 210 q 164 322 104 304 q 86 402 114 354 q 58 510 58 450 q 98 637 58 582 q 210 722 138 692 q 378 751 282 751 q 506 735 447 751 q 488 800 488 765 q 526 894 488 858 q 625 931 564 931 q 729 901 692 931 q 767 817 767 872 q 735 740 767 769 q 654 711 704 711 q 644 768 657 747 q 606 789 631 789 q 574 778 585 789 q 563 747 563 767 q 596 694 563 721 q 671 615 644 663 q 697 510 697 568 q 658 383 697 438 q 546 298 618 328 q 378 268 474 268 q 217 296 288 268 q 194 250 194 278 q 215 210 194 225 q 271 194 235 194 q 404 200 318 194 q 540 207 476 207 m 378 683 q 327 641 343 683 q 311 510 311 599 q 327 378 311 421 q 378 336 343 336 q 428 378 413 336 q 444 510 444 421 q 428 641 444 599 q 378 683 413 683 m 385 -218 q 510 -187 460 -218 q 560 -108 560 -156 q 538 -56 560 -71 q 460 -40 515 -40 q 376 -46 440 -40 q 236 -54 293 -54 q 210 -53 218 -54 q 201 -100 201 -75 q 252 -185 201 -153 q 385 -218 303 -218 z "},"h":{"ha":864,"x_min":28,"x_max":829,"o":"m 465 0 q 501 64 490 29 q 511 156 511 99 l 511 517 q 435 613 511 613 q 365 586 394 613 l 365 156 q 375 65 365 97 q 411 0 385 33 l 38 0 q 88 64 74 29 q 101 156 101 99 l 101 696 q 85 794 101 760 q 28 856 68 828 l 365 1014 l 365 647 q 447 722 393 693 q 560 750 500 750 q 718 692 661 750 q 775 525 775 633 l 775 156 q 787 66 775 100 q 829 0 799 32 l 465 0 z "},"i":{"ha":461,"x_min":35,"x_max":426,"o":"m 224 761 q 122 802 164 761 q 81 901 81 843 q 122 1001 81 960 q 224 1043 164 1043 q 325 1001 283 1043 q 367 901 367 960 q 325 802 367 843 q 224 761 283 761 m 99 453 q 85 558 99 524 q 38 617 72 593 l 363 750 l 363 157 q 378 66 363 101 q 426 0 393 31 l 35 0 q 85 64 71 29 q 99 156 99 99 l 99 453 z "},"j":{"ha":429,"x_min":-139,"x_max":361,"o":"m 218 761 q 117 802 158 761 q 75 901 75 843 q 117 1001 75 960 q 218 1043 158 1043 q 319 1001 278 1043 q 361 901 361 960 q 319 802 361 843 q 218 761 278 761 m 29 -299 q -92 -262 -46 -299 q -139 -167 -139 -226 q -93 -69 -139 -106 q 25 -31 -47 -33 q 52 -158 33 -111 q 94 -204 71 -204 q 129 -168 129 -204 q 124 -136 129 -151 q 118 -117 119 -121 q 102 -62 108 -90 q 96 10 96 -35 l 96 496 q 81 560 96 535 q 28 607 65 585 l 360 750 l 360 149 q 319 -87 360 14 q 204 -244 279 -189 q 29 -299 129 -299 z "},"k":{"ha":919,"x_min":28,"x_max":906,"o":"m 365 156 q 379 64 365 99 q 429 0 393 29 l 38 0 q 88 64 74 29 q 101 156 101 99 l 101 696 q 85 794 101 760 q 28 856 68 828 l 365 1014 l 365 156 m 815 122 q 900 0 860 43 l 554 0 l 374 365 l 529 529 q 602 613 586 590 q 618 657 618 636 q 585 729 618 700 l 906 729 q 708 585 769 651 l 621 489 l 815 122 z "},"l":{"ha":457,"x_min":28,"x_max":429,"o":"m 38 0 q 88 64 74 29 q 101 156 101 99 l 101 696 q 85 794 101 760 q 28 856 68 828 l 365 1014 l 365 156 q 379 64 365 99 q 429 0 393 29 l 38 0 z "},"m":{"ha":1207,"x_min":35,"x_max":1172,"o":"m 817 0 q 853 65 843 32 q 863 156 863 99 l 863 543 q 803 613 863 613 q 743 585 765 613 q 744 547 744 572 l 744 156 q 754 65 744 99 q 790 0 764 32 l 435 0 q 471 65 461 32 q 481 156 481 99 l 481 542 q 421 613 481 613 q 363 586 388 613 l 363 156 q 372 65 363 99 q 408 0 382 32 l 35 0 q 85 64 71 29 q 99 156 99 99 l 99 453 q 85 559 99 524 q 35 619 71 594 l 356 750 l 356 633 q 435 719 383 689 q 553 750 486 750 q 669 719 624 750 q 733 631 715 689 q 816 719 764 688 q 933 750 868 750 q 1077 698 1028 750 q 1126 547 1126 646 l 1126 156 q 1136 65 1126 99 q 1172 0 1146 32 l 817 0 z "},"n":{"ha":861,"x_min":35,"x_max":826,"o":"m 463 0 q 498 65 488 29 q 508 156 508 100 l 508 517 q 432 613 508 613 q 363 586 392 613 l 363 156 q 372 65 363 96 q 408 0 381 33 l 35 0 q 85 64 71 29 q 99 156 99 99 l 99 451 q 85 559 99 524 q 35 619 71 594 l 356 750 l 356 636 q 438 718 382 686 q 557 750 493 750 q 716 691 660 750 q 772 525 772 632 l 772 156 q 785 65 772 101 q 826 0 797 29 l 463 0 z "},"o":{"ha":844,"x_min":35,"x_max":810,"o":"m 422 -21 q 219 27 307 -21 q 83 163 132 75 q 35 364 35 250 q 83 567 35 479 q 219 702 132 654 q 422 750 307 750 q 625 702 538 750 q 761 567 713 654 q 810 364 810 479 q 761 163 810 250 q 625 27 713 75 q 422 -21 538 -21 m 422 56 q 499 133 474 56 q 525 364 525 211 q 422 674 525 674 q 319 364 319 674 q 345 133 319 211 q 422 56 371 56 z "},"p":{"ha":831,"x_min":14,"x_max":796,"o":"m 536 750 q 727 657 658 750 q 796 399 796 564 q 716 90 796 201 q 474 -21 636 -21 q 342 13 394 -21 l 342 -104 q 349 -181 342 -154 q 376 -228 356 -207 q 442 -278 397 -249 l 14 -278 q 65 -208 51 -242 q 78 -112 78 -175 l 78 453 q 64 559 78 524 q 14 619 50 594 l 335 750 l 335 644 q 420 723 367 696 q 536 750 474 750 m 383 58 q 478 132 442 58 q 514 324 514 206 q 385 613 514 613 q 342 601 361 613 l 342 69 q 383 58 358 58 z "},"q":{"ha":828,"x_min":35,"x_max":828,"o":"m 386 -278 q 463 -194 440 -233 q 486 -90 486 -154 l 486 75 q 403 3 454 28 q 290 -21 351 -21 q 104 64 174 -21 q 35 301 35 149 q 94 540 35 438 q 254 696 153 642 q 482 750 356 750 q 624 734 551 750 q 750 690 696 718 l 750 -99 q 767 -198 750 -158 q 828 -278 783 -237 l 386 -278 m 443 117 q 486 128 468 117 l 486 679 q 444 690 471 690 q 350 615 385 690 q 315 389 315 539 q 351 184 315 251 q 443 117 386 117 z "},"r":{"ha":618,"x_min":35,"x_max":618,"o":"m 501 750 q 585 718 553 750 q 618 632 618 686 q 586 530 618 569 q 506 490 554 490 q 480 531 500 517 q 433 544 460 544 q 396 538 414 544 q 367 522 378 532 l 367 160 q 390 65 367 101 q 467 0 414 29 l 39 0 q 89 64 75 29 q 103 156 103 99 l 103 453 q 88 561 101 525 q 35 626 75 597 l 342 750 l 342 560 q 402 703 365 657 q 501 750 439 750 z "},"s":{"ha":654,"x_min":42,"x_max":626,"o":"m 331 -21 q 61 40 192 -21 l 61 268 q 210 131 126 182 q 367 79 294 79 q 415 94 397 79 q 432 138 432 110 q 416 174 432 160 q 360 204 400 189 l 219 256 q 85 348 129 289 q 42 496 42 407 q 79 627 42 569 q 183 717 117 685 q 335 750 250 750 q 474 732 404 750 q 582 686 543 714 l 582 483 q 455 607 535 557 q 306 657 375 657 q 239 610 239 657 q 253 574 239 588 q 308 543 268 560 l 447 486 q 585 390 543 447 q 626 250 626 333 q 590 108 626 169 q 485 13 553 47 q 331 -21 418 -21 z "},"t":{"ha":525,"x_min":14,"x_max":525,"o":"m 440 135 q 525 169 493 135 q 453 26 510 74 q 294 -21 396 -21 q 141 31 200 -21 q 82 185 82 82 l 82 660 l 14 660 l 346 940 l 346 729 l 492 729 l 492 660 l 346 660 l 346 242 q 371 163 346 192 q 440 135 396 135 z "},"u":{"ha":825,"x_min":21,"x_max":790,"o":"m 472 -8 l 472 82 q 390 8 443 36 q 278 -21 336 -21 q 137 32 189 -21 q 85 200 85 85 l 85 440 q 71 550 85 513 q 21 615 57 588 l 349 750 l 349 197 q 411 117 349 117 q 472 144 444 117 l 472 450 q 459 554 472 521 q 408 615 446 588 l 736 750 l 736 140 q 790 22 736 63 l 472 -8 z "},"v":{"ha":756,"x_min":0,"x_max":756,"o":"m 756 729 q 672 604 711 689 l 393 -7 l 372 -7 l 71 619 q 0 729 31 703 l 426 729 q 382 651 382 708 q 396 594 382 632 l 479 385 l 561 579 q 579 656 579 622 q 536 729 579 706 l 756 729 z "},"w":{"ha":1150,"x_min":0,"x_max":1150,"o":"m 1150 729 q 1120 688 1132 710 q 1089 619 1108 665 l 824 -7 l 801 -7 l 576 485 l 363 -7 l 342 -7 l 44 654 q 23 697 32 682 q 0 729 14 711 l 410 729 q 358 649 358 701 q 369 597 358 624 l 449 400 l 529 589 l 499 654 q 454 729 478 700 l 864 729 q 813 649 813 701 q 824 597 813 624 l 904 400 l 983 586 q 999 651 999 621 q 951 729 999 703 l 1150 729 z "},"x":{"ha":856,"x_min":0,"x_max":856,"o":"m 383 0 q 435 81 435 31 q 413 151 435 117 l 340 260 l 268 168 q 235 88 235 125 q 288 0 235 28 l 0 0 q 113 117 69 64 l 292 333 l 106 615 q 21 729 60 685 l 475 729 q 440 699 453 718 q 428 653 428 679 q 458 576 428 619 l 515 492 l 572 561 q 611 647 611 610 q 597 693 611 671 q 561 729 583 715 l 842 729 q 714 597 783 681 l 564 419 l 767 115 q 856 0 824 29 l 383 0 z "},"y":{"ha":775,"x_min":0,"x_max":775,"o":"m 775 729 q 732 678 747 703 q 696 597 717 653 l 446 -56 q 338 -244 394 -190 q 193 -299 282 -299 q 78 -261 121 -299 q 35 -161 35 -224 q 69 -67 35 -106 q 160 -22 104 -29 q 199 -116 174 -87 q 268 -144 225 -144 q 324 -121 304 -144 q 344 -54 344 -97 q 325 35 344 -21 l 69 614 q 0 729 32 700 l 440 729 q 401 686 415 711 q 388 635 388 661 q 406 551 388 603 l 493 315 l 583 557 q 597 626 597 590 q 540 729 597 689 l 775 729 z "},"z":{"ha":743,"x_min":35,"x_max":715,"o":"m 382 658 q 227 599 301 658 q 71 418 153 539 l 113 729 l 715 729 l 371 65 q 488 101 425 65 q 610 197 551 136 q 707 333 668 258 l 686 0 l 35 0 l 382 658 z "},"à":{"ha":799,"x_min":42,"x_max":792,"o":"m 744 115 q 792 128 775 115 q 731 20 781 61 q 613 -21 682 -21 q 501 8 549 -21 q 435 97 454 38 q 351 8 404 38 q 235 -21 299 -21 q 96 28 150 -21 q 42 151 42 78 q 106 306 42 244 q 307 397 171 367 l 424 424 l 424 572 q 344 685 424 685 q 290 664 310 685 q 269 608 269 643 q 279 556 269 579 q 310 501 289 533 q 266 445 301 471 q 183 419 231 419 q 93 456 126 419 q 60 549 60 492 q 100 651 60 606 q 211 724 140 697 q 371 750 282 750 q 609 683 531 750 q 688 476 688 617 l 688 206 q 744 115 688 115 m 375 121 q 425 140 403 121 q 424 175 424 151 l 424 361 l 406 357 q 324 313 353 343 q 296 225 296 282 q 317 149 296 176 q 375 121 339 121 m 140 965 l 140 972 l 344 972 l 432 799 l 367 799 l 140 965 z "},"á":{"ha":799,"x_min":42,"x_max":792,"o":"m 744 115 q 792 128 775 115 q 731 20 781 61 q 613 -21 682 -21 q 501 8 549 -21 q 435 97 454 38 q 351 8 404 38 q 235 -21 299 -21 q 96 28 150 -21 q 42 151 42 78 q 106 306 42 244 q 307 397 171 367 l 424 424 l 424 572 q 344 685 424 685 q 290 664 310 685 q 269 608 269 643 q 279 556 269 579 q 310 501 289 533 q 266 445 301 471 q 183 419 231 419 q 93 456 126 419 q 60 549 60 492 q 100 651 60 606 q 211 724 140 697 q 371 750 282 750 q 609 683 531 750 q 688 476 688 617 l 688 206 q 744 115 688 115 m 375 121 q 425 140 403 121 q 424 175 424 151 l 424 361 l 406 357 q 324 313 353 343 q 296 225 296 282 q 317 149 296 176 q 375 121 339 121 m 367 799 l 454 972 l 658 972 l 658 965 l 432 799 l 367 799 z "},"â":{"ha":799,"x_min":42,"x_max":792,"o":"m 744 115 q 792 128 775 115 q 731 20 781 61 q 613 -21 682 -21 q 501 8 549 -21 q 435 97 454 38 q 351 8 404 38 q 235 -21 299 -21 q 96 28 150 -21 q 42 151 42 78 q 106 306 42 244 q 307 397 171 367 l 424 424 l 424 572 q 344 685 424 685 q 290 664 310 685 q 269 608 269 643 q 279 556 269 579 q 310 501 289 533 q 266 445 301 471 q 183 419 231 419 q 93 456 126 419 q 60 549 60 492 q 100 651 60 606 q 211 724 140 697 q 371 750 282 750 q 609 683 531 750 q 688 476 688 617 l 688 206 q 744 115 688 115 m 375 121 q 425 140 403 121 q 424 175 424 151 l 424 361 l 406 357 q 324 313 353 343 q 296 225 296 282 q 317 149 296 176 q 375 121 339 121 m 361 972 l 439 972 l 619 799 l 542 799 l 400 889 l 258 799 l 181 799 l 361 972 z "},"ã":{"ha":799,"x_min":42,"x_max":792,"o":"m 744 115 q 792 128 775 115 q 731 20 781 61 q 613 -21 682 -21 q 501 8 549 -21 q 435 97 454 38 q 351 8 404 38 q 235 -21 299 -21 q 96 28 150 -21 q 42 151 42 78 q 106 306 42 244 q 307 397 171 367 l 424 424 l 424 572 q 344 685 424 685 q 290 664 310 685 q 269 608 269 643 q 279 556 269 579 q 310 501 289 533 q 266 445 301 471 q 183 419 231 419 q 93 456 126 419 q 60 549 60 492 q 100 651 60 606 q 211 724 140 697 q 371 750 282 750 q 609 683 531 750 q 688 476 688 617 l 688 206 q 744 115 688 115 m 375 121 q 425 140 403 121 q 424 175 424 151 l 424 361 l 406 357 q 324 313 353 343 q 296 225 296 282 q 317 149 296 176 q 375 121 339 121 m 474 810 q 424 818 444 810 q 375 843 403 826 q 331 867 351 858 q 286 875 311 875 q 231 860 258 875 q 190 811 204 844 l 181 811 q 326 988 193 988 q 376 979 356 988 q 425 954 397 971 q 469 931 449 939 q 514 922 489 922 q 568 938 542 922 q 610 986 594 953 l 619 986 q 577 852 614 894 q 474 810 540 810 z "},"ä":{"ha":799,"x_min":42,"x_max":792,"o":"m 744 115 q 792 128 775 115 q 731 20 781 61 q 613 -21 682 -21 q 501 8 549 -21 q 435 97 454 38 q 351 8 404 38 q 235 -21 299 -21 q 96 28 150 -21 q 42 151 42 78 q 106 306 42 244 q 307 397 171 367 l 424 424 l 424 572 q 344 685 424 685 q 290 664 310 685 q 269 608 269 643 q 279 556 269 579 q 310 501 289 533 q 266 445 301 471 q 183 419 231 419 q 93 456 126 419 q 60 549 60 492 q 100 651 60 606 q 211 724 140 697 q 371 750 282 750 q 609 683 531 750 q 688 476 688 617 l 688 206 q 744 115 688 115 m 375 121 q 425 140 403 121 q 424 175 424 151 l 424 361 l 406 357 q 324 313 353 343 q 296 225 296 282 q 317 149 296 176 q 375 121 339 121 m 265 808 q 192 838 222 808 q 163 911 163 867 q 192 985 163 956 q 265 1014 222 1014 q 338 985 308 1014 q 368 911 368 956 q 338 838 368 867 q 265 808 308 808 m 535 808 q 462 838 492 808 q 432 911 432 867 q 462 985 432 956 q 535 1014 492 1014 q 608 985 578 1014 q 638 911 638 956 q 608 838 638 867 q 535 808 578 808 z "},"ā":{"ha":799,"x_min":42,"x_max":792,"o":"m 744 115 q 792 128 775 115 q 731 20 781 61 q 613 -21 682 -21 q 501 8 549 -21 q 435 97 454 38 q 351 8 404 38 q 235 -21 299 -21 q 96 28 150 -21 q 42 151 42 78 q 106 306 42 244 q 307 397 171 367 l 424 424 l 424 572 q 344 685 424 685 q 290 664 310 685 q 269 608 269 643 q 279 556 269 579 q 310 501 289 533 q 266 445 301 471 q 183 419 231 419 q 93 456 126 419 q 60 549 60 492 q 100 651 60 606 q 211 724 140 697 q 371 750 282 750 q 609 683 531 750 q 688 476 688 617 l 688 206 q 744 115 688 115 m 375 121 q 425 140 403 121 q 424 175 424 151 l 424 361 l 406 357 q 324 313 353 343 q 296 225 296 282 q 317 149 296 176 q 375 121 339 121 m 179 900 l 621 900 l 621 844 l 179 844 l 179 900 z "},"ă":{"ha":799,"x_min":42,"x_max":792,"o":"m 744 115 q 792 128 775 115 q 731 20 781 61 q 613 -21 682 -21 q 501 8 549 -21 q 435 97 454 38 q 351 8 404 38 q 235 -21 299 -21 q 96 28 150 -21 q 42 151 42 78 q 106 306 42 244 q 307 397 171 367 l 424 424 l 424 572 q 344 685 424 685 q 290 664 310 685 q 269 608 269 643 q 279 556 269 579 q 310 501 289 533 q 266 445 301 471 q 183 419 231 419 q 93 456 126 419 q 60 549 60 492 q 100 651 60 606 q 211 724 140 697 q 371 750 282 750 q 609 683 531 750 q 688 476 688 617 l 688 206 q 744 115 688 115 m 375 121 q 425 140 403 121 q 424 175 424 151 l 424 361 l 406 357 q 324 313 353 343 q 296 225 296 282 q 317 149 296 176 q 375 121 339 121 m 400 790 q 273 840 324 790 q 222 972 222 890 l 264 972 q 305 910 268 932 q 400 889 342 889 q 495 910 458 889 q 536 972 532 932 l 578 972 q 527 840 578 890 q 400 790 476 790 z "},"å":{"ha":799,"x_min":42,"x_max":792,"o":"m 744 115 q 792 128 775 115 q 731 20 781 61 q 613 -21 682 -21 q 501 8 549 -21 q 435 97 454 38 q 351 8 404 38 q 235 -21 299 -21 q 96 28 150 -21 q 42 151 42 78 q 106 306 42 244 q 307 397 171 367 l 424 424 l 424 572 q 344 685 424 685 q 290 664 310 685 q 269 608 269 643 q 279 556 269 579 q 310 501 289 533 q 266 445 301 471 q 183 419 231 419 q 93 456 126 419 q 60 549 60 492 q 100 651 60 606 q 211 724 140 697 q 371 750 282 750 q 609 683 531 750 q 688 476 688 617 l 688 206 q 744 115 688 115 m 375 121 q 425 140 403 121 q 424 175 424 151 l 424 361 l 406 357 q 324 313 353 343 q 296 225 296 282 q 317 149 296 176 q 375 121 339 121 m 400 783 q 304 819 342 783 q 267 913 267 856 q 304 1006 267 969 q 400 1042 342 1042 q 496 1006 458 1042 q 533 913 533 969 q 496 819 533 856 q 400 783 458 783 m 400 821 q 467 846 442 821 q 492 913 492 871 q 467 979 492 954 q 400 1004 442 1004 q 333 979 358 1004 q 308 913 308 954 q 333 846 308 871 q 400 821 358 821 z "},"ą":{"ha":799,"x_min":42,"x_max":792,"o":"m 675 -178 q 765 -112 738 -178 l 772 -115 q 724 -247 764 -203 q 618 -292 685 -292 q 509 -258 550 -292 q 468 -165 468 -225 q 496 -83 468 -121 q 583 -19 524 -44 q 490 16 529 -12 q 435 97 451 44 q 351 8 404 38 q 235 -21 299 -21 q 96 28 150 -21 q 42 151 42 78 q 106 306 42 244 q 307 397 171 367 l 424 424 l 424 572 q 344 685 424 685 q 290 664 310 685 q 269 608 269 643 q 279 556 269 579 q 310 501 289 533 q 266 445 301 471 q 183 419 231 419 q 93 456 126 419 q 60 549 60 492 q 100 651 60 606 q 211 724 140 697 q 371 750 282 750 q 609 683 531 750 q 688 476 688 617 l 688 206 q 744 115 688 115 q 792 128 775 115 q 741 30 781 69 q 643 -18 701 -10 q 593 -100 593 -49 q 615 -158 593 -137 q 675 -178 638 -178 m 375 121 q 425 140 403 121 q 424 175 424 151 l 424 361 l 406 357 q 324 313 353 343 q 296 225 296 282 q 317 149 296 176 q 375 121 339 121 z "},"æ":{"ha":1049,"x_min":42,"x_max":1021,"o":"m 671 390 q 738 257 690 303 q 857 211 785 211 q 1018 250 957 211 q 935 49 1006 118 q 746 -21 865 -21 q 597 19 661 -21 q 493 136 532 60 q 396 18 458 57 q 258 -21 333 -21 q 113 28 167 -21 q 58 151 58 78 q 122 306 58 244 q 317 397 185 367 l 424 422 l 407 525 q 374 651 393 617 q 319 685 356 685 q 271 663 290 685 q 251 608 251 642 q 260 558 251 581 q 292 501 269 535 q 245 444 282 468 q 165 419 208 419 q 76 455 110 419 q 42 549 42 490 q 82 652 42 606 q 192 724 122 699 q 346 750 261 750 q 478 725 419 750 q 575 654 538 700 q 653 726 608 703 q 760 750 699 750 q 944 653 874 750 q 1021 390 1014 557 l 671 390 m 724 668 q 658 518 658 668 q 660 468 658 483 l 790 468 q 775 622 790 576 q 724 668 760 668 m 390 129 q 478 168 443 129 q 447 281 458 215 l 433 361 l 415 357 q 339 313 365 343 q 313 228 313 283 q 335 156 313 183 q 390 129 357 129 z "},"ǽ":{"ha":1049,"x_min":42,"x_max":1021,"o":"m 671 390 q 738 257 690 303 q 857 211 785 211 q 1018 250 957 211 q 935 49 1006 118 q 746 -21 865 -21 q 597 19 661 -21 q 493 136 532 60 q 396 18 458 57 q 258 -21 333 -21 q 113 28 167 -21 q 58 151 58 78 q 122 306 58 244 q 317 397 185 367 l 424 422 l 407 525 q 374 651 393 617 q 319 685 356 685 q 271 663 290 685 q 251 608 251 642 q 260 558 251 581 q 292 501 269 535 q 245 444 282 468 q 165 419 208 419 q 76 455 110 419 q 42 549 42 490 q 82 652 42 606 q 192 724 122 699 q 346 750 261 750 q 478 725 419 750 q 575 654 538 700 q 653 726 608 703 q 760 750 699 750 q 944 653 874 750 q 1021 390 1014 557 l 671 390 m 724 668 q 658 518 658 668 q 660 468 658 483 l 790 468 q 775 622 790 576 q 724 668 760 668 m 390 129 q 478 168 443 129 q 447 281 458 215 l 433 361 l 415 357 q 339 313 365 343 q 313 228 313 283 q 335 156 313 183 q 390 129 357 129 m 547 799 l 635 972 l 839 972 l 839 965 l 613 799 l 547 799 z "},"ć":{"ha":686,"x_min":35,"x_max":679,"o":"m 383 -21 q 129 79 224 -21 q 35 357 35 179 q 82 560 35 471 q 213 700 129 650 q 403 750 296 750 q 594 701 521 750 q 667 574 667 653 q 615 476 667 514 q 478 439 563 439 q 443 611 475 554 q 361 668 411 668 q 274 619 306 668 q 243 483 243 569 q 315 281 243 357 q 510 206 388 206 q 602 216 564 206 q 679 250 640 226 q 588 51 667 122 q 383 -21 510 -21 m 335 799 l 422 972 l 626 972 l 626 965 l 400 799 l 335 799 z "},"ĉ":{"ha":686,"x_min":35,"x_max":679,"o":"m 383 -21 q 129 79 224 -21 q 35 357 35 179 q 82 560 35 471 q 213 700 129 650 q 403 750 296 750 q 594 701 521 750 q 667 574 667 653 q 615 476 667 514 q 478 439 563 439 q 443 611 475 554 q 361 668 411 668 q 274 619 306 668 q 243 483 243 569 q 315 281 243 357 q 510 206 388 206 q 602 216 564 206 q 679 250 640 226 q 588 51 667 122 q 383 -21 510 -21 m 329 972 l 407 972 l 588 799 l 510 799 l 368 889 l 226 799 l 149 799 l 329 972 z "},"č":{"ha":686,"x_min":35,"x_max":679,"o":"m 383 -21 q 129 79 224 -21 q 35 357 35 179 q 82 560 35 471 q 213 700 129 650 q 403 750 296 750 q 594 701 521 750 q 667 574 667 653 q 615 476 667 514 q 478 439 563 439 q 443 611 475 554 q 361 668 411 668 q 274 619 306 668 q 243 483 243 569 q 315 281 243 357 q 510 206 388 206 q 602 216 564 206 q 679 250 640 226 q 588 51 667 122 q 383 -21 510 -21 m 150 972 l 228 972 l 369 882 l 511 972 l 589 972 l 408 799 l 331 799 l 150 972 z "},"ċ":{"ha":686,"x_min":35,"x_max":679,"o":"m 383 -21 q 129 79 224 -21 q 35 357 35 179 q 82 560 35 471 q 213 700 129 650 q 403 750 296 750 q 594 701 521 750 q 667 574 667 653 q 615 476 667 514 q 478 439 563 439 q 443 611 475 554 q 361 668 411 668 q 274 619 306 668 q 243 483 243 569 q 315 281 243 357 q 510 206 388 206 q 602 216 564 206 q 679 250 640 226 q 588 51 667 122 q 383 -21 510 -21 m 368 794 q 284 828 318 794 q 250 911 250 863 q 284 994 250 960 q 368 1028 318 1028 q 452 994 418 1028 q 486 911 486 960 q 452 828 486 863 q 368 794 418 794 z "},"ç":{"ha":686,"x_min":35,"x_max":679,"o":"m 361 -21 l 325 -76 q 374 -65 343 -65 q 453 -94 421 -65 q 485 -174 485 -124 q 449 -264 485 -229 q 357 -299 413 -299 q 281 -273 310 -299 q 242 -203 251 -247 l 257 -196 q 322 -235 276 -235 q 364 -217 349 -235 q 379 -171 379 -200 q 365 -131 379 -146 q 329 -115 351 -115 q 315 -117 322 -115 q 299 -124 308 -118 l 276 -112 l 333 -18 q 115 95 194 -3 q 35 357 35 193 q 82 560 35 471 q 213 700 129 650 q 403 750 296 750 q 594 701 521 750 q 667 574 667 653 q 615 476 667 514 q 478 439 563 439 q 443 611 475 554 q 361 668 411 668 q 274 619 306 668 q 243 483 243 569 q 315 281 243 357 q 510 206 388 206 q 602 216 564 206 q 679 250 640 226 q 588 51 667 122 q 383 -21 510 -21 l 361 -21 z "},"ď":{"ha":957,"x_min":35,"x_max":963,"o":"m 750 139 q 765 49 750 79 q 818 0 779 18 l 486 0 l 486 74 q 408 4 456 29 q 303 -21 361 -21 q 106 70 178 -21 q 35 321 35 161 q 76 544 35 447 q 192 696 118 642 q 360 750 267 750 q 432 741 399 750 q 486 718 465 732 q 463 830 485 790 q 383 901 440 869 l 750 1014 l 750 139 m 867 1000 q 934 969 906 1000 q 963 881 963 938 q 935 800 963 835 q 828 747 908 765 l 821 765 q 889 792 874 778 q 904 824 904 806 q 856 856 904 850 q 809 876 828 860 q 790 922 790 892 q 810 978 790 956 q 867 1000 831 1000 m 443 117 q 486 128 467 117 l 486 657 q 446 671 471 671 q 351 592 388 671 q 315 385 315 513 q 349 185 315 253 q 443 117 382 117 z "},"đ":{"ha":846,"x_min":35,"x_max":818,"o":"m 486 0 l 486 74 q 408 4 456 29 q 303 -21 361 -21 q 106 70 178 -21 q 35 321 35 161 q 76 544 35 447 q 192 696 118 642 q 360 750 267 750 q 432 741 399 750 q 486 718 465 732 q 475 801 483 771 l 217 801 l 217 829 l 463 829 q 383 901 442 869 l 750 1014 l 750 829 l 815 829 l 815 801 l 750 801 l 750 139 q 765 49 750 79 q 818 0 779 18 l 486 0 m 443 117 q 486 128 467 117 l 486 657 q 446 671 471 671 q 351 592 388 671 q 315 385 315 513 q 349 185 315 253 q 443 117 382 117 z "},"è":{"ha":707,"x_min":35,"x_max":679,"o":"m 251 410 q 338 258 271 311 q 511 206 406 206 q 602 216 564 206 q 679 250 640 226 q 590 51 667 124 q 393 -21 514 -21 q 131 78 228 -21 q 35 351 35 176 q 77 556 35 465 q 197 699 119 647 q 375 750 274 750 q 599 659 519 750 q 679 410 679 568 l 251 410 m 344 676 q 269 628 296 676 q 243 492 243 579 l 243 488 l 435 488 q 414 633 435 589 q 344 676 393 676 m 104 965 l 104 972 l 308 972 l 396 799 l 331 799 l 104 965 z "},"é":{"ha":707,"x_min":35,"x_max":679,"o":"m 251 410 q 338 258 271 311 q 511 206 406 206 q 602 216 564 206 q 679 250 640 226 q 590 51 667 124 q 393 -21 514 -21 q 131 78 228 -21 q 35 351 35 176 q 77 556 35 465 q 197 699 119 647 q 375 750 274 750 q 599 659 519 750 q 679 410 679 568 l 251 410 m 344 676 q 269 628 296 676 q 243 492 243 579 l 243 488 l 435 488 q 414 633 435 589 q 344 676 393 676 m 331 799 l 418 972 l 622 972 l 622 965 l 396 799 l 331 799 z "},"ê":{"ha":707,"x_min":35,"x_max":679,"o":"m 251 410 q 338 258 271 311 q 511 206 406 206 q 602 216 564 206 q 679 250 640 226 q 590 51 667 124 q 393 -21 514 -21 q 131 78 228 -21 q 35 351 35 176 q 77 556 35 465 q 197 699 119 647 q 375 750 274 750 q 599 659 519 750 q 679 410 679 568 l 251 410 m 344 676 q 269 628 296 676 q 243 492 243 579 l 243 488 l 435 488 q 414 633 435 589 q 344 676 393 676 m 325 972 l 403 972 l 583 799 l 506 799 l 364 889 l 222 799 l 144 799 l 325 972 z "},"ě":{"ha":707,"x_min":35,"x_max":679,"o":"m 251 410 q 338 258 271 311 q 511 206 406 206 q 602 216 564 206 q 679 250 640 226 q 590 51 667 124 q 393 -21 514 -21 q 131 78 228 -21 q 35 351 35 176 q 77 556 35 465 q 197 699 119 647 q 375 750 274 750 q 599 659 519 750 q 679 410 679 568 l 251 410 m 344 676 q 269 628 296 676 q 243 492 243 579 l 243 488 l 435 488 q 414 633 435 589 q 344 676 393 676 m 146 972 l 224 972 l 365 882 l 507 972 l 585 972 l 404 799 l 326 799 l 146 972 z "},"ë":{"ha":707,"x_min":35,"x_max":679,"o":"m 251 410 q 338 258 271 311 q 511 206 406 206 q 602 216 564 206 q 679 250 640 226 q 590 51 667 124 q 393 -21 514 -21 q 131 78 228 -21 q 35 351 35 176 q 77 556 35 465 q 197 699 119 647 q 375 750 274 750 q 599 659 519 750 q 679 410 679 568 l 251 410 m 344 676 q 269 628 296 676 q 243 492 243 579 l 243 488 l 435 488 q 414 633 435 589 q 344 676 393 676 m 229 808 q 156 838 186 808 q 126 911 126 867 q 156 985 126 956 q 229 1014 186 1014 q 302 985 272 1014 q 332 911 332 956 q 302 838 332 867 q 229 808 272 808 m 499 808 q 426 838 456 808 q 396 911 396 867 q 426 985 396 956 q 499 1014 456 1014 q 572 985 542 1014 q 601 911 601 956 q 572 838 601 867 q 499 808 542 808 z "},"ē":{"ha":707,"x_min":35,"x_max":679,"o":"m 251 410 q 338 258 271 311 q 511 206 406 206 q 602 216 564 206 q 679 250 640 226 q 590 51 667 124 q 393 -21 514 -21 q 131 78 228 -21 q 35 351 35 176 q 77 556 35 465 q 197 699 119 647 q 375 750 274 750 q 599 659 519 750 q 679 410 679 568 l 251 410 m 344 676 q 269 628 296 676 q 243 492 243 579 l 243 488 l 435 488 q 414 633 435 589 q 344 676 393 676 m 143 900 l 585 900 l 585 844 l 143 844 l 143 900 z "},"ĕ":{"ha":707,"x_min":35,"x_max":679,"o":"m 251 410 q 338 258 271 311 q 511 206 406 206 q 602 216 564 206 q 679 250 640 226 q 590 51 667 124 q 393 -21 514 -21 q 131 78 228 -21 q 35 351 35 176 q 77 556 35 465 q 197 699 119 647 q 375 750 274 750 q 599 659 519 750 q 679 410 679 568 l 251 410 m 344 676 q 269 628 296 676 q 243 492 243 579 l 243 488 l 435 488 q 414 633 435 589 q 344 676 393 676 m 364 790 q 237 840 288 790 q 186 972 186 890 l 228 972 q 269 910 232 932 q 364 889 306 889 q 459 910 422 889 q 500 972 496 932 l 542 972 q 491 840 542 890 q 364 790 440 790 z "},"ė":{"ha":707,"x_min":35,"x_max":679,"o":"m 251 410 q 338 258 271 311 q 511 206 406 206 q 602 216 564 206 q 679 250 640 226 q 590 51 667 124 q 393 -21 514 -21 q 131 78 228 -21 q 35 351 35 176 q 77 556 35 465 q 197 699 119 647 q 375 750 274 750 q 599 659 519 750 q 679 410 679 568 l 251 410 m 344 676 q 269 628 296 676 q 243 492 243 579 l 243 488 l 435 488 q 414 633 435 589 q 344 676 393 676 m 364 794 q 280 828 314 794 q 246 911 246 863 q 280 994 246 960 q 364 1028 314 1028 q 448 994 414 1028 q 482 911 482 960 q 448 828 482 863 q 364 794 414 794 z "},"ę":{"ha":707,"x_min":35,"x_max":732,"o":"m 251 410 q 338 258 271 311 q 511 206 406 206 q 602 216 564 206 q 679 250 640 226 q 590 51 667 124 q 393 -21 514 -21 q 131 78 228 -21 q 35 351 35 176 q 77 556 35 465 q 197 699 119 647 q 375 750 274 750 q 599 659 519 750 q 679 410 679 568 l 251 410 m 344 676 q 269 628 296 676 q 243 492 243 579 l 243 488 l 435 488 q 414 633 435 589 q 344 676 393 676 m 578 -278 q 469 -244 510 -278 q 428 -151 428 -211 q 480 -43 428 -90 q 644 21 532 4 l 644 14 q 553 -86 553 -17 q 575 -144 553 -124 q 635 -164 597 -164 q 725 -99 697 -164 l 732 -101 q 684 -233 724 -189 q 578 -278 644 -278 z "},"ĝ":{"ha":774,"x_min":21,"x_max":774,"o":"m 257 854 l 179 854 l 290 972 l 368 972 l 479 854 l 401 854 l 329 917 l 257 854 m 540 207 q 713 156 651 207 q 774 1 774 104 q 722 -153 774 -85 q 577 -260 669 -222 q 369 -299 485 -299 q 109 -259 197 -299 q 21 -142 21 -219 q 52 -74 21 -103 q 140 -33 83 -46 q 63 38 90 -10 q 35 146 35 85 q 69 257 35 210 q 164 322 104 304 q 86 402 114 354 q 58 510 58 450 q 98 637 58 582 q 210 722 138 692 q 378 751 282 751 q 506 735 447 751 q 488 800 488 765 q 526 894 488 858 q 625 931 564 931 q 729 901 692 931 q 767 817 767 872 q 735 740 767 769 q 654 711 704 711 q 644 768 657 747 q 606 789 631 789 q 574 778 585 789 q 563 747 563 767 q 596 694 563 721 q 671 615 644 663 q 697 510 697 568 q 658 383 697 438 q 546 298 618 328 q 378 268 474 268 q 217 296 288 268 q 194 250 194 278 q 215 210 194 225 q 271 194 235 194 q 404 200 318 194 q 540 207 476 207 m 378 683 q 327 641 343 683 q 311 510 311 599 q 327 378 311 421 q 378 336 343 336 q 428 378 413 336 q 444 510 444 421 q 428 641 444 599 q 378 683 413 683 m 385 -218 q 510 -187 460 -218 q 560 -108 560 -156 q 538 -56 560 -71 q 460 -40 515 -40 q 376 -46 440 -40 q 236 -54 293 -54 q 210 -53 218 -54 q 201 -100 201 -75 q 252 -185 201 -153 q 385 -218 303 -218 z "},"ğ":{"ha":774,"x_min":21,"x_max":774,"o":"m 371 790 q 270 838 306 790 q 235 972 235 886 l 276 972 q 301 909 279 929 q 371 889 322 889 q 441 909 419 889 q 465 972 463 929 l 507 972 q 472 838 507 886 q 371 790 436 790 m 540 207 q 713 156 651 207 q 774 1 774 104 q 722 -153 774 -85 q 577 -260 669 -222 q 369 -299 485 -299 q 109 -259 197 -299 q 21 -142 21 -219 q 52 -74 21 -103 q 140 -33 83 -46 q 63 38 90 -10 q 35 146 35 85 q 69 257 35 210 q 164 322 104 304 q 86 402 114 354 q 58 510 58 450 q 98 637 58 582 q 210 722 138 692 q 378 751 282 751 q 506 735 447 751 q 488 800 488 765 q 526 894 488 858 q 625 931 564 931 q 729 901 692 931 q 767 817 767 872 q 735 740 767 769 q 654 711 704 711 q 644 768 657 747 q 606 789 631 789 q 574 778 585 789 q 563 747 563 767 q 596 694 563 721 q 671 615 644 663 q 697 510 697 568 q 658 383 697 438 q 546 298 618 328 q 378 268 474 268 q 217 296 288 268 q 194 250 194 278 q 215 210 194 225 q 271 194 235 194 q 404 200 318 194 q 540 207 476 207 m 378 683 q 327 641 343 683 q 311 510 311 599 q 327 378 311 421 q 378 336 343 336 q 428 378 413 336 q 444 510 444 421 q 428 641 444 599 q 378 683 413 683 m 385 -218 q 510 -187 460 -218 q 560 -108 560 -156 q 538 -56 560 -71 q 460 -40 515 -40 q 376 -46 440 -40 q 236 -54 293 -54 q 210 -53 218 -54 q 201 -100 201 -75 q 252 -185 201 -153 q 385 -218 303 -218 z "},"ġ":{"ha":774,"x_min":21,"x_max":774,"o":"m 540 207 q 713 156 651 207 q 774 1 774 104 q 722 -153 774 -85 q 577 -260 669 -222 q 369 -299 485 -299 q 109 -259 197 -299 q 21 -142 21 -219 q 52 -74 21 -103 q 140 -33 83 -46 q 63 38 90 -10 q 35 146 35 85 q 69 257 35 210 q 164 322 104 304 q 86 402 114 354 q 58 510 58 450 q 98 637 58 582 q 210 722 138 692 q 378 751 282 751 q 506 735 447 751 q 488 800 488 765 q 526 894 488 858 q 625 931 564 931 q 729 901 692 931 q 767 817 767 872 q 735 740 767 769 q 654 711 704 711 q 644 768 657 747 q 606 789 631 789 q 574 778 585 789 q 563 747 563 767 q 596 694 563 721 q 671 615 644 663 q 697 510 697 568 q 658 383 697 438 q 546 298 618 328 q 378 268 474 268 q 217 296 288 268 q 194 250 194 278 q 215 210 194 225 q 271 194 235 194 q 404 200 318 194 q 540 207 476 207 m 378 683 q 327 641 343 683 q 311 510 311 599 q 327 378 311 421 q 378 336 343 336 q 428 378 413 336 q 444 510 444 421 q 428 641 444 599 q 378 683 413 683 m 385 -218 q 510 -187 460 -218 q 560 -108 560 -156 q 538 -56 560 -71 q 460 -40 515 -40 q 376 -46 440 -40 q 236 -54 293 -54 q 210 -53 218 -54 q 201 -100 201 -75 q 252 -185 201 -153 q 385 -218 303 -218 m 371 794 q 287 828 321 794 q 253 911 253 863 q 287 994 253 960 q 371 1028 321 1028 q 455 994 421 1028 q 489 911 489 960 q 455 828 489 863 q 371 794 421 794 z "},"ģ":{"ha":774,"x_min":21,"x_max":774,"o":"m 540 207 q 713 156 651 207 q 774 1 774 104 q 722 -153 774 -85 q 577 -260 669 -222 q 369 -299 485 -299 q 109 -259 197 -299 q 21 -142 21 -219 q 52 -74 21 -103 q 140 -33 83 -46 q 63 38 90 -10 q 35 146 35 85 q 69 257 35 210 q 164 322 104 304 q 86 402 114 354 q 58 510 58 450 q 98 637 58 582 q 210 722 138 692 q 378 751 282 751 q 506 735 447 751 q 488 800 488 765 q 526 894 488 858 q 625 931 564 931 q 729 901 692 931 q 767 817 767 872 q 735 740 767 769 q 654 711 704 711 q 644 768 657 747 q 606 789 631 789 q 574 778 585 789 q 563 747 563 767 q 596 694 563 721 q 671 615 644 663 q 697 510 697 568 q 658 383 697 438 q 546 298 618 328 q 378 268 474 268 q 217 296 288 268 q 194 250 194 278 q 215 210 194 225 q 271 194 235 194 q 404 200 318 194 q 540 207 476 207 m 378 683 q 327 641 343 683 q 311 510 311 599 q 327 378 311 421 q 378 336 343 336 q 428 378 413 336 q 444 510 444 421 q 428 641 444 599 q 378 683 413 683 m 385 -218 q 510 -187 460 -218 q 560 -108 560 -156 q 538 -56 560 -71 q 460 -40 515 -40 q 376 -46 440 -40 q 236 -54 293 -54 q 210 -53 218 -54 q 201 -100 201 -75 q 252 -185 201 -153 q 385 -218 303 -218 m 424 1075 q 357 1046 381 1064 q 333 1007 333 1028 q 346 976 333 988 q 389 957 358 964 q 440 931 424 949 q 456 882 456 913 q 433 829 456 849 q 375 810 411 810 q 301 846 332 810 q 269 932 269 882 q 306 1039 269 997 q 415 1103 342 1081 l 424 1075 z "},"ĥ":{"ha":864,"x_min":28,"x_max":829,"o":"m 85 1028 l 50 1028 l 215 1194 l 251 1194 l 417 1028 l 382 1028 l 233 1103 l 85 1028 m 465 0 q 501 64 490 29 q 511 156 511 99 l 511 517 q 435 613 511 613 q 365 586 394 613 l 365 156 q 375 65 365 97 q 411 0 385 33 l 38 0 q 88 64 74 29 q 101 156 101 99 l 101 696 q 85 794 101 760 q 28 856 68 828 l 365 1014 l 365 647 q 447 722 393 693 q 560 750 500 750 q 718 692 661 750 q 775 525 775 633 l 775 156 q 787 66 775 100 q 829 0 799 32 l 465 0 z "},"ħ":{"ha":864,"x_min":14,"x_max":829,"o":"m 465 0 q 501 64 490 29 q 511 156 511 99 l 511 517 q 435 613 511 613 q 365 586 394 613 l 365 156 q 375 65 365 97 q 411 0 385 33 l 38 0 q 88 64 74 29 q 101 156 101 99 l 101 696 q 82 799 101 764 l 14 799 l 14 826 l 63 826 q 28 856 46 843 l 365 1014 l 365 826 l 613 826 l 613 799 l 365 799 l 365 647 q 447 722 393 693 q 560 750 500 750 q 718 692 661 750 q 775 525 775 633 l 775 156 q 787 66 775 100 q 829 0 799 32 l 465 0 z "},"ì":{"ha":461,"x_min":-36,"x_max":426,"o":"m 99 453 q 85 558 99 524 q 38 617 72 593 l 363 750 l 363 157 q 378 66 363 101 q 426 0 393 31 l 35 0 q 85 64 71 29 q 99 156 99 99 l 99 453 m -36 965 l -36 972 l 168 972 l 256 799 l 190 799 l -36 965 z "},"í":{"ha":461,"x_min":35,"x_max":482,"o":"m 99 453 q 85 558 99 524 q 38 617 72 593 l 363 750 l 363 157 q 378 66 363 101 q 426 0 393 31 l 35 0 q 85 64 71 29 q 99 156 99 99 l 99 453 m 190 799 l 278 972 l 482 972 l 482 965 l 256 799 l 190 799 z "},"î":{"ha":461,"x_min":4,"x_max":443,"o":"m 99 453 q 85 558 99 524 q 38 617 72 593 l 363 750 l 363 157 q 378 66 363 101 q 426 0 393 31 l 35 0 q 85 64 71 29 q 99 156 99 99 l 99 453 m 185 972 l 263 972 l 443 799 l 365 799 l 224 889 l 82 799 l 4 799 l 185 972 z "},"ĩ":{"ha":461,"x_min":4,"x_max":443,"o":"m 99 453 q 85 558 99 524 q 38 617 72 593 l 363 750 l 363 157 q 378 66 363 101 q 426 0 393 31 l 35 0 q 85 64 71 29 q 99 156 99 99 l 99 453 m 297 810 q 247 818 268 810 q 199 843 226 826 q 155 867 175 858 q 110 875 135 875 q 55 860 82 875 q 14 811 28 844 l 4 811 q 150 988 17 988 q 200 979 179 988 q 249 954 221 971 q 292 931 272 939 q 338 922 313 922 q 392 938 365 922 q 433 986 418 953 l 443 986 q 401 852 438 894 q 297 810 364 810 z "},"ï":{"ha":461,"x_min":-14,"x_max":461,"o":"m 99 453 q 85 558 99 524 q 38 617 72 593 l 363 750 l 363 157 q 378 66 363 101 q 426 0 393 31 l 35 0 q 85 64 71 29 q 99 156 99 99 l 99 453 m 89 808 q 16 838 46 808 q -14 911 -14 867 q 16 985 -14 956 q 89 1014 46 1014 q 162 985 132 1014 q 192 911 192 956 q 162 838 192 867 q 89 808 132 808 m 358 808 q 285 838 315 808 q 256 911 256 867 q 285 985 256 956 q 358 1014 315 1014 q 431 985 401 1014 q 461 911 461 956 q 431 838 461 867 q 358 808 401 808 z "},"ī":{"ha":461,"x_min":3,"x_max":444,"o":"m 99 453 q 85 558 99 524 q 38 617 72 593 l 363 750 l 363 157 q 378 66 363 101 q 426 0 393 31 l 35 0 q 85 64 71 29 q 99 156 99 99 l 99 453 m 3 900 l 444 900 l 444 844 l 3 844 l 3 900 z "},"ĭ":{"ha":461,"x_min":35,"x_max":426,"o":"m 99 453 q 85 558 99 524 q 38 617 72 593 l 363 750 l 363 157 q 378 66 363 101 q 426 0 393 31 l 35 0 q 85 64 71 29 q 99 156 99 99 l 99 453 m 224 790 q 97 840 147 790 q 46 972 46 890 l 88 972 q 128 910 92 932 q 224 889 165 889 q 319 910 282 889 q 360 972 356 932 l 401 972 q 351 840 401 890 q 224 790 300 790 z "},"į":{"ha":461,"x_min":35,"x_max":426,"o":"m 224 794 q 140 828 174 794 q 106 911 106 863 q 140 994 106 960 q 224 1028 174 1028 q 308 994 274 1028 q 342 911 342 960 q 308 828 342 863 q 224 794 274 794 m 254 -178 q 344 -112 317 -178 l 351 -115 q 303 -247 343 -203 q 197 -292 264 -292 q 88 -258 129 -292 q 47 -165 47 -225 q 90 -65 47 -110 q 226 0 133 -21 l 35 0 q 85 64 71 29 q 99 156 99 99 l 99 453 q 85 558 99 524 q 38 617 72 593 l 363 750 l 363 157 q 378 66 363 101 q 426 0 393 31 l 264 0 q 172 -100 172 -31 q 194 -158 172 -137 q 254 -178 217 -178 z "},"ı":{"ha":461,"x_min":35,"x_max":426,"o":"m 99 453 q 85 558 99 524 q 38 617 72 593 l 363 750 l 363 157 q 378 66 363 101 q 426 0 393 31 l 35 0 q 85 64 71 29 q 99 156 99 99 l 99 453 z "},"ĳ":{"ha":461,"x_min":-133,"x_max":426,"o":"m 224 1067 q 122 1108 164 1067 q 81 1207 81 1149 q 122 1307 81 1265 q 224 1349 164 1349 q 325 1307 283 1349 q 367 1207 367 1265 q 325 1108 367 1149 q 224 1067 283 1067 m 35 0 l 43 7 l 35 7 q -87 43 -40 7 q -133 139 -133 79 q -87 236 -133 200 q 31 275 -42 272 q 56 153 39 199 q 94 101 72 107 q 99 156 99 126 l 99 453 q 85 558 99 524 q 38 617 72 593 l 101 643 l 101 801 q 99 833 101 814 q 85 868 88 856 q 33 913 69 892 l 85 935 q 134 1013 96 982 q 224 1043 172 1043 q 294 1025 261 1043 l 365 1056 l 365 921 q 367 901 367 915 q 365 882 367 889 l 365 454 q 363 386 365 431 l 363 157 q 378 66 363 101 q 426 0 393 31 l 35 0 z "},"ĵ":{"ha":429,"x_min":-139,"x_max":438,"o":"m 29 -299 q -92 -262 -46 -299 q -139 -167 -139 -226 q -93 -69 -139 -106 q 25 -31 -47 -33 q 52 -158 33 -111 q 94 -204 71 -204 q 129 -168 129 -204 q 124 -136 129 -151 q 118 -117 119 -121 q 102 -62 108 -90 q 96 10 96 -35 l 96 496 q 81 560 96 535 q 28 607 65 585 l 360 750 l 360 149 q 319 -87 360 14 q 204 -244 279 -189 q 29 -299 129 -299 m 179 972 l 257 972 l 438 799 l 360 799 l 218 889 l 76 799 l -1 799 l 179 972 z "},"ȷ":{"ha":429,"x_min":-139,"x_max":360,"o":"m 29 -299 q -92 -262 -46 -299 q -139 -167 -139 -226 q -93 -69 -139 -106 q 25 -31 -47 -33 q 52 -158 33 -111 q 94 -204 71 -204 q 129 -168 129 -204 q 124 -136 129 -151 q 118 -117 119 -121 q 102 -62 108 -90 q 96 10 96 -35 l 96 496 q 81 560 96 535 q 28 607 65 585 l 360 750 l 360 149 q 319 -87 360 14 q 204 -244 279 -189 q 29 -299 129 -299 z "},"ķ":{"ha":919,"x_min":28,"x_max":906,"o":"m 365 156 q 379 64 365 99 q 429 0 393 29 l 38 0 q 88 64 74 29 q 101 156 101 99 l 101 696 q 85 794 101 760 q 28 856 68 828 l 365 1014 l 365 156 m 815 122 q 900 0 860 43 l 554 0 l 374 365 l 529 529 q 602 613 586 590 q 618 657 618 636 q 585 729 618 700 l 906 729 q 708 585 769 651 l 621 489 l 815 122 m 436 -274 q 510 -218 510 -258 q 501 -194 510 -203 q 465 -179 492 -186 q 424 -156 438 -171 q 411 -118 411 -142 q 428 -73 411 -90 q 476 -56 446 -56 q 544 -87 515 -56 q 574 -161 574 -119 q 541 -247 574 -211 q 444 -299 508 -282 l 436 -274 z "},"ĺ":{"ha":457,"x_min":28,"x_max":485,"o":"m 215 1047 l 294 1194 l 485 1194 l 485 1183 l 243 1047 l 215 1047 m 38 0 q 88 64 74 29 q 101 156 101 99 l 101 696 q 85 794 101 760 q 28 856 68 828 l 365 1014 l 365 156 q 379 64 365 99 q 429 0 393 29 l 38 0 z "},"ľ":{"ha":568,"x_min":28,"x_max":599,"o":"m 38 0 q 88 64 74 29 q 101 156 101 99 l 101 696 q 85 794 101 760 q 28 856 68 828 l 365 1014 l 365 156 q 379 64 365 99 q 429 0 393 29 l 38 0 m 457 765 q 525 792 510 778 q 540 824 540 806 q 492 856 540 850 q 445 876 464 860 q 426 922 426 892 q 447 978 426 956 q 503 1000 467 1000 q 570 969 542 1000 q 599 881 599 938 q 572 800 599 835 q 464 747 544 765 l 457 765 z "},"ļ":{"ha":457,"x_min":28,"x_max":429,"o":"m 38 0 q 88 64 74 29 q 101 156 101 99 l 101 696 q 85 794 101 760 q 28 856 68 828 l 365 1014 l 365 156 q 379 64 365 99 q 429 0 393 29 l 38 0 m 174 -274 q 247 -218 247 -258 q 238 -194 247 -203 q 203 -179 229 -186 q 162 -156 175 -171 q 149 -118 149 -142 q 166 -73 149 -90 q 214 -56 183 -56 q 282 -87 253 -56 q 311 -161 311 -119 q 278 -247 311 -211 q 182 -299 246 -282 l 174 -274 z "},"ł":{"ha":457,"x_min":28,"x_max":431,"o":"m 365 606 l 365 156 q 379 64 365 99 q 429 0 393 29 l 38 0 q 88 64 74 29 q 101 156 101 99 l 101 375 l 36 318 l 36 358 l 101 415 l 101 696 q 85 794 101 760 q 28 856 68 828 l 365 1014 l 365 644 l 431 701 l 431 663 l 365 606 z "},"ŀ":{"ha":561,"x_min":28,"x_max":615,"o":"m 38 0 q 88 64 74 29 q 101 156 101 99 l 101 696 q 85 794 101 760 q 28 856 68 828 l 365 1014 l 365 156 q 379 64 365 99 q 429 0 393 29 l 38 0 m 499 371 q 414 406 449 371 q 379 489 379 440 q 414 572 379 538 q 499 607 449 607 q 581 572 547 607 q 615 489 615 538 q 581 406 615 440 q 499 371 547 371 z "},"ń":{"ha":861,"x_min":35,"x_max":826,"o":"m 463 0 q 498 65 488 29 q 508 156 508 100 l 508 517 q 432 613 508 613 q 363 586 392 613 l 363 156 q 372 65 363 96 q 408 0 381 33 l 35 0 q 85 64 71 29 q 99 156 99 99 l 99 451 q 85 559 99 524 q 35 619 71 594 l 356 750 l 356 636 q 438 718 382 686 q 557 750 493 750 q 716 691 660 750 q 772 525 772 632 l 772 156 q 785 65 772 101 q 826 0 797 29 l 463 0 m 385 799 l 472 972 l 676 972 l 676 965 l 450 799 l 385 799 z "},"ň":{"ha":861,"x_min":35,"x_max":826,"o":"m 463 0 q 498 65 488 29 q 508 156 508 100 l 508 517 q 432 613 508 613 q 363 586 392 613 l 363 156 q 372 65 363 96 q 408 0 381 33 l 35 0 q 85 64 71 29 q 99 156 99 99 l 99 451 q 85 559 99 524 q 35 619 71 594 l 356 750 l 356 636 q 438 718 382 686 q 557 750 493 750 q 716 691 660 750 q 772 525 772 632 l 772 156 q 785 65 772 101 q 826 0 797 29 l 463 0 m 200 972 l 278 972 l 419 882 l 561 972 l 639 972 l 458 799 l 381 799 l 200 972 z "},"ñ":{"ha":861,"x_min":35,"x_max":826,"o":"m 463 0 q 498 65 488 29 q 508 156 508 100 l 508 517 q 432 613 508 613 q 363 586 392 613 l 363 156 q 372 65 363 96 q 408 0 381 33 l 35 0 q 85 64 71 29 q 99 156 99 99 l 99 451 q 85 559 99 524 q 35 619 71 594 l 356 750 l 356 636 q 438 718 382 686 q 557 750 493 750 q 716 691 660 750 q 772 525 772 632 l 772 156 q 785 65 772 101 q 826 0 797 29 l 463 0 m 492 810 q 442 818 463 810 q 393 843 421 826 q 349 867 369 858 q 304 875 329 875 q 249 860 276 875 q 208 811 222 844 l 199 811 q 344 988 211 988 q 394 979 374 988 q 443 954 415 971 q 487 931 467 939 q 532 922 507 922 q 586 938 560 922 q 628 986 613 953 l 638 986 q 595 852 632 894 q 492 810 558 810 z "},"ņ":{"ha":861,"x_min":35,"x_max":826,"o":"m 463 0 q 498 65 488 29 q 508 156 508 100 l 508 517 q 432 613 508 613 q 363 586 392 613 l 363 156 q 372 65 363 96 q 408 0 381 33 l 35 0 q 85 64 71 29 q 99 156 99 99 l 99 451 q 85 559 99 524 q 35 619 71 594 l 356 750 l 356 636 q 438 718 382 686 q 557 750 493 750 q 716 691 660 750 q 772 525 772 632 l 772 156 q 785 65 772 101 q 826 0 797 29 l 463 0 m 378 -274 q 451 -218 451 -258 q 442 -194 451 -203 q 407 -179 433 -186 q 366 -156 379 -171 q 353 -118 353 -142 q 370 -73 353 -90 q 418 -56 388 -56 q 486 -87 457 -56 q 515 -161 515 -119 q 483 -247 515 -211 q 386 -299 450 -282 l 378 -274 z "},"ŉ":{"ha":861,"x_min":0,"x_max":826,"o":"m 31 765 q 99 792 83 778 q 114 824 114 806 q 65 856 114 850 q 19 876 38 860 q 0 922 0 892 q 20 978 0 956 q 76 1000 40 1000 q 144 969 115 1000 q 172 881 172 938 q 145 800 172 835 q 38 747 118 765 l 31 765 m 463 0 q 498 65 488 29 q 508 156 508 100 l 508 517 q 432 613 508 613 q 363 586 392 613 l 363 156 q 372 65 363 96 q 408 0 381 33 l 35 0 q 85 64 71 29 q 99 156 99 99 l 99 451 q 85 559 99 524 q 35 619 71 594 l 356 750 l 356 636 q 438 718 382 686 q 557 750 493 750 q 716 691 660 750 q 772 525 772 632 l 772 156 q 785 65 772 101 q 826 0 797 29 l 463 0 z "},"ò":{"ha":844,"x_min":35,"x_max":810,"o":"m 422 -21 q 219 27 307 -21 q 83 163 132 75 q 35 364 35 250 q 83 567 35 479 q 219 702 132 654 q 422 750 307 750 q 625 702 538 750 q 761 567 713 654 q 810 364 810 479 q 761 163 810 250 q 625 27 713 75 q 422 -21 538 -21 m 422 56 q 499 133 474 56 q 525 364 525 211 q 422 674 525 674 q 319 364 319 674 q 345 133 319 211 q 422 56 371 56 m 163 965 l 163 972 l 367 972 l 454 799 l 389 799 l 163 965 z "},"ó":{"ha":844,"x_min":35,"x_max":810,"o":"m 422 -21 q 219 27 307 -21 q 83 163 132 75 q 35 364 35 250 q 83 567 35 479 q 219 702 132 654 q 422 750 307 750 q 625 702 538 750 q 761 567 713 654 q 810 364 810 479 q 761 163 810 250 q 625 27 713 75 q 422 -21 538 -21 m 422 56 q 499 133 474 56 q 525 364 525 211 q 422 674 525 674 q 319 364 319 674 q 345 133 319 211 q 422 56 371 56 m 389 799 l 476 972 l 681 972 l 681 965 l 454 799 l 389 799 z "},"ô":{"ha":844,"x_min":35,"x_max":810,"o":"m 422 -21 q 219 27 307 -21 q 83 163 132 75 q 35 364 35 250 q 83 567 35 479 q 219 702 132 654 q 422 750 307 750 q 625 702 538 750 q 761 567 713 654 q 810 364 810 479 q 761 163 810 250 q 625 27 713 75 q 422 -21 538 -21 m 422 56 q 499 133 474 56 q 525 364 525 211 q 422 674 525 674 q 319 364 319 674 q 345 133 319 211 q 422 56 371 56 m 383 972 l 461 972 l 642 799 l 564 799 l 422 889 l 281 799 l 203 799 l 383 972 z "},"õ":{"ha":844,"x_min":35,"x_max":810,"o":"m 422 -21 q 219 27 307 -21 q 83 163 132 75 q 35 364 35 250 q 83 567 35 479 q 219 702 132 654 q 422 750 307 750 q 625 702 538 750 q 761 567 713 654 q 810 364 810 479 q 761 163 810 250 q 625 27 713 75 q 422 -21 538 -21 m 422 56 q 499 133 474 56 q 525 364 525 211 q 422 674 525 674 q 319 364 319 674 q 345 133 319 211 q 422 56 371 56 m 496 810 q 446 818 467 810 q 397 843 425 826 q 353 867 374 858 q 308 875 333 875 q 253 860 281 875 q 213 811 226 844 l 203 811 q 349 988 215 988 q 399 979 378 988 q 447 954 419 971 q 491 931 471 939 q 536 922 511 922 q 590 938 564 922 q 632 986 617 953 l 642 986 q 599 852 636 894 q 496 810 563 810 z "},"ö":{"ha":844,"x_min":35,"x_max":810,"o":"m 422 -21 q 219 27 307 -21 q 83 163 132 75 q 35 364 35 250 q 83 567 35 479 q 219 702 132 654 q 422 750 307 750 q 625 702 538 750 q 761 567 713 654 q 810 364 810 479 q 761 163 810 250 q 625 27 713 75 q 422 -21 538 -21 m 422 56 q 499 133 474 56 q 525 364 525 211 q 422 674 525 674 q 319 364 319 674 q 345 133 319 211 q 422 56 371 56 m 288 808 q 215 838 244 808 q 185 911 185 867 q 215 985 185 956 q 288 1014 244 1014 q 360 985 331 1014 q 390 911 390 956 q 360 838 390 867 q 288 808 331 808 m 557 808 q 484 838 514 808 q 454 911 454 867 q 484 985 454 956 q 557 1014 514 1014 q 630 985 600 1014 q 660 911 660 956 q 630 838 660 867 q 557 808 600 808 z "},"ō":{"ha":844,"x_min":35,"x_max":810,"o":"m 422 -21 q 219 27 307 -21 q 83 163 132 75 q 35 364 35 250 q 83 567 35 479 q 219 702 132 654 q 422 750 307 750 q 625 702 538 750 q 761 567 713 654 q 810 364 810 479 q 761 163 810 250 q 625 27 713 75 q 422 -21 538 -21 m 422 56 q 499 133 474 56 q 525 364 525 211 q 422 674 525 674 q 319 364 319 674 q 345 133 319 211 q 422 56 371 56 m 201 900 l 643 900 l 643 844 l 201 844 l 201 900 z "},"ŏ":{"ha":844,"x_min":35,"x_max":810,"o":"m 422 -21 q 219 27 307 -21 q 83 163 132 75 q 35 364 35 250 q 83 567 35 479 q 219 702 132 654 q 422 750 307 750 q 625 702 538 750 q 761 567 713 654 q 810 364 810 479 q 761 163 810 250 q 625 27 713 75 q 422 -21 538 -21 m 422 56 q 499 133 474 56 q 525 364 525 211 q 422 674 525 674 q 319 364 319 674 q 345 133 319 211 q 422 56 371 56 m 422 790 q 295 840 346 790 q 244 972 244 890 l 286 972 q 327 910 290 932 q 422 889 364 889 q 517 910 481 889 q 558 972 554 932 l 600 972 q 549 840 600 890 q 422 790 499 790 z "},"ő":{"ha":844,"x_min":35,"x_max":810,"o":"m 422 -21 q 219 27 307 -21 q 83 163 132 75 q 35 364 35 250 q 83 567 35 479 q 219 702 132 654 q 422 750 307 750 q 625 702 538 750 q 761 567 713 654 q 810 364 810 479 q 761 163 810 250 q 625 27 713 75 q 422 -21 538 -21 m 422 56 q 499 133 474 56 q 525 364 525 211 q 422 674 525 674 q 319 364 319 674 q 345 133 319 211 q 422 56 371 56 m 401 972 l 538 972 l 538 961 l 329 788 l 319 788 l 401 972 m 610 972 l 747 972 l 747 961 l 524 788 l 514 788 l 610 972 z "},"ø":{"ha":844,"x_min":35,"x_max":810,"o":"m 661 679 q 771 547 732 629 q 810 364 810 465 q 761 163 810 250 q 625 27 713 75 q 422 -21 538 -21 q 226 24 311 -21 l 193 -28 l 144 -28 l 192 44 q 76 176 117 94 q 35 364 35 258 q 83 567 35 479 q 219 702 132 654 q 422 750 307 750 q 626 701 540 750 l 668 764 l 718 764 l 661 679 m 319 364 q 325 244 319 290 l 514 531 q 422 674 490 674 q 319 364 319 674 m 422 56 q 499 133 474 56 q 525 364 525 211 q 521 468 525 421 l 333 183 q 422 56 357 56 z "},"ǿ":{"ha":844,"x_min":35,"x_max":810,"o":"m 661 679 q 771 547 732 629 q 810 364 810 465 q 761 163 810 250 q 625 27 713 75 q 422 -21 538 -21 q 226 24 311 -21 l 193 -28 l 144 -28 l 192 44 q 76 176 117 94 q 35 364 35 258 q 83 567 35 479 q 219 702 132 654 q 422 750 307 750 q 626 701 540 750 l 668 764 l 718 764 l 661 679 m 319 364 q 325 244 319 290 l 514 531 q 422 674 490 674 q 319 364 319 674 m 422 56 q 499 133 474 56 q 525 364 525 211 q 521 468 525 421 l 333 183 q 422 56 357 56 m 368 799 l 456 972 l 660 972 l 660 965 l 433 799 l 368 799 z "},"œ":{"ha":1239,"x_min":35,"x_max":1211,"o":"m 783 410 q 870 258 803 311 q 1043 206 938 206 q 1134 216 1096 206 q 1211 250 1172 226 q 1122 51 1199 124 q 925 -21 1046 -21 q 770 7 839 -21 q 654 88 701 35 q 544 6 610 32 q 401 -21 479 -21 q 213 28 296 -21 q 82 165 129 76 q 35 365 35 253 q 82 565 35 478 q 213 701 129 653 q 401 750 296 750 q 546 722 481 750 q 656 632 611 693 q 765 719 701 689 q 907 750 829 750 q 1131 659 1051 750 q 1211 410 1211 568 l 783 410 m 401 35 q 480 110 456 35 q 504 365 504 186 q 480 620 504 544 q 401 696 456 696 q 333 620 354 696 q 313 365 313 544 q 333 110 313 186 q 401 35 354 35 m 876 676 q 801 628 828 676 q 775 492 775 579 l 775 488 l 967 488 q 946 633 967 589 q 876 676 925 676 z "},"ŕ":{"ha":618,"x_min":35,"x_max":618,"o":"m 501 750 q 585 718 553 750 q 618 632 618 686 q 586 530 618 569 q 506 490 554 490 q 480 531 500 517 q 433 544 460 544 q 396 538 414 544 q 367 522 378 532 l 367 160 q 390 65 367 101 q 467 0 414 29 l 39 0 q 89 64 75 29 q 103 156 103 99 l 103 453 q 88 561 101 525 q 35 626 75 597 l 342 750 l 342 560 q 402 703 365 657 q 501 750 439 750 m 268 799 l 356 972 l 560 972 l 560 965 l 333 799 l 268 799 z "},"ř":{"ha":618,"x_min":35,"x_max":618,"o":"m 501 750 q 585 718 553 750 q 618 632 618 686 q 586 530 618 569 q 506 490 554 490 q 480 531 500 517 q 433 544 460 544 q 396 538 414 544 q 367 522 378 532 l 367 160 q 390 65 367 101 q 467 0 414 29 l 39 0 q 89 64 75 29 q 103 156 103 99 l 103 453 q 88 561 101 525 q 35 626 75 597 l 342 750 l 342 560 q 402 703 365 657 q 501 750 439 750 m 83 972 l 161 972 l 303 882 l 444 972 l 522 972 l 342 799 l 264 799 l 83 972 z "},"ŗ":{"ha":618,"x_min":35,"x_max":618,"o":"m 501 750 q 585 718 553 750 q 618 632 618 686 q 586 530 618 569 q 506 490 554 490 q 480 531 500 517 q 433 544 460 544 q 396 538 414 544 q 367 522 378 532 l 367 160 q 390 65 367 101 q 467 0 414 29 l 39 0 q 89 64 75 29 q 103 156 103 99 l 103 453 q 88 561 101 525 q 35 626 75 597 l 342 750 l 342 560 q 402 703 365 657 q 501 750 439 750 m 261 -274 q 335 -218 335 -258 q 326 -194 335 -203 q 290 -179 317 -186 q 249 -156 263 -171 q 236 -118 236 -142 q 253 -73 236 -90 q 301 -56 271 -56 q 369 -87 340 -56 q 399 -161 399 -119 q 366 -247 399 -211 q 269 -299 333 -282 l 261 -274 z "},"ś":{"ha":654,"x_min":42,"x_max":626,"o":"m 331 -21 q 61 40 192 -21 l 61 268 q 210 131 126 182 q 367 79 294 79 q 415 94 397 79 q 432 138 432 110 q 416 174 432 160 q 360 204 400 189 l 219 256 q 85 348 129 289 q 42 496 42 407 q 79 627 42 569 q 183 717 117 685 q 335 750 250 750 q 474 732 404 750 q 582 686 543 714 l 582 483 q 455 607 535 557 q 306 657 375 657 q 239 610 239 657 q 253 574 239 588 q 308 543 268 560 l 447 486 q 585 390 543 447 q 626 250 626 333 q 590 108 626 169 q 485 13 553 47 q 331 -21 418 -21 m 301 799 l 389 972 l 593 972 l 593 965 l 367 799 l 301 799 z "},"ŝ":{"ha":654,"x_min":42,"x_max":626,"o":"m 331 -21 q 61 40 192 -21 l 61 268 q 210 131 126 182 q 367 79 294 79 q 415 94 397 79 q 432 138 432 110 q 416 174 432 160 q 360 204 400 189 l 219 256 q 85 348 129 289 q 42 496 42 407 q 79 627 42 569 q 183 717 117 685 q 335 750 250 750 q 474 732 404 750 q 582 686 543 714 l 582 483 q 455 607 535 557 q 306 657 375 657 q 239 610 239 657 q 253 574 239 588 q 308 543 268 560 l 447 486 q 585 390 543 447 q 626 250 626 333 q 590 108 626 169 q 485 13 553 47 q 331 -21 418 -21 m 296 972 l 374 972 l 554 799 l 476 799 l 335 889 l 193 799 l 115 799 l 296 972 z "},"š":{"ha":654,"x_min":42,"x_max":626,"o":"m 331 -21 q 61 40 192 -21 l 61 268 q 210 131 126 182 q 367 79 294 79 q 415 94 397 79 q 432 138 432 110 q 416 174 432 160 q 360 204 400 189 l 219 256 q 85 348 129 289 q 42 496 42 407 q 79 627 42 569 q 183 717 117 685 q 335 750 250 750 q 474 732 404 750 q 582 686 543 714 l 582 483 q 455 607 535 557 q 306 657 375 657 q 239 610 239 657 q 253 574 239 588 q 308 543 268 560 l 447 486 q 585 390 543 447 q 626 250 626 333 q 590 108 626 169 q 485 13 553 47 q 331 -21 418 -21 m 117 972 l 194 972 l 336 882 l 478 972 l 556 972 l 375 799 l 297 799 l 117 972 z "},"ş":{"ha":654,"x_min":42,"x_max":626,"o":"m 325 -21 l 290 -76 q 339 -65 308 -65 q 418 -94 386 -65 q 450 -174 450 -124 q 414 -264 450 -229 q 322 -299 378 -299 q 246 -273 275 -299 q 207 -203 217 -247 l 222 -196 q 288 -235 242 -235 q 329 -217 314 -235 q 344 -171 344 -200 q 331 -131 344 -146 q 294 -115 317 -115 q 281 -117 288 -115 q 264 -124 274 -118 l 242 -112 l 297 -19 q 61 40 174 -12 l 61 268 q 210 131 126 182 q 367 79 294 79 q 415 94 397 79 q 432 138 432 110 q 416 174 432 160 q 360 204 400 189 l 219 256 q 85 348 129 289 q 42 496 42 407 q 79 627 42 569 q 183 717 117 685 q 335 750 250 750 q 474 732 404 750 q 582 686 543 714 l 582 483 q 455 607 535 557 q 306 657 375 657 q 239 610 239 657 q 253 574 239 588 q 308 543 268 560 l 447 486 q 585 390 543 447 q 626 250 626 333 q 590 108 626 169 q 485 13 553 47 q 331 -21 418 -21 l 325 -21 z "},"ș":{"ha":654,"x_min":42,"x_max":626,"o":"m 331 -21 q 61 40 192 -21 l 61 268 q 210 131 126 182 q 367 79 294 79 q 415 94 397 79 q 432 138 432 110 q 416 174 432 160 q 360 204 400 189 l 219 256 q 85 348 129 289 q 42 496 42 407 q 79 627 42 569 q 183 717 117 685 q 335 750 250 750 q 474 732 404 750 q 582 686 543 714 l 582 483 q 455 607 535 557 q 306 657 375 657 q 239 610 239 657 q 253 574 239 588 q 308 543 268 560 l 447 486 q 585 390 543 447 q 626 250 626 333 q 590 108 626 169 q 485 13 553 47 q 331 -21 418 -21 m 285 -274 q 358 -218 358 -258 q 349 -194 358 -203 q 314 -179 340 -186 q 273 -156 286 -171 q 260 -118 260 -142 q 277 -73 260 -90 q 325 -56 294 -56 q 393 -87 364 -56 q 422 -161 422 -119 q 390 -247 422 -211 q 293 -299 357 -282 l 285 -274 z "},"ť":{"ha":525,"x_min":14,"x_max":561,"o":"m 465 1000 q 533 969 504 1000 q 561 881 561 938 q 534 800 561 835 q 426 747 507 765 l 419 765 q 488 792 472 778 q 503 824 503 806 q 454 856 503 850 q 408 876 426 860 q 389 922 389 892 q 409 978 389 956 q 465 1000 429 1000 m 440 135 q 525 169 493 135 q 453 26 510 74 q 294 -21 396 -21 q 141 31 200 -21 q 82 185 82 82 l 82 660 l 14 660 l 346 940 l 346 729 l 492 729 l 492 660 l 346 660 l 346 242 q 371 163 346 192 q 440 135 396 135 z "},"ț":{"ha":525,"x_min":14,"x_max":525,"o":"m 440 135 q 525 169 493 135 q 453 26 510 74 q 294 -21 396 -21 q 141 31 200 -21 q 82 185 82 82 l 82 660 l 14 660 l 346 940 l 346 729 l 492 729 l 492 660 l 346 660 l 346 242 q 371 163 346 192 q 440 135 396 135 m 228 -274 q 301 -218 301 -258 q 292 -194 301 -203 q 257 -179 283 -186 q 216 -156 229 -171 q 203 -118 203 -142 q 220 -73 203 -90 q 268 -56 238 -56 q 336 -87 307 -56 q 365 -161 365 -119 q 333 -247 365 -211 q 236 -299 300 -282 l 228 -274 z "},"ŧ":{"ha":525,"x_min":14,"x_max":525,"o":"m 440 135 q 525 169 493 135 q 453 26 510 74 q 294 -21 396 -21 q 141 31 200 -21 q 82 185 82 82 l 82 489 l 22 489 l 22 517 l 82 517 l 82 660 l 14 660 l 346 940 l 346 729 l 492 729 l 492 660 l 346 660 l 346 517 l 474 517 l 474 489 l 346 489 l 346 242 q 371 163 346 192 q 440 135 396 135 z "},"ţ":{"ha":525,"x_min":14,"x_max":525,"o":"m 294 -21 q 269 -19 278 -21 l 233 -76 q 282 -65 251 -65 q 361 -94 329 -65 q 393 -174 393 -124 q 357 -264 393 -229 q 265 -299 321 -299 q 189 -273 218 -299 q 150 -203 160 -247 l 165 -196 q 231 -235 185 -235 q 272 -217 257 -235 q 288 -171 288 -200 q 274 -131 288 -146 q 238 -115 260 -115 q 224 -117 231 -115 q 207 -124 217 -118 l 185 -112 l 243 -17 q 126 47 169 -3 q 82 185 82 97 l 82 660 l 14 660 l 346 940 l 346 729 l 492 729 l 492 660 l 346 660 l 346 242 q 371 163 346 192 q 440 135 396 135 q 525 169 493 135 q 453 26 510 74 q 294 -21 396 -21 z "},"ù":{"ha":825,"x_min":21,"x_max":790,"o":"m 472 -8 l 472 82 q 390 8 443 36 q 278 -21 336 -21 q 137 32 189 -21 q 85 200 85 85 l 85 440 q 71 550 85 513 q 21 615 57 588 l 349 750 l 349 197 q 411 117 349 117 q 472 144 444 117 l 472 450 q 459 554 472 521 q 408 615 446 588 l 736 750 l 736 140 q 790 22 736 63 l 472 -8 m 156 965 l 156 972 l 360 972 l 447 799 l 382 799 l 156 965 z "},"ú":{"ha":825,"x_min":21,"x_max":790,"o":"m 472 -8 l 472 82 q 390 8 443 36 q 278 -21 336 -21 q 137 32 189 -21 q 85 200 85 85 l 85 440 q 71 550 85 513 q 21 615 57 588 l 349 750 l 349 197 q 411 117 349 117 q 472 144 444 117 l 472 450 q 459 554 472 521 q 408 615 446 588 l 736 750 l 736 140 q 790 22 736 63 l 472 -8 m 382 799 l 469 972 l 674 972 l 674 965 l 447 799 l 382 799 z "},"û":{"ha":825,"x_min":21,"x_max":790,"o":"m 472 -8 l 472 82 q 390 8 443 36 q 278 -21 336 -21 q 137 32 189 -21 q 85 200 85 85 l 85 440 q 71 550 85 513 q 21 615 57 588 l 349 750 l 349 197 q 411 117 349 117 q 472 144 444 117 l 472 450 q 459 554 472 521 q 408 615 446 588 l 736 750 l 736 140 q 790 22 736 63 l 472 -8 m 376 972 l 454 972 l 635 799 l 557 799 l 415 889 l 274 799 l 196 799 l 376 972 z "},"ũ":{"ha":825,"x_min":21,"x_max":790,"o":"m 472 -8 l 472 82 q 390 8 443 36 q 278 -21 336 -21 q 137 32 189 -21 q 85 200 85 85 l 85 440 q 71 550 85 513 q 21 615 57 588 l 349 750 l 349 197 q 411 117 349 117 q 472 144 444 117 l 472 450 q 459 554 472 521 q 408 615 446 588 l 736 750 l 736 140 q 790 22 736 63 l 472 -8 m 489 810 q 439 818 460 810 q 390 843 418 826 q 347 867 367 858 q 301 875 326 875 q 247 860 274 875 q 206 811 219 844 l 196 811 q 342 988 208 988 q 392 979 371 988 q 440 954 413 971 q 484 931 464 939 q 529 922 504 922 q 583 938 557 922 q 625 986 610 953 l 635 986 q 592 852 629 894 q 489 810 556 810 z "},"ü":{"ha":825,"x_min":21,"x_max":790,"o":"m 472 -8 l 472 82 q 390 8 443 36 q 278 -21 336 -21 q 137 32 189 -21 q 85 200 85 85 l 85 440 q 71 550 85 513 q 21 615 57 588 l 349 750 l 349 197 q 411 117 349 117 q 472 144 444 117 l 472 450 q 459 554 472 521 q 408 615 446 588 l 736 750 l 736 140 q 790 22 736 63 l 472 -8 m 281 808 q 208 838 238 808 q 178 911 178 867 q 208 985 178 956 q 281 1014 238 1014 q 353 985 324 1014 q 383 911 383 956 q 353 838 383 867 q 281 808 324 808 m 550 808 q 477 838 507 808 q 447 911 447 867 q 477 985 447 956 q 550 1014 507 1014 q 623 985 593 1014 q 653 911 653 956 q 623 838 653 867 q 550 808 593 808 z "},"ū":{"ha":825,"x_min":21,"x_max":790,"o":"m 472 -8 l 472 82 q 390 8 443 36 q 278 -21 336 -21 q 137 32 189 -21 q 85 200 85 85 l 85 440 q 71 550 85 513 q 21 615 57 588 l 349 750 l 349 197 q 411 117 349 117 q 472 144 444 117 l 472 450 q 459 554 472 521 q 408 615 446 588 l 736 750 l 736 140 q 790 22 736 63 l 472 -8 m 194 900 l 636 900 l 636 844 l 194 844 l 194 900 z "},"ŭ":{"ha":825,"x_min":21,"x_max":790,"o":"m 472 -8 l 472 82 q 390 8 443 36 q 278 -21 336 -21 q 137 32 189 -21 q 85 200 85 85 l 85 440 q 71 550 85 513 q 21 615 57 588 l 349 750 l 349 197 q 411 117 349 117 q 472 144 444 117 l 472 450 q 459 554 472 521 q 408 615 446 588 l 736 750 l 736 140 q 790 22 736 63 l 472 -8 m 415 790 q 288 840 339 790 q 238 972 238 890 l 279 972 q 320 910 283 932 q 415 889 357 889 q 510 910 474 889 q 551 972 547 932 l 593 972 q 542 840 593 890 q 415 790 492 790 z "},"ů":{"ha":825,"x_min":21,"x_max":790,"o":"m 472 -8 l 472 82 q 390 8 443 36 q 278 -21 336 -21 q 137 32 189 -21 q 85 200 85 85 l 85 440 q 71 550 85 513 q 21 615 57 588 l 349 750 l 349 197 q 411 117 349 117 q 472 144 444 117 l 472 450 q 459 554 472 521 q 408 615 446 588 l 736 750 l 736 140 q 790 22 736 63 l 472 -8 m 415 783 q 319 819 357 783 q 282 913 282 856 q 319 1006 282 969 q 415 1042 357 1042 q 511 1006 474 1042 q 549 913 549 969 q 511 819 549 856 q 415 783 474 783 m 415 821 q 482 846 457 821 q 507 913 507 871 q 482 979 507 954 q 415 1004 457 1004 q 349 979 374 1004 q 324 913 324 954 q 349 846 324 871 q 415 821 374 821 z "},"ű":{"ha":825,"x_min":21,"x_max":790,"o":"m 472 -8 l 472 82 q 390 8 443 36 q 278 -21 336 -21 q 137 32 189 -21 q 85 200 85 85 l 85 440 q 71 550 85 513 q 21 615 57 588 l 349 750 l 349 197 q 411 117 349 117 q 472 144 444 117 l 472 450 q 459 554 472 521 q 408 615 446 588 l 736 750 l 736 140 q 790 22 736 63 l 472 -8 m 394 972 l 531 972 l 531 961 l 322 788 l 313 788 l 394 972 m 603 972 l 740 972 l 740 961 l 517 788 l 507 788 l 603 972 z "},"ų":{"ha":825,"x_min":21,"x_max":790,"o":"m 504 -178 q 594 -112 567 -178 l 601 -115 q 553 -247 593 -203 q 447 -292 514 -292 q 338 -258 379 -292 q 297 -165 297 -225 q 340 -66 297 -110 q 472 -1 382 -22 l 472 82 q 390 8 443 36 q 278 -21 336 -21 q 137 32 189 -21 q 85 200 85 85 l 85 440 q 71 550 85 513 q 21 615 57 588 l 349 750 l 349 197 q 411 117 349 117 q 472 144 444 117 l 472 450 q 459 554 472 521 q 408 615 446 588 l 736 750 l 736 140 q 790 22 736 63 l 499 -6 q 422 -100 422 -37 q 444 -158 422 -137 q 504 -178 467 -178 z "},"ẁ":{"ha":1150,"x_min":0,"x_max":1150,"o":"m 1150 729 q 1120 688 1132 710 q 1089 619 1108 665 l 824 -7 l 801 -7 l 576 485 l 363 -7 l 342 -7 l 44 654 q 23 697 32 682 q 0 729 14 711 l 410 729 q 358 649 358 701 q 369 597 358 624 l 449 400 l 529 589 l 499 654 q 454 729 478 700 l 864 729 q 813 649 813 701 q 824 597 813 624 l 904 400 l 983 586 q 999 651 999 621 q 951 729 999 703 l 1150 729 m 372 965 l 372 972 l 576 972 l 664 799 l 599 799 l 372 965 z "},"ẃ":{"ha":1150,"x_min":0,"x_max":1150,"o":"m 1150 729 q 1120 688 1132 710 q 1089 619 1108 665 l 824 -7 l 801 -7 l 576 485 l 363 -7 l 342 -7 l 44 654 q 23 697 32 682 q 0 729 14 711 l 410 729 q 358 649 358 701 q 369 597 358 624 l 449 400 l 529 589 l 499 654 q 454 729 478 700 l 864 729 q 813 649 813 701 q 824 597 813 624 l 904 400 l 983 586 q 999 651 999 621 q 951 729 999 703 l 1150 729 m 599 799 l 686 972 l 890 972 l 890 965 l 664 799 l 599 799 z "},"ŵ":{"ha":1150,"x_min":0,"x_max":1150,"o":"m 1150 729 q 1120 688 1132 710 q 1089 619 1108 665 l 824 -7 l 801 -7 l 576 485 l 363 -7 l 342 -7 l 44 654 q 23 697 32 682 q 0 729 14 711 l 410 729 q 358 649 358 701 q 369 597 358 624 l 449 400 l 529 589 l 499 654 q 454 729 478 700 l 864 729 q 813 649 813 701 q 824 597 813 624 l 904 400 l 983 586 q 999 651 999 621 q 951 729 999 703 l 1150 729 m 593 972 l 671 972 l 851 799 l 774 799 l 632 889 l 490 799 l 413 799 l 593 972 z "},"ẅ":{"ha":1150,"x_min":0,"x_max":1150,"o":"m 1150 729 q 1120 688 1132 710 q 1089 619 1108 665 l 824 -7 l 801 -7 l 576 485 l 363 -7 l 342 -7 l 44 654 q 23 697 32 682 q 0 729 14 711 l 410 729 q 358 649 358 701 q 369 597 358 624 l 449 400 l 529 589 l 499 654 q 454 729 478 700 l 864 729 q 813 649 813 701 q 824 597 813 624 l 904 400 l 983 586 q 999 651 999 621 q 951 729 999 703 l 1150 729 m 497 808 q 424 838 454 808 q 394 911 394 867 q 424 985 394 956 q 497 1014 454 1014 q 570 985 540 1014 q 600 911 600 956 q 570 838 600 867 q 497 808 540 808 m 767 808 q 694 838 724 808 q 664 911 664 867 q 694 985 664 956 q 767 1014 724 1014 q 840 985 810 1014 q 869 911 869 956 q 840 838 869 867 q 767 808 810 808 z "},"ỳ":{"ha":775,"x_min":0,"x_max":775,"o":"m 775 729 q 732 678 747 703 q 696 597 717 653 l 446 -56 q 338 -244 394 -190 q 193 -299 282 -299 q 78 -261 121 -299 q 35 -161 35 -224 q 69 -67 35 -106 q 160 -22 104 -29 q 199 -116 174 -87 q 268 -144 225 -144 q 324 -121 304 -144 q 344 -54 344 -97 q 325 35 344 -21 l 69 614 q 0 729 32 700 l 440 729 q 401 686 415 711 q 388 635 388 661 q 406 551 388 603 l 493 315 l 583 557 q 597 626 597 590 q 540 729 597 689 l 775 729 m 219 965 l 219 972 l 424 972 l 511 799 l 446 799 l 219 965 z "},"ý":{"ha":775,"x_min":0,"x_max":775,"o":"m 775 729 q 732 678 747 703 q 696 597 717 653 l 446 -56 q 338 -244 394 -190 q 193 -299 282 -299 q 78 -261 121 -299 q 35 -161 35 -224 q 69 -67 35 -106 q 160 -22 104 -29 q 199 -116 174 -87 q 268 -144 225 -144 q 324 -121 304 -144 q 344 -54 344 -97 q 325 35 344 -21 l 69 614 q 0 729 32 700 l 440 729 q 401 686 415 711 q 388 635 388 661 q 406 551 388 603 l 493 315 l 583 557 q 597 626 597 590 q 540 729 597 689 l 775 729 m 446 799 l 533 972 l 738 972 l 738 965 l 511 799 l 446 799 z "},"ŷ":{"ha":775,"x_min":0,"x_max":775,"o":"m 775 729 q 732 678 747 703 q 696 597 717 653 l 446 -56 q 338 -244 394 -190 q 193 -299 282 -299 q 78 -261 121 -299 q 35 -161 35 -224 q 69 -67 35 -106 q 160 -22 104 -29 q 199 -116 174 -87 q 268 -144 225 -144 q 324 -121 304 -144 q 344 -54 344 -97 q 325 35 344 -21 l 69 614 q 0 729 32 700 l 440 729 q 401 686 415 711 q 388 635 388 661 q 406 551 388 603 l 493 315 l 583 557 q 597 626 597 590 q 540 729 597 689 l 775 729 m 440 972 l 518 972 l 699 799 l 621 799 l 479 889 l 338 799 l 260 799 l 440 972 z "},"ÿ":{"ha":775,"x_min":0,"x_max":775,"o":"m 775 729 q 732 678 747 703 q 696 597 717 653 l 446 -56 q 338 -244 394 -190 q 193 -299 282 -299 q 78 -261 121 -299 q 35 -161 35 -224 q 69 -67 35 -106 q 160 -22 104 -29 q 199 -116 174 -87 q 268 -144 225 -144 q 324 -121 304 -144 q 344 -54 344 -97 q 325 35 344 -21 l 69 614 q 0 729 32 700 l 440 729 q 401 686 415 711 q 388 635 388 661 q 406 551 388 603 l 493 315 l 583 557 q 597 626 597 590 q 540 729 597 689 l 775 729 m 344 808 q 272 838 301 808 q 242 911 242 867 q 272 985 242 956 q 344 1014 301 1014 q 417 985 388 1014 q 447 911 447 956 q 417 838 447 867 q 344 808 388 808 m 614 808 q 541 838 571 808 q 511 911 511 867 q 541 985 511 956 q 614 1014 571 1014 q 687 985 657 1014 q 717 911 717 956 q 687 838 717 867 q 614 808 657 808 z "},"ź":{"ha":743,"x_min":35,"x_max":715,"o":"m 382 658 q 227 599 301 658 q 71 418 153 539 l 113 729 l 715 729 l 371 65 q 488 101 425 65 q 610 197 551 136 q 707 333 668 258 l 686 0 l 35 0 l 382 658 m 372 799 l 460 972 l 664 972 l 664 965 l 438 799 l 372 799 z "},"ž":{"ha":743,"x_min":35,"x_max":715,"o":"m 382 658 q 227 599 301 658 q 71 418 153 539 l 113 729 l 715 729 l 371 65 q 488 101 425 65 q 610 197 551 136 q 707 333 668 258 l 686 0 l 35 0 l 382 658 m 188 972 l 265 972 l 407 882 l 549 972 l 626 972 l 446 799 l 368 799 l 188 972 z "},"ż":{"ha":743,"x_min":35,"x_max":715,"o":"m 382 658 q 227 599 301 658 q 71 418 153 539 l 113 729 l 715 729 l 371 65 q 488 101 425 65 q 610 197 551 136 q 707 333 668 258 l 686 0 l 35 0 l 382 658 m 406 794 q 322 828 356 794 q 288 911 288 863 q 322 994 288 960 q 406 1028 356 1028 q 490 994 456 1028 q 524 911 524 960 q 490 828 524 863 q 406 794 456 794 z "},"ß":{"ha":867,"x_min":28,"x_max":832,"o":"m 540 -17 q 450 -10 485 -17 q 389 15 415 -3 l 399 29 q 444 19 418 19 q 523 75 492 19 q 554 256 554 131 q 536 390 554 335 q 488 474 518 446 q 424 501 458 501 l 407 501 l 407 531 l 424 531 q 476 564 451 531 q 517 652 501 597 q 532 765 532 707 q 508 914 532 863 q 439 965 483 965 q 360 847 360 965 l 360 0 l 28 0 l 28 7 q 96 111 96 36 l 96 579 q 199 906 96 813 q 449 1000 303 1000 q 712 930 632 1000 q 792 760 792 860 q 724 597 792 660 q 553 528 657 535 l 474 524 l 474 515 l 549 513 q 759 436 686 506 q 832 261 832 367 q 797 122 832 186 q 696 21 763 58 q 540 -17 629 -17 z "},"&":{"ha":1093,"x_min":49,"x_max":1093,"o":"m 711 0 l 588 153 q 489 20 553 64 q 329 -24 425 -24 q 126 52 203 -24 q 49 251 49 128 q 275 542 49 463 q 210 658 226 610 q 194 763 194 706 q 233 885 194 831 q 341 969 271 939 q 506 1000 411 1000 q 756 954 643 1000 l 756 769 q 549 914 650 914 q 474 890 500 914 q 449 831 449 865 q 464 776 449 807 q 522 692 479 746 l 929 193 l 954 161 q 1006 97 964 149 q 1093 0 1049 44 l 711 0 m 435 194 q 533 218 499 194 l 324 478 q 265 344 265 436 q 314 238 265 282 q 435 194 363 194 z "},"`":{"ha":833,"x_min":69,"x_max":361,"o":"m 69 965 l 69 972 l 274 972 l 361 799 l 296 799 l 69 965 z "},"´":{"ha":833,"x_min":69,"x_max":361,"o":"m 69 799 l 157 972 l 361 972 l 361 965 l 135 799 l 69 799 z "},"ˆ":{"ha":833,"x_min":69,"x_max":508,"o":"m 250 972 l 328 972 l 508 799 l 431 799 l 289 889 l 147 799 l 69 799 l 250 972 z "},"˜":{"ha":833,"x_min":69,"x_max":508,"o":"m 363 810 q 313 818 333 810 q 264 843 292 826 q 220 867 240 858 q 175 875 200 875 q 120 860 147 875 q 79 811 93 844 l 69 811 q 215 988 82 988 q 265 979 244 988 q 314 954 286 971 q 358 931 338 939 q 403 922 378 922 q 457 938 431 922 q 499 986 483 953 l 508 986 q 466 852 503 894 q 363 810 429 810 z "},"ˇ":{"ha":833,"x_min":69,"x_max":508,"o":"m 69 972 l 147 972 l 289 882 l 431 972 l 508 972 l 328 799 l 250 799 l 69 972 z "},"¨":{"ha":833,"x_min":69,"x_max":544,"o":"m 172 808 q 99 838 129 808 q 69 911 69 867 q 99 985 69 956 q 172 1014 129 1014 q 245 985 215 1014 q 275 911 275 956 q 245 838 275 867 q 172 808 215 808 m 442 808 q 369 838 399 808 q 339 911 339 867 q 369 985 339 956 q 442 1014 399 1014 q 515 985 485 1014 q 544 911 544 956 q 515 838 544 867 q 442 808 485 808 z "},"¯":{"ha":833,"x_min":69,"x_max":511,"o":"m 69 900 l 511 900 l 511 844 l 69 844 l 69 900 z "},"˘":{"ha":833,"x_min":69,"x_max":425,"o":"m 247 790 q 120 840 171 790 q 69 972 69 890 l 111 972 q 152 910 115 932 q 247 889 189 889 q 342 910 306 889 q 383 972 379 932 l 425 972 q 374 840 425 890 q 247 790 324 790 z "},"˚":{"ha":833,"x_min":69,"x_max":336,"o":"m 203 783 q 107 819 144 783 q 69 913 69 856 q 107 1006 69 969 q 203 1042 144 1042 q 299 1006 261 1042 q 336 913 336 969 q 299 819 336 856 q 203 783 261 783 m 203 821 q 269 846 244 821 q 294 913 294 871 q 269 979 294 954 q 203 1004 244 1004 q 136 979 161 1004 q 111 913 111 954 q 136 846 111 871 q 203 821 161 821 z "},"˝":{"ha":833,"x_min":69,"x_max":497,"o":"m 151 972 l 288 972 l 288 961 l 79 788 l 69 788 l 151 972 m 360 972 l 497 972 l 497 961 l 274 788 l 264 788 l 360 972 z "},"˙":{"ha":833,"x_min":69,"x_max":306,"o":"m 188 794 q 103 828 138 794 q 69 911 69 863 q 103 994 69 960 q 188 1028 138 1028 q 272 994 238 1028 q 306 911 306 960 q 272 828 306 863 q 188 794 238 794 z "},"¸":{"ha":833,"x_min":69,"x_max":313,"o":"m 313 -174 q 276 -264 313 -229 q 185 -299 240 -299 q 108 -273 138 -299 q 69 -203 79 -247 l 85 -196 q 150 -235 104 -235 q 192 -217 176 -235 q 207 -171 207 -200 q 193 -131 207 -146 q 157 -115 179 -115 q 143 -117 150 -115 q 126 -124 136 -118 l 104 -112 l 172 0 l 201 0 l 153 -76 q 201 -65 171 -65 q 281 -94 249 -65 q 313 -174 313 -124 z "},"˛":{"ha":833,"x_min":69,"x_max":374,"o":"m 219 -292 q 110 -258 151 -292 q 69 -165 69 -225 q 122 -57 69 -104 q 286 7 174 -10 l 286 0 q 194 -100 194 -31 q 217 -158 194 -137 q 276 -178 239 -178 q 367 -112 339 -178 l 374 -115 q 326 -247 365 -203 q 219 -292 286 -292 z "},",":{"ha":419,"x_min":56,"x_max":354,"o":"m 110 -189 q 186 -141 158 -171 q 214 -74 214 -111 q 195 -17 214 -39 q 136 21 176 6 q 75 63 94 35 q 56 136 56 92 q 92 226 56 192 q 190 261 129 261 q 310 208 267 261 q 354 60 354 154 q 321 -68 354 -11 q 232 -157 288 -125 q 110 -189 176 -189 z "},";":{"ha":432,"x_min":56,"x_max":367,"o":"m 122 -189 q 199 -141 171 -171 q 226 -74 226 -111 q 208 -17 226 -39 q 149 21 189 6 q 88 63 107 35 q 68 136 68 92 q 105 226 68 192 q 203 261 142 261 q 323 208 279 261 q 367 60 367 154 q 333 -68 367 -11 q 244 -157 300 -125 q 122 -189 189 -189 m 204 446 q 99 490 143 446 q 56 594 56 533 q 99 699 56 656 q 204 742 143 742 q 308 699 265 742 q 351 594 351 656 q 308 490 351 533 q 204 446 265 446 z "},":":{"ha":407,"x_min":56,"x_max":351,"o":"m 204 454 q 99 498 143 454 q 56 603 56 542 q 99 707 56 664 q 204 750 143 750 q 308 707 265 750 q 351 603 351 664 q 308 498 351 542 q 204 454 265 454 m 204 -33 q 99 10 143 -33 q 56 115 56 54 q 99 219 56 176 q 204 263 143 263 q 308 219 265 263 q 351 115 351 176 q 308 10 351 54 q 204 -33 265 -33 z "},".":{"ha":407,"x_min":56,"x_max":351,"o":"m 204 -33 q 99 10 143 -33 q 56 115 56 54 q 99 219 56 176 q 204 263 143 263 q 308 219 265 263 q 351 115 351 176 q 308 10 351 54 q 204 -33 265 -33 z "},"…":{"ha":1085,"x_min":56,"x_max":1029,"o":"m 882 -33 q 777 10 821 -33 q 733 115 733 54 q 777 219 733 176 q 882 263 821 263 q 986 219 943 263 q 1029 115 1029 176 q 986 10 1029 54 q 882 -33 943 -33 m 543 -33 q 438 10 482 -33 q 394 115 394 54 q 438 219 394 176 q 543 263 482 263 q 647 219 604 263 q 690 115 690 176 q 647 10 690 54 q 543 -33 604 -33 m 204 -33 q 99 10 143 -33 q 56 115 56 54 q 99 219 56 176 q 204 263 143 263 q 308 219 265 263 q 351 115 351 176 q 308 10 351 54 q 204 -33 265 -33 z "},"-":{"ha":482,"x_min":42,"x_max":440,"o":"m 42 468 l 440 468 l 440 381 l 42 381 l 42 468 z "},"­":{"ha":482,"x_min":42,"x_max":440,"o":"m 42 468 l 440 468 l 440 381 l 42 381 l 42 468 z "},"!":{"ha":476,"x_min":85,"x_max":392,"o":"m 93 789 q 85 856 85 822 q 126 960 85 921 q 232 1000 168 1000 q 338 960 296 1000 q 379 856 379 921 q 371 789 379 822 l 250 329 l 214 329 l 93 789 m 244 -32 q 140 12 183 -32 q 96 117 96 56 q 140 221 96 178 q 244 264 183 264 q 349 221 306 264 q 392 117 392 178 q 349 12 392 56 q 244 -32 306 -32 z "},"¡":{"ha":476,"x_min":85,"x_max":392,"o":"m 244 733 q 349 690 306 733 q 392 585 392 646 q 349 481 392 525 q 244 438 306 438 q 140 481 183 438 q 96 585 96 524 q 140 690 96 646 q 244 733 183 733 m 250 372 l 371 -87 q 379 -154 379 -121 q 338 -259 379 -219 q 232 -299 296 -299 q 126 -259 168 -299 q 85 -154 85 -219 q 93 -87 85 -121 l 214 372 l 250 372 z "},"?":{"ha":676,"x_min":0,"x_max":663,"o":"m 256 367 q 271 439 256 406 q 325 519 286 472 q 377 604 363 565 q 392 692 392 643 q 342 794 392 754 q 219 835 293 835 q 99 812 151 835 q 0 740 47 789 q 119 931 28 861 q 340 1000 211 1000 q 508 969 435 1000 q 622 882 581 938 q 663 756 663 826 q 463 486 663 582 q 381 423 404 454 q 358 347 358 392 l 358 329 l 256 329 l 256 367 m 310 -35 q 205 9 249 -35 q 161 114 161 53 q 205 218 161 175 q 310 261 249 261 q 414 218 371 261 q 457 114 457 175 q 414 9 457 53 q 310 -35 371 -35 z "},"¿":{"ha":586,"x_min":14,"x_max":607,"o":"m 357 738 q 462 694 418 738 q 506 589 506 650 q 462 485 506 528 q 357 442 418 442 q 253 485 297 442 q 210 589 210 529 q 253 694 210 650 q 357 738 296 738 m 421 336 q 406 264 421 297 q 351 183 390 231 q 299 99 314 138 q 285 11 285 60 q 334 -90 285 -51 q 458 -129 383 -129 q 540 -117 504 -129 q 607 -79 576 -106 q 506 -239 583 -181 q 322 -297 429 -297 q 162 -266 232 -297 q 53 -179 92 -235 q 14 -53 14 -124 q 64 96 14 31 q 214 217 114 161 q 295 280 272 249 q 318 356 318 311 l 318 374 l 421 374 l 421 336 z "},"‘":{"ha":394,"x_min":65,"x_max":339,"o":"m 303 1010 q 193 903 193 965 q 265 817 193 843 q 321 777 303 803 q 339 711 339 751 q 303 629 339 661 q 211 597 267 597 q 104 643 143 597 q 65 771 65 689 q 131 944 65 878 q 303 1010 197 1010 z "},"’":{"ha":394,"x_min":56,"x_max":329,"o":"m 92 574 q 201 681 201 618 q 129 767 201 740 q 74 806 92 781 q 56 872 56 832 q 92 954 56 922 q 183 986 128 986 q 290 940 251 986 q 329 813 329 894 q 263 640 329 706 q 92 574 197 574 z "},"ʼ":{"ha":394,"x_min":56,"x_max":329,"o":"m 92 574 q 201 681 201 618 q 129 767 201 740 q 74 806 92 781 q 56 872 56 832 q 92 954 56 922 q 183 986 128 986 q 290 940 251 986 q 329 813 329 894 q 263 640 329 706 q 92 574 197 574 z "},"“":{"ha":700,"x_min":65,"x_max":644,"o":"m 303 1010 q 193 903 193 965 q 265 817 193 843 q 321 777 303 803 q 339 711 339 751 q 303 629 339 661 q 211 597 267 597 q 104 643 143 597 q 65 771 65 689 q 131 944 65 878 q 303 1010 197 1010 m 608 1010 q 499 903 499 965 q 571 817 499 843 q 626 777 608 803 q 644 711 644 751 q 608 629 644 661 q 517 597 572 597 q 410 643 449 597 q 371 771 371 689 q 437 944 371 878 q 608 1010 503 1010 z "},"”":{"ha":700,"x_min":56,"x_max":635,"o":"m 92 574 q 201 681 201 618 q 129 767 201 740 q 74 806 92 781 q 56 872 56 832 q 92 954 56 922 q 183 986 128 986 q 290 940 251 986 q 329 813 329 894 q 263 640 329 706 q 92 574 197 574 m 397 574 q 507 681 507 618 q 435 767 507 740 q 379 806 397 781 q 361 872 361 832 q 397 954 361 922 q 489 986 433 986 q 596 940 557 986 q 635 813 635 894 q 569 640 635 706 q 397 574 503 574 z "},"‚":{"ha":394,"x_min":56,"x_max":329,"o":"m 92 -233 q 201 -126 201 -189 q 129 -40 201 -67 q 74 -1 92 -26 q 56 65 56 25 q 92 147 56 115 q 183 179 128 179 q 290 133 251 179 q 329 6 329 88 q 263 -167 329 -101 q 92 -233 197 -233 z "},"„":{"ha":700,"x_min":65,"x_max":644,"o":"m 101 -250 q 211 -143 211 -206 q 139 -57 211 -83 q 83 -17 101 -43 q 65 49 65 8 q 101 131 65 99 q 193 163 138 163 q 300 117 261 163 q 339 -11 339 71 q 273 -184 339 -118 q 101 -250 207 -250 m 407 -250 q 517 -143 517 -206 q 444 -57 517 -83 q 389 -17 407 -43 q 371 49 371 8 q 407 131 371 99 q 499 163 443 163 q 606 117 567 163 q 644 -11 644 71 q 578 -184 644 -118 q 407 -250 513 -250 z "},"‹":{"ha":442,"x_min":56,"x_max":386,"o":"m 56 396 l 56 401 l 372 681 l 386 675 l 218 399 l 386 122 l 372 117 l 56 396 z "},"›":{"ha":442,"x_min":56,"x_max":386,"o":"m 56 122 l 224 399 l 56 675 l 69 681 l 386 401 l 386 396 l 69 117 l 56 122 z "},"«":{"ha":706,"x_min":56,"x_max":650,"o":"m 56 396 l 56 401 l 372 681 l 386 675 l 218 399 l 386 122 l 372 117 l 56 396 m 319 396 l 319 401 l 636 681 l 650 675 l 482 399 l 650 122 l 636 117 l 319 396 z "},"»":{"ha":706,"x_min":56,"x_max":650,"o":"m 56 122 l 224 399 l 56 675 l 69 681 l 386 401 l 386 396 l 69 117 l 56 122 m 319 122 l 488 399 l 319 675 l 333 681 l 650 401 l 650 396 l 333 117 l 319 122 z "},"/":{"ha":479,"x_min":7,"x_max":472,"o":"m 414 1058 l 472 1058 l 65 -83 l 7 -83 l 414 1058 z "},"|":{"ha":222,"x_min":83,"x_max":139,"o":"m 139 -172 l 83 -172 l 83 1014 l 139 1014 l 139 -172 z "},"–":{"ha":743,"x_min":42,"x_max":701,"o":"m 42 454 l 701 454 l 701 394 l 42 394 l 42 454 z "},"—":{"ha":1111,"x_min":42,"x_max":1069,"o":"m 42 454 l 1069 454 l 1069 394 l 42 394 l 42 454 z "},"·":{"ha":407,"x_min":56,"x_max":351,"o":"m 204 343 q 99 387 143 343 q 56 492 56 431 q 99 596 56 553 q 204 639 143 639 q 308 596 265 639 q 351 492 351 553 q 308 387 351 431 q 204 343 265 343 z "},"(":{"ha":488,"x_min":56,"x_max":481,"o":"m 476 -204 q 280 -87 376 -169 q 119 124 183 -6 q 56 421 56 254 q 119 717 56 588 q 280 929 183 847 q 476 1046 376 1011 l 481 1040 q 363 897 414 994 q 282 675 311 800 q 253 421 253 550 q 282 167 253 292 q 363 -56 311 42 q 481 -199 414 -153 l 476 -204 z "},")":{"ha":488,"x_min":7,"x_max":432,"o":"m 11 1046 q 208 929 111 1011 q 368 717 304 847 q 432 421 432 588 q 368 124 432 254 q 208 -87 304 -6 q 11 -204 111 -169 l 7 -199 q 125 -56 74 -153 q 206 167 176 42 q 235 421 235 292 q 206 675 235 550 q 125 897 176 800 q 7 1040 74 994 l 11 1046 z "},"[":{"ha":388,"x_min":83,"x_max":374,"o":"m 374 1007 q 306 992 332 1000 q 258 960 279 983 q 236 890 236 936 l 236 -49 q 258 -118 236 -94 q 306 -150 279 -142 q 374 -165 332 -158 l 374 -172 l 83 -172 l 83 1014 l 374 1014 l 374 1007 z "},"]":{"ha":388,"x_min":14,"x_max":304,"o":"m 14 1014 l 304 1014 l 304 -172 l 14 -172 l 14 -165 q 82 -150 56 -158 q 130 -118 108 -142 q 151 -49 151 -94 l 151 890 q 130 960 151 936 q 82 992 108 983 q 14 1007 56 1000 l 14 1014 z "},"{":{"ha":447,"x_min":42,"x_max":433,"o":"m 433 -190 q 276 -151 344 -185 q 169 -61 207 -117 q 131 64 131 -6 l 131 275 q 106 367 131 326 q 42 425 82 408 l 42 432 q 106 490 82 449 q 131 582 131 531 l 131 778 q 169 903 131 847 q 276 992 207 958 q 433 1032 344 1026 l 433 1025 q 338 940 378 1007 q 297 799 297 872 l 297 614 q 274 522 297 563 q 213 464 251 482 q 274 406 251 446 q 297 314 297 365 l 297 43 q 338 -98 297 -31 q 433 -183 378 -165 l 433 -190 z "},"}":{"ha":447,"x_min":14,"x_max":406,"o":"m 14 -183 q 108 -99 67 -165 q 150 43 150 -33 l 150 278 q 177 380 150 346 q 235 428 204 414 q 177 476 204 442 q 150 578 150 510 l 150 799 q 108 941 150 875 q 14 1025 67 1007 l 14 1032 q 179 990 111 1026 q 282 897 247 953 q 317 778 317 842 l 317 617 q 344 515 317 549 q 406 467 372 481 l 406 460 q 344 412 372 446 q 317 310 317 378 l 317 64 q 282 -56 317 0 q 179 -148 247 -111 q 14 -190 111 -185 l 14 -183 z "},"*":{"ha":624,"x_min":56,"x_max":568,"o":"m 565 826 q 568 804 568 819 q 514 739 568 760 q 442 732 488 729 l 332 736 l 422 678 q 479 628 457 657 q 497 582 497 603 q 467 529 497 550 q 429 515 449 515 q 371 549 400 515 q 339 617 350 574 l 311 724 l 283 617 q 253 549 272 572 q 194 515 226 515 q 156 529 174 515 q 128 579 128 549 q 143 628 128 601 q 200 678 160 654 l 290 736 l 182 732 q 108 739 138 729 q 56 803 56 758 q 74 854 56 836 q 122 872 93 872 q 150 868 136 872 q 214 829 175 860 l 299 761 l 260 863 q 244 936 244 900 q 262 990 244 969 q 311 1010 279 1010 q 361 988 343 1010 q 379 931 379 967 q 364 863 379 903 l 325 763 l 410 829 q 474 868 446 860 q 501 872 489 872 q 541 860 524 872 q 565 826 558 849 z "},"^":{"ha":457,"x_min":28,"x_max":429,"o":"m 213 979 l 244 979 l 429 639 l 381 639 l 229 925 l 76 639 l 28 639 l 213 979 z "},"~":{"ha":781,"x_min":42,"x_max":739,"o":"m 546 392 q 447 403 489 392 q 347 438 404 415 q 264 467 297 457 q 190 476 231 476 q 108 457 142 476 q 53 399 75 438 l 42 401 q 107 507 61 471 q 235 543 153 543 q 308 533 275 543 q 392 504 342 524 q 491 470 449 482 q 590 458 533 458 q 672 478 639 458 q 728 536 706 497 l 739 533 q 674 428 719 464 q 546 392 628 392 z "},"¦":{"ha":222,"x_min":83,"x_max":139,"o":"m 139 511 l 83 511 l 83 1014 l 139 1014 l 139 511 m 83 372 l 139 372 l 139 -172 l 83 -172 l 83 372 z "},"\\":{"ha":465,"x_min":7,"x_max":458,"o":"m 7 1058 l 51 1058 l 458 -83 l 414 -83 l 7 1058 z "},"_":{"ha":717,"x_min":0,"x_max":717,"o":"m 0 -24 l 717 -24 l 717 -97 l 0 -97 l 0 -24 z "},"'":{"ha":343,"x_min":56,"x_max":288,"o":"m 68 831 q 59 865 63 844 q 56 899 56 885 q 90 980 57 946 q 171 1014 122 1014 q 253 981 221 1014 q 288 899 286 947 q 284 865 288 885 q 275 831 281 844 l 183 597 l 160 597 l 68 831 z "},"\"":{"ha":631,"x_min":56,"x_max":575,"o":"m 356 831 q 347 865 350 844 q 343 899 343 885 q 377 980 344 946 q 458 1014 410 1014 q 541 981 508 1014 q 575 899 574 947 q 572 865 575 885 q 563 831 568 844 l 471 597 l 447 597 l 356 831 m 68 831 q 59 865 63 844 q 56 899 56 885 q 90 980 57 946 q 171 1014 122 1014 q 253 981 221 1014 q 288 899 286 947 q 284 865 288 885 q 275 831 281 844 l 183 597 l 160 597 l 68 831 z "},"@":{"ha":1122,"x_min":35,"x_max":1088,"o":"m 597 465 l 597 575 q 539 658 597 658 q 498 643 513 658 q 483 601 483 628 q 490 563 483 581 q 513 522 497 546 q 480 481 507 500 q 419 461 453 461 q 352 488 376 461 q 328 557 328 514 q 393 665 328 622 q 558 707 458 707 q 735 658 676 707 q 793 504 793 608 l 793 317 q 806 252 793 271 q 849 233 819 233 q 916 264 885 233 q 966 349 947 294 q 985 471 985 403 q 931 692 985 603 q 785 825 878 782 q 572 868 692 868 q 340 812 439 868 q 189 655 242 756 q 136 422 136 554 q 265 76 136 194 q 610 -42 393 -42 q 932 78 836 -42 q 808 -71 906 -24 q 565 -118 710 -118 q 290 -56 410 -118 q 103 128 171 7 q 35 419 35 250 q 103 698 35 576 q 294 886 172 819 q 574 953 417 953 q 839 896 722 953 q 1022 732 956 839 q 1088 482 1088 625 q 1050 288 1088 371 q 943 160 1013 204 q 781 115 874 115 q 669 141 717 115 q 606 221 622 167 q 543 156 582 178 q 457 135 504 135 q 354 172 394 135 q 314 263 314 208 q 362 376 314 332 q 511 444 410 421 l 597 465 m 561 240 q 599 254 585 240 q 597 281 597 263 l 597 418 l 583 415 q 503 317 503 396 q 519 260 503 281 q 561 240 535 240 z "},"©":{"ha":1153,"x_min":35,"x_max":1118,"o":"m 576 -56 q 294 13 418 -56 q 103 203 171 81 q 35 486 35 326 q 103 769 35 646 q 294 960 171 892 q 576 1028 418 1028 q 858 960 735 1028 q 1050 769 982 892 q 1118 486 1118 646 q 1050 203 1118 326 q 858 13 982 81 q 576 -56 735 -56 m 579 31 q 801 88 703 31 q 956 249 900 144 q 1011 486 1011 353 q 956 724 1011 619 q 801 885 900 828 q 579 942 703 942 q 357 885 456 942 q 203 724 258 828 q 147 486 147 619 q 203 249 147 353 q 357 88 258 144 q 579 31 456 31 m 625 285 q 793 414 721 285 l 793 249 q 610 207 714 207 q 391 282 472 207 q 310 488 310 357 q 392 698 310 619 q 614 776 474 776 q 785 735 714 776 l 785 569 q 710 667 749 636 q 621 699 671 699 q 526 646 558 699 q 493 500 493 593 q 529 341 493 397 q 625 285 565 285 z "},"®":{"ha":836,"x_min":56,"x_max":781,"o":"m 418 967 q 605 920 522 967 q 734 791 688 874 q 781 604 781 708 q 734 417 781 500 q 605 288 688 335 q 418 242 522 242 q 231 288 314 242 q 102 417 149 335 q 56 604 56 500 q 102 791 56 708 q 231 920 149 874 q 418 967 314 967 m 418 310 q 565 347 500 310 q 665 451 629 385 q 701 604 701 518 q 665 757 701 690 q 565 861 629 824 q 418 899 500 899 q 272 861 336 899 q 171 757 207 824 q 135 604 135 690 q 171 451 135 518 q 272 347 207 385 q 418 310 336 310 m 561 551 q 576 512 571 526 q 583 489 581 497 q 593 460 589 469 q 611 424 601 436 l 474 424 q 454 471 465 433 l 433 542 q 417 580 425 569 q 394 590 408 590 l 394 515 q 418 424 394 458 l 242 424 q 268 519 268 458 l 268 701 q 242 797 268 765 l 438 797 q 538 772 506 797 q 569 706 569 747 q 537 635 569 657 q 447 613 504 613 l 447 608 q 523 596 497 610 q 561 551 549 582 m 400 622 q 424 642 415 622 q 433 694 433 661 q 424 746 433 726 q 394 765 414 765 l 394 622 l 400 622 z "},"™":{"ha":1139,"x_min":-32,"x_max":1126,"o":"m 322 594 q 333 507 322 539 q 372 444 344 475 l 72 444 q 112 508 100 476 q 124 594 124 539 l 124 875 q 49 844 90 868 q -32 786 7 821 l -1 956 q 113 931 31 931 l 332 931 q 401 938 371 931 q 447 956 432 944 l 478 786 q 322 875 390 860 l 322 594 m 843 444 q 883 492 869 463 q 893 558 896 522 l 876 788 l 728 431 l 583 789 l 569 550 q 577 482 567 503 q 622 444 588 461 l 461 444 q 489 484 481 461 q 499 550 497 507 l 518 860 q 512 901 519 882 q 490 931 504 919 l 724 931 l 788 772 l 851 931 l 1101 931 q 1078 894 1086 915 q 1072 850 1071 872 l 1090 549 q 1126 444 1094 476 l 843 444 z "},"¤":{"ha":822,"x_min":118,"x_max":704,"o":"m 118 208 l 207 297 q 155 383 174 335 q 136 486 136 432 q 155 589 136 540 q 207 675 174 638 l 118 764 l 133 779 l 221 692 q 307 746 258 726 q 411 765 356 765 q 515 746 467 765 q 601 692 564 726 l 689 779 l 704 764 l 615 675 q 667 589 649 638 q 686 486 686 540 q 667 383 686 432 q 615 297 649 335 l 704 208 l 689 193 l 601 281 q 515 226 564 246 q 411 207 467 207 q 307 226 356 207 q 221 281 258 246 l 133 193 l 118 208 m 411 229 q 540 263 483 229 q 629 356 597 297 q 661 486 661 415 q 629 616 661 557 q 540 709 597 675 q 411 743 483 743 q 282 709 339 743 q 193 616 225 675 q 161 486 161 557 q 193 356 161 415 q 282 263 225 297 q 411 229 339 229 z "},"€":{"ha":907,"x_min":7,"x_max":817,"o":"m 586 836 q 466 773 514 836 q 401 593 418 710 l 597 593 l 597 524 l 394 524 q 393 467 393 506 l 597 467 l 597 397 l 396 397 q 455 174 406 253 q 586 94 504 94 q 710 153 654 94 q 817 325 767 211 l 817 54 q 551 -21 701 -21 q 224 90 350 -21 q 79 397 99 201 l 7 397 l 7 467 l 76 467 q 79 524 76 488 l 7 524 l 7 593 l 89 593 q 245 856 124 761 q 551 951 367 951 q 817 876 701 951 l 817 606 q 710 778 767 719 q 586 836 654 836 z "},"$":{"ha":849,"x_min":76,"x_max":786,"o":"m 786 310 q 703 91 786 179 q 482 -17 621 3 l 482 -139 l 407 -139 l 407 -21 q 232 3 318 -19 q 82 68 146 26 l 82 332 q 407 75 251 100 l 407 308 l 276 357 q 129 471 182 393 q 76 644 76 549 q 119 799 76 731 q 238 907 163 867 q 407 951 314 947 l 407 1042 l 482 1042 l 482 950 q 612 928 554 946 q 722 876 669 910 l 722 624 q 482 844 617 804 l 482 621 l 581 581 q 735 471 685 538 q 786 310 786 404 m 407 651 l 407 857 l 399 857 q 314 835 343 857 q 285 769 285 813 q 310 707 285 733 q 389 658 335 681 l 407 651 m 482 75 q 544 106 522 83 q 567 164 567 129 q 482 279 567 242 l 482 75 z "},"¢":{"ha":817,"x_min":76,"x_max":768,"o":"m 768 269 q 679 63 756 139 q 476 -19 603 -14 l 476 -139 l 407 -139 l 407 -19 q 165 100 253 -6 q 76 385 76 206 q 118 584 76 494 q 234 731 160 674 q 407 803 308 788 l 407 917 l 476 917 l 476 807 q 678 753 600 806 q 756 618 756 701 q 699 513 756 553 q 553 472 643 472 q 476 710 547 660 l 476 240 q 586 222 525 222 q 685 233 644 222 q 768 269 726 244 m 300 521 q 328 379 300 442 q 407 278 356 317 l 407 724 q 328 660 356 714 q 300 521 300 607 z "},"£":{"ha":808,"x_min":49,"x_max":725,"o":"m 574 193 q 667 211 629 193 q 725 257 704 229 q 649 52 714 125 q 471 -21 583 -21 q 361 -6 425 -21 q 292 8 319 4 q 225 13 264 13 q 49 -7 125 13 q 168 138 128 74 q 208 260 208 201 q 172 408 208 336 l 57 408 l 57 478 l 136 478 q 103 560 115 519 q 92 654 92 601 q 135 809 92 742 q 258 914 178 876 q 443 951 338 951 q 706 868 608 951 l 706 626 q 561 804 629 751 q 422 857 493 857 q 336 833 367 857 q 306 765 306 810 q 322 705 306 733 q 371 633 338 676 q 427 555 407 589 q 451 478 447 521 l 646 478 l 646 408 l 447 408 q 288 217 424 307 l 292 211 q 339 226 319 222 q 393 231 358 231 q 458 215 415 231 q 517 199 494 204 q 574 193 540 193 z "},"¥":{"ha":956,"x_min":49,"x_max":907,"o":"m 907 931 q 847 858 886 914 q 788 764 807 803 l 635 449 l 789 449 l 789 379 l 617 379 l 617 325 l 789 325 l 789 256 l 617 256 l 617 224 q 634 92 617 144 q 690 0 651 39 l 263 0 q 320 92 303 40 q 338 224 338 144 l 338 256 l 171 256 l 171 325 l 338 325 l 338 379 l 171 379 l 171 449 l 315 449 l 153 794 q 101 878 132 838 q 49 931 69 919 l 499 931 q 435 832 435 904 q 458 740 435 788 l 564 521 l 675 740 q 699 831 699 786 q 635 931 699 904 l 907 931 z "},"ª":{"ha":665,"x_min":65,"x_max":619,"o":"m 585 542 q 619 550 607 542 q 574 472 611 503 q 485 442 538 442 q 403 462 439 442 q 353 522 368 482 q 292 461 331 481 q 207 442 253 442 q 105 476 144 442 q 65 563 65 511 q 261 738 65 694 l 343 756 l 343 865 q 289 936 343 936 q 251 922 265 936 q 238 883 238 907 q 244 847 238 864 q 267 807 251 831 q 233 767 260 786 q 171 749 206 749 q 104 775 129 749 q 79 843 79 801 q 144 944 79 904 q 310 985 210 985 q 490 933 436 985 q 544 789 544 882 l 544 606 q 585 542 544 542 m 314 547 q 344 556 332 547 q 343 583 343 564 l 343 708 l 335 707 q 278 678 297 697 q 258 618 258 658 q 273 567 258 586 q 314 547 288 547 z "},"º":{"ha":694,"x_min":61,"x_max":633,"o":"m 347 442 q 198 475 263 442 q 97 570 133 508 q 61 713 61 632 q 97 855 61 793 q 198 951 133 917 q 347 985 263 985 q 497 951 432 985 q 597 855 561 917 q 633 713 633 793 q 597 570 633 632 q 497 475 561 508 q 347 442 432 442 m 347 497 q 417 713 417 497 q 347 928 417 928 q 278 713 278 928 q 347 497 278 497 z "},"#":{"ha":868,"x_min":28,"x_max":840,"o":"m 608 608 l 553 356 l 789 356 l 789 311 l 543 311 l 475 1 l 429 1 l 497 311 l 286 311 l 218 1 l 172 1 l 240 311 l 28 311 l 28 356 l 250 356 l 306 608 l 79 608 l 79 654 l 315 654 l 385 972 l 431 972 l 361 654 l 572 654 l 642 972 l 688 972 l 618 654 l 840 654 l 840 608 l 608 608 m 563 608 l 351 608 l 296 356 l 507 356 l 563 608 z "},"⁄":{"ha":100,"x_min":-299,"x_max":399,"o":"m 297 947 l 399 947 l -194 -56 l -299 -56 l 297 947 z "},"¼":{"ha":1171,"x_min":78,"x_max":1122,"o":"m 78 414 q 140 463 121 432 q 158 544 158 493 l 158 799 q 141 860 158 840 q 90 889 124 879 l 349 985 l 349 544 q 429 414 349 444 l 78 414 m 788 947 l 889 947 l 296 -56 l 192 -56 l 788 947 m 1031 154 l 1031 101 q 1045 45 1031 75 q 1081 0 1060 15 l 768 0 q 820 40 800 14 q 840 96 840 65 l 840 154 l 608 154 l 874 558 l 1031 558 l 1031 261 l 1122 261 l 1122 154 l 1031 154 m 840 261 l 840 371 l 768 261 l 840 261 z "},"½":{"ha":1165,"x_min":78,"x_max":1108,"o":"m 78 414 q 140 463 121 432 q 158 544 158 493 l 158 799 q 141 860 158 840 q 90 889 124 879 l 349 985 l 349 544 q 429 414 349 444 l 78 414 m 788 947 l 889 947 l 296 -56 l 192 -56 l 788 947 m 747 124 q 864 361 864 274 q 842 425 864 403 q 778 447 819 447 q 712 431 743 447 q 664 385 681 414 q 726 522 672 472 q 868 571 781 571 q 1011 528 957 571 q 1065 415 1065 485 q 1015 284 1065 347 q 860 157 964 221 l 979 157 q 1056 165 1026 157 q 1108 196 1086 174 l 1044 0 l 651 0 l 747 124 z "},"¾":{"ha":1232,"x_min":65,"x_max":1183,"o":"m 279 403 q 150 429 206 403 q 65 506 94 456 q 158 496 114 496 q 244 523 210 496 q 278 592 278 550 q 253 645 278 625 q 189 665 229 665 l 169 665 l 169 735 l 192 735 q 254 758 229 735 q 279 818 279 782 q 253 868 279 850 q 181 886 228 886 q 126 879 151 886 q 71 857 101 872 q 143 951 88 917 q 279 985 199 985 q 427 949 372 985 q 482 851 482 913 q 443 758 482 796 q 335 708 404 721 l 335 704 q 442 669 401 703 q 482 569 482 636 q 454 486 482 525 q 380 425 426 447 q 279 403 333 403 m 849 947 l 950 947 l 357 -56 l 253 -56 l 849 947 m 1092 154 l 1092 101 q 1106 45 1092 75 q 1142 0 1121 15 l 829 0 q 881 40 861 14 q 901 96 901 65 l 901 154 l 669 154 l 935 558 l 1092 558 l 1092 261 l 1183 261 l 1183 154 l 1092 154 m 901 261 l 901 371 l 829 261 l 901 261 z "},"%":{"ha":1097,"x_min":56,"x_max":1042,"o":"m 779 947 l 881 947 l 288 -56 l 183 -56 l 779 947 m 282 436 q 117 501 179 436 q 56 676 56 567 q 117 851 56 786 q 282 917 179 917 q 447 851 385 917 q 508 676 508 786 q 447 501 508 567 q 282 436 385 436 m 282 490 q 333 535 317 490 q 349 676 349 579 q 333 818 349 774 q 282 863 317 863 q 231 818 247 863 q 215 676 215 774 q 231 535 215 579 q 282 490 247 490 m 815 -28 q 651 38 713 -28 q 589 213 589 103 q 651 388 589 322 q 815 453 713 453 q 980 388 918 453 q 1042 213 1042 322 q 980 38 1042 103 q 815 -28 918 -28 m 815 26 q 866 71 850 26 q 882 213 882 115 q 866 354 882 310 q 815 399 850 399 q 765 354 781 399 q 749 213 749 310 q 765 71 749 115 q 815 26 781 26 z "},"‰":{"ha":1622,"x_min":56,"x_max":1567,"o":"m 779 947 l 881 947 l 288 -56 l 183 -56 l 779 947 m 282 436 q 117 501 179 436 q 56 676 56 567 q 117 851 56 786 q 282 917 179 917 q 447 851 385 917 q 508 676 508 786 q 447 501 508 567 q 282 436 385 436 m 282 490 q 333 535 317 490 q 349 676 349 579 q 333 818 349 774 q 282 863 317 863 q 231 818 247 863 q 215 676 215 774 q 231 535 215 579 q 282 490 247 490 m 815 -28 q 651 38 713 -28 q 589 213 589 103 q 651 388 589 322 q 815 453 713 453 q 980 388 918 453 q 1042 213 1042 322 q 980 38 1042 103 q 815 -28 918 -28 m 1340 -28 q 1176 38 1238 -28 q 1114 213 1114 103 q 1176 388 1114 322 q 1340 453 1238 453 q 1505 388 1443 453 q 1567 213 1567 322 q 1505 38 1567 103 q 1340 -28 1443 -28 m 815 26 q 866 71 850 26 q 882 213 882 115 q 866 354 882 310 q 815 399 850 399 q 765 354 781 399 q 749 213 749 310 q 765 71 749 115 q 815 26 781 26 m 1340 26 q 1391 71 1375 26 q 1407 213 1407 115 q 1391 354 1407 310 q 1340 399 1375 399 q 1290 354 1306 399 q 1274 213 1274 310 q 1290 71 1274 115 q 1340 26 1306 26 z "},"+":{"ha":806,"x_min":125,"x_max":681,"o":"m 681 407 l 425 407 l 425 151 l 382 151 l 382 407 l 125 407 l 125 449 l 382 449 l 382 704 l 425 704 l 425 449 l 681 449 l 681 407 z "},"−":{"ha":806,"x_min":125,"x_max":681,"o":"m 125 449 l 681 449 l 681 407 l 125 407 l 125 449 z "},"±":{"ha":806,"x_min":115,"x_max":671,"o":"m 671 407 l 415 407 l 415 151 l 372 151 l 372 407 l 115 407 l 115 449 l 372 449 l 372 704 l 415 704 l 415 449 l 671 449 l 671 407 m 115 42 l 671 42 l 671 0 l 115 0 l 115 42 z "},"×":{"ha":806,"x_min":151,"x_max":654,"o":"m 435 426 l 654 207 l 621 175 l 403 394 l 183 175 l 151 207 l 371 426 l 151 646 l 183 678 l 403 458 l 621 678 l 654 646 l 435 426 z "},"÷":{"ha":806,"x_min":126,"x_max":679,"o":"m 404 560 q 338 587 365 560 q 310 653 310 614 q 338 719 310 692 q 404 747 365 747 q 470 719 443 747 q 497 653 497 692 q 470 587 497 614 q 404 560 443 560 m 126 449 l 679 449 l 679 407 l 126 407 l 126 449 m 404 101 q 338 128 365 101 q 310 194 310 156 q 338 261 310 233 q 404 289 365 289 q 470 261 443 289 q 497 194 497 233 q 470 128 497 156 q 404 101 443 101 z "},"=":{"ha":806,"x_min":126,"x_max":681,"o":"m 126 560 l 681 560 l 681 518 l 126 518 l 126 560 m 126 338 l 681 338 l 681 296 l 126 296 l 126 338 z "},"≠":{"ha":806,"x_min":126,"x_max":681,"o":"m 467 518 l 378 338 l 681 338 l 681 296 l 357 296 l 260 99 l 213 99 l 310 296 l 126 296 l 126 338 l 331 338 l 419 518 l 126 518 l 126 560 l 440 560 l 546 775 l 593 775 l 488 560 l 681 560 l 681 518 l 467 518 z "},"≈":{"ha":806,"x_min":6,"x_max":717,"o":"m 510 239 q 410 251 453 239 q 311 285 368 263 q 228 314 261 304 q 154 324 194 324 q 72 304 106 324 q 17 246 39 285 l 6 249 q 71 354 25 318 q 199 390 117 390 q 272 381 239 390 q 356 351 306 371 q 455 317 413 329 q 554 306 497 306 q 636 325 603 306 q 692 383 669 344 l 703 381 q 638 275 683 311 q 510 239 592 239 m 524 461 q 424 473 467 461 q 325 507 382 485 q 242 536 275 526 q 168 546 208 546 q 86 526 119 546 q 31 468 53 507 l 19 471 q 85 576 39 540 q 213 613 131 613 q 286 603 253 613 q 369 574 319 593 q 469 540 426 551 q 568 528 511 528 q 650 547 617 528 q 706 606 683 567 l 717 603 q 651 497 697 533 q 524 461 606 461 z "},"<":{"ha":806,"x_min":125,"x_max":681,"o":"m 125 364 l 125 406 l 681 681 l 681 632 l 181 385 l 681 138 l 681 89 l 125 364 z "},">":{"ha":806,"x_min":124,"x_max":679,"o":"m 124 138 l 624 385 l 124 632 l 124 681 l 679 406 l 679 364 l 124 89 l 124 138 z "},"≤":{"ha":806,"x_min":125,"x_max":681,"o":"m 125 364 l 125 406 l 681 681 l 681 632 l 181 385 l 681 138 l 681 89 l 125 364 m 125 42 l 681 42 l 681 0 l 125 0 l 125 42 z "},"≥":{"ha":806,"x_min":124,"x_max":679,"o":"m 124 138 l 624 385 l 124 632 l 124 681 l 679 406 l 679 364 l 124 89 l 124 138 m 124 0 l 124 42 l 679 42 l 679 0 l 124 0 z "},"¬":{"ha":806,"x_min":126,"x_max":679,"o":"m 679 240 l 636 240 l 636 463 l 126 463 l 126 504 l 679 504 l 679 240 z "},"°":{"ha":428,"x_min":56,"x_max":372,"o":"m 214 706 q 103 749 150 706 q 56 860 56 793 q 103 970 56 926 q 214 1014 150 1014 q 325 970 278 1014 q 372 860 372 926 q 325 749 372 793 q 214 706 278 706 m 214 790 q 260 810 240 790 q 281 860 281 829 q 260 910 281 890 q 214 929 240 929 q 167 910 188 929 q 147 860 147 890 q 167 810 147 829 q 214 790 188 790 z "},"∞":{"ha":844,"x_min":42,"x_max":803,"o":"m 217 194 q 91 245 140 194 q 42 367 42 296 q 91 488 42 438 q 217 539 140 539 q 324 503 276 539 q 422 400 371 467 q 521 503 474 467 q 628 539 568 539 q 753 488 704 539 q 803 367 803 438 q 753 245 803 296 q 628 194 704 194 q 520 231 568 194 q 422 333 472 267 q 324 231 372 267 q 217 194 276 194 m 218 233 q 306 267 267 233 q 396 367 344 300 q 306 467 344 433 q 218 500 267 500 q 126 465 167 500 q 86 367 86 431 q 126 268 86 303 q 218 233 167 233 m 626 233 q 718 268 678 233 q 758 367 758 303 q 718 465 758 431 q 626 500 678 500 q 539 467 578 500 q 449 367 500 433 q 539 267 500 300 q 626 233 578 233 z "},"↑":{"ha":647,"x_min":56,"x_max":592,"o":"m 564 682 l 351 858 l 351 -56 l 296 -56 l 296 858 l 83 682 l 56 682 l 324 1042 l 592 682 l 564 682 z "},"→":{"ha":1083,"x_min":42,"x_max":1028,"o":"m 668 185 l 844 397 l 42 397 l 42 453 l 844 453 l 668 665 l 668 693 l 1028 425 l 668 157 l 668 185 z "},"↓":{"ha":647,"x_min":56,"x_max":592,"o":"m 592 304 l 324 -56 l 56 304 l 83 304 l 296 128 l 296 1042 l 351 1042 l 351 128 l 564 304 l 592 304 z "},"←":{"ha":1083,"x_min":56,"x_max":1042,"o":"m 1042 397 l 239 397 l 415 185 l 415 157 l 56 425 l 415 693 l 415 665 l 239 453 l 1042 453 l 1042 397 z "},"↖":{"ha":1083,"x_min":56,"x_max":1028,"o":"m 989 0 l 165 824 l 140 549 l 119 529 l 56 972 l 499 908 l 479 888 l 204 863 l 1028 39 l 989 0 z "},"↗":{"ha":1083,"x_min":56,"x_max":1028,"o":"m 1028 972 l 964 529 l 943 549 l 918 824 l 94 0 l 56 39 l 879 863 l 604 888 l 585 908 l 1028 972 z "},"↙":{"ha":1083,"x_min":56,"x_max":1028,"o":"m 479 85 l 499 64 l 56 0 l 119 443 l 140 424 l 165 149 l 989 972 l 1028 933 l 204 110 l 479 85 z "},"↘":{"ha":1083,"x_min":56,"x_max":1028,"o":"m 604 85 l 879 110 l 56 933 l 94 972 l 918 149 l 943 424 l 964 443 l 1028 0 l 585 64 l 604 85 z "},"℮":{"ha":938,"x_min":49,"x_max":889,"o":"m 471 18 q 651 54 569 18 q 785 163 733 90 l 808 144 q 663 22 753 61 q 471 -17 574 -17 q 250 42 346 -17 q 101 201 154 100 q 49 426 49 301 q 102 654 49 551 q 252 816 156 757 q 471 875 349 875 q 692 818 597 875 q 838 658 786 761 q 889 422 889 556 l 150 422 l 150 182 q 283 61 201 104 q 471 18 364 18 m 471 840 q 283 797 364 840 q 150 671 201 753 l 150 454 l 778 454 l 778 696 q 649 803 726 765 q 471 840 571 840 z "},"":{"ha":919,"x_min":28,"x_max":892,"o":"m 639 665 q 831 514 769 601 q 892 310 892 426 q 833 94 892 189 q 668 -53 774 0 q 428 -106 563 -106 q 220 -69 311 -106 q 78 33 129 -32 q 28 183 28 99 q 92 338 28 281 q 267 394 156 394 q 417 363 349 394 q 526 276 486 331 q 567 158 567 222 q 528 58 567 96 q 428 19 490 19 q 330 58 368 19 q 292 154 292 96 q 331 244 292 207 q 425 281 369 281 q 481 272 456 281 q 413 325 456 306 q 322 344 371 344 q 210 301 251 344 q 168 181 168 257 q 205 53 168 110 q 306 -34 242 -3 q 453 -65 371 -65 q 637 -8 567 -65 q 707 139 707 49 q 665 256 707 203 q 528 356 624 308 l 317 458 q 158 584 213 510 q 104 751 104 658 q 152 913 104 842 q 285 1022 200 983 q 482 1061 371 1061 q 680 1037 576 1061 q 849 975 783 1013 l 749 706 l 742 706 q 670 860 722 790 q 547 969 618 929 q 399 1010 475 1010 q 306 985 339 1010 q 272 917 272 960 q 305 844 272 878 q 413 775 338 811 l 639 665 z "},"ﬁ":{"ha":949,"x_min":21,"x_max":914,"o":"m 536 0 q 575 64 564 29 q 586 156 586 99 l 586 551 q 571 632 586 604 q 511 660 556 660 l 374 660 l 374 176 q 391 77 374 119 q 444 0 408 35 l 21 0 q 88 75 67 35 q 110 167 110 115 l 110 660 l 28 660 l 28 729 l 114 729 q 246 938 135 861 q 519 1014 357 1014 q 731 982 658 1014 q 803 893 803 950 q 756 808 803 835 q 617 779 710 782 q 574 894 617 854 q 451 935 531 935 q 334 901 379 935 q 289 813 289 868 q 311 755 289 781 q 374 729 333 729 l 772 729 l 850 750 l 850 157 q 865 66 850 101 q 914 0 881 31 l 536 0 z "},"ﬂ":{"ha":949,"x_min":21,"x_max":921,"o":"m 529 0 q 579 64 565 29 q 593 156 593 99 l 593 854 q 521 914 564 893 q 424 935 478 935 q 328 906 365 935 q 290 831 290 876 q 313 757 290 785 q 374 729 336 729 l 490 729 l 490 660 l 374 660 l 374 176 q 391 78 374 121 q 444 0 408 36 l 21 0 q 88 75 67 35 q 110 167 110 115 l 110 660 l 28 660 l 28 729 l 114 729 q 240 936 133 858 q 506 1014 346 1014 q 763 969 653 1014 l 857 1014 l 857 156 q 871 64 857 99 q 921 0 885 29 l 529 0 z "},"⅓":{"ha":1142,"x_min":78,"x_max":1072,"o":"m 78 414 q 140 463 121 432 q 158 544 158 493 l 158 799 q 141 860 158 840 q 90 889 124 879 l 349 985 l 349 544 q 429 414 349 444 l 78 414 m 788 947 l 889 947 l 296 -56 l 192 -56 l 788 947 m 869 -11 q 740 15 796 -11 q 656 92 685 42 q 749 82 704 82 q 834 109 800 82 q 868 178 868 136 q 844 231 868 211 q 779 251 819 251 l 760 251 l 760 321 l 782 321 q 844 344 819 321 q 869 404 869 368 q 844 454 869 436 q 771 472 818 472 q 717 465 743 472 q 661 443 692 458 q 733 537 678 503 q 869 571 789 571 q 1017 535 963 571 q 1072 438 1072 499 q 1033 344 1072 382 q 925 294 994 307 l 925 290 q 1032 256 992 289 q 1072 156 1072 222 q 1044 72 1072 111 q 970 11 1017 33 q 869 -11 924 -11 z "},"⅔":{"ha":1226,"x_min":61,"x_max":1157,"o":"m 157 538 q 274 775 274 688 q 251 839 274 817 q 188 861 229 861 q 121 844 151 861 q 74 799 90 828 q 136 935 82 886 q 278 985 190 985 q 421 942 367 985 q 475 829 475 899 q 424 698 475 761 q 269 571 374 635 l 389 571 q 466 579 436 571 q 518 610 496 588 l 454 414 l 61 414 l 157 538 m 872 947 l 974 947 l 381 -56 l 276 -56 l 872 947 m 954 -11 q 825 15 881 -11 q 740 92 769 42 q 833 82 789 82 q 919 109 885 82 q 953 178 953 136 q 928 231 953 211 q 864 251 904 251 l 844 251 l 844 321 l 867 321 q 929 344 904 321 q 954 404 954 368 q 928 454 954 436 q 856 472 903 472 q 802 465 828 472 q 746 443 776 458 q 818 537 763 503 q 954 571 874 571 q 1102 535 1047 571 q 1157 438 1157 499 q 1118 344 1157 382 q 1010 294 1079 307 l 1010 290 q 1117 256 1076 289 q 1157 156 1157 222 q 1129 72 1157 111 q 1055 11 1101 33 q 954 -11 1008 -11 z "},"⅛":{"ha":1175,"x_min":78,"x_max":1117,"o":"m 78 414 q 140 463 121 432 q 158 544 158 493 l 158 799 q 141 860 158 840 q 90 889 124 879 l 349 985 l 349 544 q 429 414 349 444 l 78 414 m 788 947 l 889 947 l 296 -56 l 192 -56 l 788 947 m 1024 310 q 1094 243 1072 278 q 1117 167 1117 208 q 1060 38 1117 88 q 888 -12 1004 -12 q 714 25 779 -12 q 649 128 649 63 q 675 201 649 171 q 761 247 701 231 l 749 256 q 675 330 694 292 q 656 411 656 368 q 713 528 656 486 q 865 571 769 571 q 1029 537 967 571 q 1092 444 1092 503 q 1064 378 1092 406 q 982 338 1036 350 l 1024 310 m 864 525 q 826 514 840 525 q 813 483 813 503 q 822 452 813 467 q 854 422 832 438 l 922 378 q 925 446 925 397 q 908 503 925 482 q 864 525 890 525 m 889 33 q 938 46 918 33 q 957 79 957 58 q 943 114 957 96 q 889 160 929 132 l 824 204 q 821 158 821 176 q 838 67 821 100 q 889 33 856 33 z "},"⅜":{"ha":1236,"x_min":65,"x_max":1178,"o":"m 279 403 q 150 429 206 403 q 65 506 94 456 q 158 496 114 496 q 244 523 210 496 q 278 592 278 550 q 253 645 278 625 q 189 665 229 665 l 169 665 l 169 735 l 192 735 q 254 758 229 735 q 279 818 279 782 q 253 868 279 850 q 181 886 228 886 q 126 879 151 886 q 71 857 101 872 q 143 951 88 917 q 279 985 199 985 q 427 949 372 985 q 482 851 482 913 q 443 758 482 796 q 335 708 404 721 l 335 704 q 442 669 401 703 q 482 569 482 636 q 454 486 482 525 q 380 425 426 447 q 279 403 333 403 m 849 947 l 950 947 l 357 -56 l 253 -56 l 849 947 m 1085 310 q 1156 243 1133 278 q 1178 167 1178 208 q 1122 38 1178 88 q 949 -12 1065 -12 q 775 25 840 -12 q 710 128 710 63 q 736 201 710 171 q 822 247 763 231 l 810 256 q 736 330 756 292 q 717 411 717 368 q 774 528 717 486 q 926 571 831 571 q 1090 537 1028 571 q 1153 444 1153 503 q 1125 378 1153 406 q 1043 338 1097 350 l 1085 310 m 925 525 q 888 514 901 525 q 874 483 874 503 q 883 452 874 467 q 915 422 893 438 l 983 378 q 986 446 986 397 q 969 503 986 482 q 925 525 951 525 m 950 33 q 999 46 979 33 q 1018 79 1018 58 q 1004 114 1018 96 q 950 160 990 132 l 885 204 q 882 158 882 176 q 899 67 882 100 q 950 33 917 33 z "},"⅝":{"ha":1242,"x_min":47,"x_max":1183,"o":"m 282 764 q 415 717 365 764 q 464 582 464 669 q 401 448 464 500 q 239 396 339 396 q 121 427 169 396 q 47 514 72 458 q 142 493 106 493 q 228 518 197 493 q 258 585 258 543 q 235 640 258 622 q 176 658 213 658 q 121 650 147 658 q 89 640 94 642 l 169 972 l 417 972 q 510 997 474 972 l 457 832 l 213 832 l 194 753 q 282 764 232 764 m 854 947 l 956 947 l 363 -56 l 258 -56 l 854 947 m 1090 310 q 1161 243 1139 278 q 1183 167 1183 208 q 1127 38 1183 88 q 954 -12 1071 -12 q 781 25 846 -12 q 715 128 715 63 q 742 201 715 171 q 828 247 768 231 l 815 256 q 742 330 761 292 q 722 411 722 368 q 779 528 722 486 q 932 571 836 571 q 1096 537 1033 571 q 1158 444 1158 503 q 1131 378 1158 406 q 1049 338 1103 350 l 1090 310 m 931 525 q 893 514 907 525 q 879 483 879 503 q 889 452 879 467 q 921 422 899 438 l 989 378 q 992 446 992 397 q 974 503 992 482 q 931 525 957 525 m 956 33 q 1004 46 985 33 q 1024 79 1024 58 q 1010 114 1024 96 q 956 160 996 132 l 890 204 q 888 158 888 176 q 905 67 888 100 q 956 33 922 33 z "},"•":{"ha":833,"x_min":218,"x_max":615,"o":"m 417 265 q 317 292 363 265 q 244 364 271 318 q 218 464 218 410 q 244 564 218 518 q 317 636 271 610 q 417 663 363 663 q 517 636 471 663 q 589 564 563 610 q 615 464 615 518 q 589 364 615 410 q 517 292 563 318 q 417 265 471 265 z "}," ":{"ha":1389,"x_min":0,"x_max":0,"o":""}," ":{"ha":694,"x_min":0,"x_max":0,"o":""}," ":{"ha":347,"x_min":0,"x_max":0,"o":""}," ":{"ha":104,"x_min":0,"x_max":0,"o":""}," ":{"ha":278,"x_min":0,"x_max":0,"o":""}," ":{"ha":185,"x_min":0,"x_max":0,"o":""}," ":{"ha":463,"x_min":0,"x_max":0,"o":""},"฿":{"ha":938,"x_min":49,"x_max":903,"o":"m 601 478 q 825 417 747 476 q 903 249 903 358 q 510 0 903 0 l 501 0 l 501 -139 l 440 -139 l 440 0 l 49 0 q 106 92 89 40 q 124 224 124 144 l 124 707 q 106 840 124 788 q 49 931 89 892 l 440 931 l 440 1042 l 501 1042 l 501 931 l 521 931 q 770 876 686 931 q 854 714 854 821 q 789 555 854 614 q 601 485 724 496 l 601 478 m 403 851 l 403 510 l 429 510 l 440 510 l 440 851 l 429 851 l 403 851 m 561 688 q 501 833 561 799 l 501 528 q 561 688 561 567 m 440 79 l 440 442 l 431 442 l 403 442 l 403 79 l 440 79 m 501 89 q 568 151 544 107 q 592 261 592 194 q 569 374 592 332 q 501 432 547 415 l 501 89 z "},"₿":{"ha":938,"x_min":49,"x_max":903,"o":"m 903 249 q 554 1 903 14 l 554 -139 l 485 -139 l 485 0 l 388 0 l 388 -139 l 318 -139 l 318 0 l 49 0 q 106 92 89 40 q 124 224 124 144 l 124 707 q 106 840 124 788 q 49 931 89 892 l 318 931 l 318 1042 l 388 1042 l 388 931 l 485 931 l 485 1042 l 554 1042 l 554 931 q 854 714 854 918 q 789 555 854 614 q 601 485 724 496 l 601 478 q 825 417 747 476 q 903 249 903 358 m 403 851 l 403 510 l 429 510 q 561 688 561 510 q 429 851 561 851 l 403 851 m 446 79 q 552 127 513 79 q 592 261 592 175 q 553 398 592 354 q 431 442 514 442 l 403 442 l 403 79 l 446 79 z "},"₽":{"ha":868,"x_min":49,"x_max":847,"o":"m 414 424 q 524 516 486 454 q 561 660 561 578 q 519 805 561 753 q 408 857 478 857 l 403 857 l 403 292 l 611 292 l 611 222 l 403 222 q 431 92 403 146 q 514 0 458 39 l 49 0 q 106 92 89 40 q 124 222 124 144 l 49 222 l 49 292 l 124 292 l 124 707 q 106 840 124 788 q 49 931 89 892 l 483 931 q 753 863 658 931 q 847 658 847 794 q 809 520 847 582 q 705 423 771 458 q 560 388 639 388 q 476 397 514 388 q 414 424 438 407 z "},"₹":{"ha":738,"x_min":42,"x_max":689,"o":"m 689 861 l 468 861 q 558 693 558 801 l 689 693 l 689 624 l 544 624 q 431 500 515 549 q 243 451 347 451 l 243 442 q 433 398 354 444 q 543 268 513 351 l 613 115 q 650 49 628 81 q 689 0 672 18 l 346 0 q 292 128 319 42 l 219 306 q 174 378 197 358 q 110 399 151 399 l 42 399 l 42 475 l 104 475 q 192 514 158 475 q 235 624 225 553 l 43 624 l 43 693 l 239 693 q 211 815 238 775 q 129 861 185 856 l 43 861 l 43 929 l 42 931 l 689 931 l 689 861 z "},"↔":{"ha":1389,"x_min":56,"x_max":1333,"o":"m 974 185 l 1150 397 l 239 397 l 415 185 l 415 157 l 56 425 l 415 693 l 415 665 l 239 453 l 1150 453 l 974 665 l 974 693 l 1333 425 l 974 157 l 974 185 z "},"↕":{"ha":647,"x_min":56,"x_max":592,"o":"m 564 304 l 592 304 l 324 -56 l 56 304 l 83 304 l 296 128 l 296 858 l 83 682 l 56 682 l 324 1042 l 592 682 l 564 682 l 351 858 l 351 128 l 564 304 z "},"●":{"ha":1153,"x_min":35,"x_max":1118,"o":"m 576 -56 q 294 13 418 -56 q 103 203 171 81 q 35 486 35 326 q 103 769 35 646 q 294 960 171 892 q 576 1028 418 1028 q 858 960 735 1028 q 1050 769 982 892 q 1118 486 1118 646 q 1050 203 1118 326 q 858 13 982 81 q 576 -56 735 -56 z "},"○":{"ha":1153,"x_min":35,"x_max":1118,"o":"m 576 -56 q 294 13 418 -56 q 103 203 171 81 q 35 486 35 326 q 103 769 35 646 q 294 960 171 892 q 576 1028 418 1028 q 858 960 735 1028 q 1050 769 982 892 q 1118 486 1118 646 q 1050 203 1118 326 q 858 13 982 81 q 576 -56 735 -56 m 579 31 q 801 88 703 31 q 956 249 900 144 q 1011 486 1011 353 q 956 724 1011 619 q 801 885 900 828 q 579 942 703 942 q 357 885 456 942 q 203 724 258 828 q 147 486 147 619 q 203 249 147 353 q 357 88 258 144 q 579 31 456 31 z "},"№":{"ha":1547,"x_min":14,"x_max":1513,"o":"m 790 786 q 765 903 790 863 q 674 972 740 943 l 990 972 q 922 899 943 943 q 901 786 901 856 l 901 -28 l 258 697 l 258 192 q 285 76 258 121 q 372 0 313 32 l 58 0 q 125 76 103 29 q 147 192 147 122 l 147 822 l 114 860 l 14 972 l 393 972 l 790 549 l 790 786 m 1258 197 q 1122 231 1179 197 q 1035 324 1065 265 q 1004 456 1004 382 q 1035 588 1004 529 q 1122 680 1065 646 q 1258 714 1179 714 q 1394 680 1338 714 q 1482 588 1451 646 q 1513 456 1513 529 q 1444 269 1513 342 q 1258 197 1376 197 m 1258 656 q 1187 603 1210 656 q 1164 456 1164 550 q 1187 308 1164 361 q 1258 256 1210 256 q 1330 308 1307 256 q 1353 456 1353 361 q 1330 603 1353 550 q 1258 656 1307 656 m 1032 90 l 1485 90 l 1485 0 l 1032 0 l 1032 90 z "},"̈":{"ha":0,"x_min":-544,"x_max":-69,"o":"m -442 808 q -515 838 -485 808 q -544 911 -544 867 q -515 985 -544 956 q -442 1014 -485 1014 q -369 985 -399 1014 q -339 911 -339 956 q -369 838 -339 867 q -442 808 -399 808 m -172 808 q -245 838 -215 808 q -275 911 -275 867 q -245 985 -275 956 q -172 1014 -215 1014 q -99 985 -129 1014 q -69 911 -69 956 q -99 838 -69 867 q -172 808 -129 808 z "},"̇":{"ha":0,"x_min":-306,"x_max":-69,"o":"m -187 794 q -272 828 -237 794 q -306 911 -306 863 q -272 994 -306 960 q -187 1028 -237 1028 q -103 994 -137 1028 q -69 911 -69 960 q -103 828 -69 863 q -187 794 -137 794 z "},"̀":{"ha":0,"x_min":-361,"x_max":-69,"o":"m -361 965 l -361 972 l -157 972 l -69 799 l -135 799 l -361 965 z "},"́":{"ha":0,"x_min":-361,"x_max":-69,"o":"m -361 799 l -274 972 l -69 972 l -69 965 l -296 799 l -361 799 z "},"̋":{"ha":0,"x_min":-497,"x_max":-69,"o":"m -415 972 l -279 972 l -279 961 l -487 788 l -497 788 l -415 972 m -207 972 l -69 972 l -69 961 l -293 788 l -303 788 l -207 972 z "},"̂":{"ha":0,"x_min":-508,"x_max":-69,"o":"m -328 972 l -250 972 l -69 799 l -147 799 l -289 889 l -431 799 l -508 799 l -328 972 z "},"̌":{"ha":0,"x_min":-508,"x_max":-69,"o":"m -508 972 l -431 972 l -289 882 l -147 972 l -69 972 l -250 799 l -328 799 l -508 972 z "},"̆":{"ha":0,"x_min":-425,"x_max":-69,"o":"m -247 790 q -374 840 -324 790 q -425 972 -425 890 l -383 972 q -342 910 -379 932 q -247 889 -306 889 q -152 910 -189 889 q -111 972 -115 932 l -69 972 q -120 840 -69 890 q -247 790 -171 790 z "},"̊":{"ha":0,"x_min":-336,"x_max":-69,"o":"m -203 783 q -299 819 -261 783 q -336 913 -336 856 q -299 1006 -336 969 q -203 1042 -261 1042 q -107 1006 -144 1042 q -69 913 -69 969 q -107 819 -69 856 q -203 783 -144 783 m -203 821 q -136 846 -161 821 q -111 913 -111 871 q -136 979 -111 954 q -203 1004 -161 1004 q -269 979 -244 1004 q -294 913 -294 954 q -269 846 -294 871 q -203 821 -244 821 z "},"̃":{"ha":0,"x_min":-508,"x_max":-69,"o":"m -215 810 q -265 818 -244 810 q -314 843 -286 826 q -358 867 -337 858 q -403 875 -378 875 q -458 860 -431 875 q -499 811 -485 844 l -508 811 q -362 988 -496 988 q -312 979 -333 988 q -264 954 -292 971 q -220 931 -240 939 q -175 922 -200 922 q -121 938 -147 922 q -79 986 -94 953 l -69 986 q -112 852 -75 894 q -215 810 -149 810 z "},"̄":{"ha":0,"x_min":-511,"x_max":-69,"o":"m -511 900 l -69 900 l -69 844 l -511 844 l -511 900 z "},"̒":{"ha":0,"x_min":-256,"x_max":-69,"o":"m -101 1075 q -168 1046 -144 1064 q -192 1007 -192 1028 q -179 976 -192 988 q -136 957 -167 964 q -85 931 -101 949 q -69 882 -69 913 q -92 829 -69 849 q -150 810 -114 810 q -224 846 -193 810 q -256 932 -256 882 q -219 1039 -256 997 q -110 1103 -183 1081 l -101 1075 z "},"̦":{"ha":0,"x_min":-232,"x_max":-69,"o":"m -207 -274 q -133 -218 -133 -258 q -142 -194 -133 -203 q -178 -179 -151 -186 q -219 -156 -206 -171 q -232 -118 -232 -142 q -215 -73 -232 -90 q -167 -56 -197 -56 q -99 -87 -128 -56 q -69 -161 -69 -119 q -102 -247 -69 -211 q -199 -299 -135 -282 l -207 -274 z "},"̧":{"ha":0,"x_min":-312,"x_max":-69,"o":"m -69 -174 q -106 -264 -69 -229 q -197 -299 -142 -299 q -274 -273 -244 -299 q -312 -203 -303 -247 l -297 -196 q -232 -235 -278 -235 q -190 -217 -206 -235 q -175 -171 -175 -200 q -189 -131 -175 -146 q -225 -115 -203 -115 q -239 -117 -232 -115 q -256 -124 -246 -118 l -278 -112 l -210 0 l -181 0 l -229 -76 q -181 -65 -211 -65 q -101 -94 -133 -65 q -69 -174 -69 -124 z "},"̨":{"ha":0,"x_min":-374,"x_max":-69,"o":"m -224 -292 q -333 -258 -292 -292 q -374 -165 -374 -225 q -322 -57 -374 -104 q -157 7 -269 -10 l -157 0 q -249 -100 -249 -31 q -226 -158 -249 -137 q -167 -178 -204 -178 q -76 -112 -104 -178 l -69 -115 q -117 -247 -78 -203 q -224 -292 -157 -292 z "}}}
